<svg width="500" height="500" viewBox="0 0 500 500" fill="none" xmlns="http://www.w3.org/2000/svg">
<rect width="500" height="500" rx="48" fill="#84432E"/>
<path d="M306.108 344.955C218.971 348.8 133.6 323.064 55 363C92.0611 336.066 117.012 320.554 249.439 334.601C381.867 348.647 449.671 301.551 443.879 306.201C438.087 310.852 393.245 341.109 306.108 344.955Z" fill="url(#paint0_linear_1862_593)"/>
<path d="M154.728 306.131V302.806H157.363C157.99 302.806 158.533 302.723 158.993 302.555C159.495 302.346 159.872 301.949 160.123 301.364C160.415 300.778 160.562 299.9 160.562 298.729V265.171H155.544C154.289 265.171 153.306 265.359 152.595 265.735C151.885 266.07 151.362 266.572 151.027 267.241C150.693 267.91 150.463 268.704 150.337 269.624L149.898 273.513H145.696L146.009 261.345H185.087L185.401 273.513H181.198L180.759 269.624C180.676 268.704 180.446 267.91 180.069 267.241C179.735 266.572 179.212 266.07 178.501 265.735C177.79 265.359 176.808 265.171 175.553 265.171H170.535V298.729C170.535 299.9 170.66 300.778 170.911 301.364C171.204 301.949 171.601 302.346 172.103 302.555C172.605 302.723 173.149 302.806 173.734 302.806H176.369V306.131H154.728ZM189.247 306.131V302.806H191.443C192.321 302.806 192.99 302.66 193.45 302.367C193.952 302.033 194.203 301.217 194.203 299.921V276.775C194.203 275.395 193.973 274.538 193.513 274.203C193.053 273.827 192.363 273.639 191.443 273.639H189.247V270.314H220.297L220.548 280.037H216.345L216.094 277.465C215.927 276.127 215.571 275.165 215.028 274.58C214.484 273.994 213.669 273.702 212.581 273.702H203.737V285.62H216.157V289.007H203.737V302.681H214.275C215.237 302.681 215.989 302.346 216.533 301.677C217.077 300.966 217.453 300.046 217.662 298.917L218.101 296.346H222.178L221.739 306.131H189.247ZM227.209 306.131V302.806H229.404C230.24 302.806 230.91 302.66 231.411 302.367C231.913 302.033 232.164 301.238 232.164 299.984V276.524C232.164 275.27 231.913 274.475 231.411 274.141C230.91 273.806 230.24 273.639 229.404 273.639H227.209V270.314H245.336C248.807 270.314 251.609 270.733 253.742 271.569C255.874 272.363 257.443 273.493 258.446 274.956C259.45 276.42 259.952 278.134 259.952 280.1C259.952 281.814 259.617 283.236 258.948 284.365C258.321 285.494 257.484 286.414 256.439 287.125C255.435 287.836 254.348 288.4 253.177 288.819L259.262 298.98C259.847 299.9 260.391 300.653 260.892 301.238C261.436 301.782 261.98 302.179 262.523 302.43C263.109 302.681 263.694 302.806 264.28 302.806H264.531V306.131H261.833C259.617 306.131 257.756 305.984 256.251 305.692C254.787 305.357 253.574 304.814 252.613 304.061C251.651 303.308 250.815 302.305 250.104 301.05L244.458 290.763H241.698V299.984C241.698 301.238 241.949 302.033 242.451 302.367C242.953 302.66 243.622 302.806 244.458 302.806H246.654V306.131H227.209ZM243.58 287.439C245.713 287.439 247.323 286.874 248.41 285.745C249.497 284.574 250.041 282.797 250.041 280.413C250.041 277.904 249.539 276.169 248.535 275.207C247.532 274.203 246.089 273.702 244.207 273.702H241.698V287.439H243.58ZM266.431 306.131V302.806H266.933C267.644 302.806 268.25 302.723 268.752 302.555C269.296 302.388 269.777 302.075 270.195 301.615C270.613 301.155 270.99 300.506 271.324 299.67L282.74 270.314H291.773L302.561 298.98C303.147 300.444 303.795 301.447 304.506 301.991C305.259 302.535 306.032 302.806 306.827 302.806H307.893V306.131H289.201V302.806H290.957C291.71 302.806 292.254 302.702 292.588 302.493C292.964 302.242 293.153 301.866 293.153 301.364C293.153 301.029 293.111 300.695 293.027 300.36C292.944 300.026 292.839 299.67 292.714 299.294L290.894 294.15H278.161L276.593 298.353C276.426 298.896 276.279 299.377 276.154 299.796C276.028 300.214 275.966 300.653 275.966 301.113C275.966 301.531 276.112 301.928 276.405 302.305C276.739 302.639 277.304 302.806 278.098 302.806H279.98V306.131H266.431ZM279.353 290.763H289.64L287.005 283.299C286.587 282.128 286.169 280.915 285.751 279.661C285.333 278.406 284.936 277.152 284.559 275.897C284.35 276.733 284.099 277.57 283.806 278.406C283.556 279.242 283.284 280.079 282.991 280.915C282.698 281.71 282.406 282.504 282.113 283.299L279.353 290.763ZM311.095 306.131V302.806H313.353C314.273 302.806 314.942 302.639 315.36 302.305C315.82 301.928 316.05 301.071 316.05 299.733V276.524C316.05 275.27 315.82 274.475 315.36 274.141C314.9 273.806 314.231 273.639 313.353 273.639H311.095V270.314H328.595C331.982 270.314 334.742 270.712 336.875 271.506C339.049 272.301 340.638 273.493 341.642 275.082C342.688 276.671 343.21 278.657 343.21 281.041C343.21 283.173 342.708 285.139 341.705 286.937C340.743 288.693 339.112 290.094 336.812 291.139C334.512 292.185 331.376 292.708 327.403 292.708H325.584V299.984C325.584 301.196 325.814 301.97 326.274 302.305C326.776 302.639 327.445 302.806 328.282 302.806H331.669V306.131H311.095ZM326.839 289.383C328.428 289.383 329.682 289.09 330.602 288.505C331.564 287.919 332.254 287.041 332.672 285.87C333.09 284.658 333.3 283.131 333.3 281.291C333.3 278.657 332.86 276.733 331.982 275.521C331.146 274.308 329.703 273.702 327.654 273.702H325.584V289.383H326.839ZM348.321 306.131V302.806H350.516C351.436 302.806 352.126 302.639 352.586 302.305C353.046 301.928 353.276 301.071 353.276 299.733V276.712C353.276 275.374 353.046 274.538 352.586 274.203C352.126 273.827 351.436 273.639 350.516 273.639H348.321V270.314H367.766V273.639H365.57C364.692 273.639 364.002 273.827 363.501 274.203C363.041 274.538 362.811 275.374 362.811 276.712V299.733C362.811 301.071 363.02 301.928 363.438 302.305C363.856 302.639 364.567 302.806 365.57 302.806H367.766V306.131H348.321ZM371.188 306.131V302.806H371.69C372.401 302.806 373.007 302.723 373.509 302.555C374.053 302.388 374.534 302.075 374.952 301.615C375.37 301.155 375.746 300.506 376.081 299.67L387.497 270.314H396.53L407.318 298.98C407.904 300.444 408.552 301.447 409.263 301.991C410.016 302.535 410.789 302.806 411.584 302.806H412.65V306.131H393.958V302.806H395.714C396.467 302.806 397.01 302.702 397.345 302.493C397.721 302.242 397.91 301.866 397.91 301.364C397.91 301.029 397.868 300.695 397.784 300.36C397.7 300.026 397.596 299.67 397.47 299.294L395.651 294.15H382.918L381.35 298.353C381.183 298.896 381.036 299.377 380.911 299.796C380.785 300.214 380.723 300.653 380.723 301.113C380.723 301.531 380.869 301.928 381.162 302.305C381.496 302.639 382.061 302.806 382.855 302.806H384.737V306.131H371.188ZM384.11 290.763H394.397L391.762 283.299C391.344 282.128 390.926 280.915 390.508 279.661C390.09 278.406 389.692 277.152 389.316 275.897C389.107 276.733 388.856 277.57 388.563 278.406C388.313 279.242 388.041 280.079 387.748 280.915C387.455 281.71 387.163 282.504 386.87 283.299L384.11 290.763Z" fill="white"/>
<path d="M94.308 183.901C93.8963 182.597 93.313 181.602 92.5581 180.916C91.8033 180.161 91.0141 179.646 90.1907 179.372C89.3672 179.097 88.6123 178.96 87.9261 178.96H85.5586V173.505H119.527V178.96H114.792C113.831 178.96 112.905 179.2 112.013 179.681C111.189 180.161 110.778 181.053 110.778 182.357C110.778 182.769 110.812 183.249 110.881 183.798C111.018 184.347 111.155 184.896 111.292 185.445C111.429 185.925 111.567 186.372 111.704 186.783L122.203 218.487C122.478 219.242 122.752 220.168 123.027 221.266C123.37 222.296 123.679 223.428 123.953 224.663C124.228 225.83 124.468 226.996 124.674 228.163C124.948 229.261 125.12 230.29 125.188 231.251C125.394 230.084 125.669 228.781 126.012 227.339C126.355 225.898 126.732 224.423 127.144 222.913C127.625 221.404 128.071 220.031 128.482 218.796L139.085 187.504C139.29 187.023 139.462 186.474 139.599 185.857C139.805 185.171 139.977 184.519 140.114 183.901C140.251 183.283 140.32 182.803 140.32 182.46C140.32 181.293 139.942 180.436 139.188 179.887C138.433 179.269 137.438 178.96 136.202 178.96H130.85V173.505H157.407V178.96H152.466C151.848 178.96 151.299 179.166 150.819 179.578C150.339 179.921 149.858 180.642 149.378 181.739C148.898 182.769 148.28 184.347 147.525 186.474L126.527 247H116.233L94.308 183.901ZM162.682 247V241.544H166.284C167.794 241.544 168.926 241.27 169.681 240.721C170.436 240.103 170.813 238.697 170.813 236.501V198.724C170.813 196.528 170.436 195.155 169.681 194.606C168.926 193.989 167.794 193.68 166.284 193.68H162.682V188.224H194.591V193.68H190.989C189.547 193.68 188.415 193.989 187.592 194.606C186.837 195.155 186.459 196.528 186.459 198.724V236.501C186.459 238.697 186.803 240.103 187.489 240.721C188.175 241.27 189.342 241.544 190.989 241.544H194.591V247H162.682ZM200.208 247V241.544H201.031C202.198 241.544 203.193 241.407 204.016 241.133C204.908 240.858 205.697 240.344 206.384 239.589C207.07 238.834 207.688 237.77 208.237 236.398L226.971 188.224H241.793L259.498 235.265C260.459 237.667 261.522 239.314 262.689 240.206C263.924 241.098 265.194 241.544 266.497 241.544H268.247V247H237.573V241.544H240.455C241.69 241.544 242.582 241.373 243.131 241.03C243.749 240.618 244.058 240 244.058 239.177C244.058 238.628 243.989 238.079 243.852 237.53C243.715 236.981 243.543 236.398 243.337 235.78L240.352 227.339H219.456L216.883 234.236C216.609 235.128 216.368 235.917 216.162 236.604C215.957 237.29 215.854 238.01 215.854 238.765C215.854 239.451 216.094 240.103 216.574 240.721C217.123 241.27 218.05 241.544 219.353 241.544H222.441V247H200.208ZM221.412 221.781H238.293L233.97 209.532C233.284 207.61 232.598 205.62 231.911 203.562C231.225 201.503 230.573 199.444 229.956 197.386C229.613 198.758 229.201 200.13 228.72 201.503C228.309 202.875 227.863 204.248 227.382 205.62C226.902 206.924 226.422 208.228 225.941 209.532L221.412 221.781ZM273.604 247V241.544H277.104C278.613 241.544 279.711 241.27 280.398 240.721C281.153 240.103 281.53 238.697 281.53 236.501V198.415C281.53 196.356 281.118 195.052 280.295 194.503C279.54 193.954 278.476 193.68 277.104 193.68H273.398V188.224H294.911L324.454 225.898V198.415C324.454 196.356 324.042 195.052 323.218 194.503C322.395 193.954 321.263 193.68 319.822 193.68H316.322V188.224H339.894V193.68H336.291C334.85 193.68 333.718 193.989 332.894 194.606C332.139 195.155 331.762 196.528 331.762 198.724V247H322.704L288.838 203.15V236.501C288.838 238.697 289.25 240.103 290.074 240.721C290.897 241.27 292.064 241.544 293.573 241.544H296.764V247H273.604ZM344.501 247V241.544H345.324C346.491 241.544 347.486 241.407 348.31 241.133C349.202 240.858 349.991 240.344 350.677 239.589C351.363 238.834 351.981 237.77 352.53 236.398L371.264 188.224H386.087L403.791 235.265C404.752 237.667 405.816 239.314 406.982 240.206C408.218 241.098 409.487 241.544 410.791 241.544H412.541V247H381.866V241.544H384.748C385.984 241.544 386.876 241.373 387.425 241.03C388.042 240.618 388.351 240 388.351 239.177C388.351 238.628 388.283 238.079 388.145 237.53C388.008 236.981 387.836 236.398 387.631 235.78L384.645 227.339H363.75L361.176 234.236C360.902 235.128 360.662 235.917 360.456 236.604C360.25 237.29 360.147 238.01 360.147 238.765C360.147 239.451 360.387 240.103 360.868 240.721C361.417 241.27 362.343 241.544 363.647 241.544H366.735V247H344.501ZM365.706 221.781H382.587L378.264 209.532C377.577 207.61 376.891 205.62 376.205 203.562C375.519 201.503 374.867 199.444 374.249 197.386C373.906 198.758 373.494 200.13 373.014 201.503C372.602 202.875 372.156 204.248 371.676 205.62C371.195 206.924 370.715 208.228 370.235 209.532L365.706 221.781Z" fill="white"/>
<defs>
<linearGradient id="paint0_linear_1862_593" x1="55" y1="334.439" x2="444.221" y2="334.439" gradientUnits="userSpaceOnUse">
<stop stop-color="#AC8C4D"/>
<stop offset="0.509615" stop-color="#C1A461"/>
<stop offset="1" stop-color="#B69F69"/>
</linearGradient>
</defs>
</svg>
