<svg width="1209" height="262" viewBox="0 0 1209 262" fill="none" xmlns="http://www.w3.org/2000/svg">
<path fill-rule="evenodd" clip-rule="evenodd" d="M1123.7 0.314966C1106.9 2.19349 1092.29 8.5178 1081.67 18.5107C1071.56 28.0249 1065.01 41.7559 1066.6 50.1296C1067.08 52.6578 1067.04 53.2255 1066.33 54.4741C1065.14 56.5596 1061.05 61.6975 1053.41 70.7234C1046.62 78.7528 1045.38 80.5626 1045.38 82.4974C1045.38 85.4322 1047.76 87.0647 1053.27 87.9205C1055.04 88.1948 1056.97 88.7659 1057.56 89.1897L1058.63 89.96L1057.59 92.6866C1057.02 94.1859 1056.1 96.5441 1055.53 97.9271C1054.39 100.707 1054.53 101.199 1057.28 103.836L1058.46 104.96L1057.22 106.579C1055.68 108.605 1055.67 109.707 1057.18 111.558C1057.83 112.361 1058.73 113.455 1059.17 113.989C1060.59 115.725 1060.52 118.241 1058.92 122.838C1058.1 125.17 1057.44 127.778 1057.44 128.635C1057.44 133.213 1060.34 136.472 1065.94 138.193C1069.02 139.139 1069.98 139.21 1079.85 139.226C1091.58 139.245 1091.57 139.244 1096.49 142.26C1097.95 143.152 1102.61 145.372 1106.85 147.195C1115.39 150.864 1116.88 151.912 1120.72 156.987C1127.18 165.511 1131.48 176.809 1133.08 189.446C1134.37 199.725 1134.11 211.104 1132.47 215.96L1131.78 218H1148.68L1148.37 216.613C1148.19 215.85 1147.8 213.413 1147.5 211.197C1146.18 201.663 1149.74 184.16 1154.84 175.062C1156.79 171.579 1157.23 169.822 1156.66 167.808C1156.11 165.889 1157 160.17 1158.73 154.452C1159.94 150.434 1165.45 140.208 1169.02 135.331C1170.5 133.308 1174.07 129.473 1176.97 126.81C1182.45 121.759 1182.77 121.251 1183.49 116.603C1183.95 113.623 1186.82 108.767 1193.37 99.9211C1202.37 87.7474 1205.34 81.877 1207.13 72.6557C1209.68 59.5652 1207.7 45.7126 1201.5 33.3981C1199.14 28.7127 1194 22.2854 1189.07 17.8748C1179.32 9.14855 1166.75 3.51598 1151.66 1.12262C1145.19 0.0968411 1129.66 -0.351428 1123.7 0.314966ZM1129 13.8386C1129.18 12.7961 1130.39 10.0013 1131.69 7.62727L1134.06 3.31116L1130.1 3.37986C1123.16 3.50009 1123.28 3.45672 1122.34 6.12788L1121.51 8.47143L1125.79 15.4467L1127.25 10.1305C1128.87 4.212 1129.31 4.76675 1127.81 10.8253C1127.28 12.9507 1126.64 16.3342 1126.38 18.3441C1126.12 20.3544 1125.26 23.7233 1124.46 25.8316C1122.85 30.0751 1122.64 33.0864 1123.67 37.4252C1124.05 39.0375 1124.14 40.7559 1123.9 42.0831C1123.7 43.2403 1123.67 44.7955 1123.84 45.5396C1124.12 46.7706 1124.21 46.6409 1124.79 44.102C1125.14 42.567 1126.34 39.6039 1127.45 37.5175L1129.47 33.7236L1128.72 31.2916C1128.3 29.9536 1127.61 28.1348 1127.17 27.249C1126.73 26.3636 1126.47 25.6388 1126.61 25.6388C1127.04 25.6388 1129.62 30.5397 1129.99 32.0601L1130.36 33.5441L1131.27 32.5428C1132.76 30.8974 1132.76 29.9188 1131.23 25.504C1129.34 20.0419 1128.61 16.1998 1129 13.8386ZM1138.32 15.0619C1138.68 13.9125 1139.09 10.7986 1139.25 8.14166L1139.53 3.31116H1137.07C1135.04 3.31116 1134.51 3.4739 1134.05 4.24034C1133.15 5.73457 1133.85 9.30742 1135.84 13.3895L1137.68 17.1522L1138.32 15.0619ZM1155.34 5.84578C1155.32 5.31721 1154.23 5.00033 1150.61 4.4649C1148.02 4.08275 1144.55 3.6478 1142.89 3.49837L1139.88 3.227L1139.87 8.09958C1139.86 11.3422 1139.54 14.2577 1138.9 16.8147C1138.38 18.9281 1137.95 20.7417 1137.95 20.8444C1137.95 21.2179 1139.76 18.9491 1140.53 17.6103C1140.97 16.8555 1141.55 14.247 1141.84 11.8137C1142.55 5.64698 1142.82 5.59288 1142.47 11.684C1142.16 17.2569 1141.87 18.0607 1138.92 21.5597C1135.79 25.2588 1135.72 26.0175 1137.89 31.4569C1138.92 34.0426 1140.05 37.2865 1140.39 38.6653L1141.02 41.172L1141.87 39.7387C1142.98 37.892 1142.96 36.1448 1141.81 31.6501C1140.83 27.8711 1140.63 23.2128 1141.36 21.345C1141.63 20.631 1141.7 21.2776 1141.55 23.2772C1141.42 24.9303 1141.5 26.9591 1141.72 27.7857L1142.12 29.2885L1142.88 26.9269C1143.3 25.6281 1143.89 22.6332 1144.2 20.2716C1144.51 17.91 1145.1 14.4484 1145.51 12.5793C1145.96 10.5449 1146.16 8.16184 1146.01 6.64141C1145.86 5.24465 1145.89 4.22917 1146.07 4.38461C1146.24 4.54047 1146.5 6.13819 1146.63 7.93556L1146.87 11.2036L1148.18 9.5118C1149.65 7.61138 1152.25 4.89385 1151.65 5.88743C1151.43 6.24166 1150.32 7.78356 1149.17 9.31386C1146.72 12.578 1145.75 15.1989 1145.34 19.6275L1145.05 22.8478L1146.01 21.7744C1149.08 18.3694 1154.34 10.0533 1154.35 8.58349C1154.35 8.16313 1154.57 7.5298 1154.84 7.17556C1155.38 6.45163 1155.31 7.14293 1154.06 14.6768C1153.64 17.2672 1152.88 20.5369 1152.39 21.9427L1151.5 24.4988L1158.12 18.6434L1158.45 14.949C1159.08 7.86901 1159.62 6.09911 1159.39 11.8987L1159.17 17.2659L1160.73 15.5918C1163.7 12.417 1166.39 9.10647 1166.39 8.62214C1166.4 8.18932 1157.79 5.45805 1156.42 5.45805C1156.12 5.45805 1155.76 5.69979 1155.63 5.99477C1155.47 6.34214 1155.37 6.28976 1155.34 5.84578ZM1120.68 7.39841C1121.19 7.57188 1121.56 7.13563 1121.99 5.86338C1122.32 4.88612 1122.52 4.04927 1122.43 4.00375C1122.2 3.8758 1120.05 4.18494 1118.17 4.61862L1116.47 5.01064L1116.82 9.30355C1117.16 13.2985 1117.96 15.7532 1119.14 16.4055C1119.44 16.5686 1119.63 15.9542 1119.63 14.8223C1119.64 13.8047 1119.95 11.9202 1120.34 10.6342C1120.85 8.91711 1120.9 8.14509 1120.51 7.72602C1120.1 7.28935 1120.14 7.21249 1120.68 7.39841ZM1116.06 8.24901C1115.94 6.5959 1115.82 5.19484 1115.8 5.13602C1115.74 4.91102 1111.86 5.8037 1111.48 6.13003C1111.24 6.34128 1115.91 12.6952 1116.33 12.7309C1116.5 12.7455 1116.57 12.4196 1116.47 12.0061C1116.37 11.5926 1116.19 9.90211 1116.06 8.24901ZM1116.63 19.9414C1116.78 14.8696 1116.87 15.1178 1113.2 9.85917C1111.84 7.91108 1110.5 6.33226 1110.23 6.35072C1108.74 6.4542 1108.72 6.90076 1110.05 11.2336C1111.83 17.071 1112.93 19.6005 1114.89 22.3171L1116.5 24.5508L1116.63 19.9414ZM1135.52 23.7298C1137.19 19.0393 1137.19 18.9882 1135.03 13.9456C1134.25 12.1198 1133.44 9.61185 1133.24 8.3731L1132.88 6.12015L1131.44 8.90209C1130.17 11.3384 1129.99 12.1645 1129.99 15.5484C1129.99 18.7623 1130.27 20.1917 1131.65 24.0394C1132.55 26.5839 1133.45 28.5161 1133.65 28.3331C1133.84 28.1502 1134.68 26.0785 1135.52 23.7298ZM1110.26 14.6171C1109.88 13.2401 1109.32 11.0022 1109.02 9.64448C1108.72 8.28121 1108.22 7.18544 1107.9 7.19789C1107.59 7.20991 1106.5 7.52679 1105.49 7.90207C1103.72 8.55558 1103.65 8.64961 1103.96 10.1198C1104.14 10.9644 1104.7 12.1757 1105.21 12.812C1106.12 13.958 1110.95 17.764 1110.95 17.3406C1110.95 17.2196 1110.64 15.9941 1110.26 14.6171ZM1181.08 15.9323C1180.03 15.1431 1177.28 13.4977 1174.96 12.2753C1172.65 11.0528 1169.93 9.72134 1168.91 9.31644L1167.06 8.58049L1166.05 10.1507C1165.49 11.0142 1163.71 13.3079 1162.1 15.2474C1160.48 17.1869 1159.16 18.9869 1159.16 19.2479C1159.16 19.5086 1158.15 22.3575 1156.92 25.5787C1154.88 30.8909 1154.67 31.8145 1154.64 35.5145C1154.6 42.534 1156.12 52.2602 1157.26 52.2602C1157.89 52.2602 1158.27 49.2035 1158.43 42.85C1158.53 38.9255 1158.87 35.6012 1159.36 33.9442C1160.07 31.5264 1160.07 31.0739 1159.37 28.6427L1158.6 25.9849L1160.75 22.0548C1161.94 19.8933 1163.04 17.8349 1163.21 17.4806C1163.37 17.1264 1163.38 17.4162 1163.23 18.1247C1163.08 18.8332 1162.22 20.8641 1161.32 22.6383C1159.93 25.4009 1159.76 26.0987 1160.11 27.5027C1160.65 29.6509 1160.98 29.8768 1161.35 28.3731C1162.83 22.4455 1164.11 19.5215 1166.57 16.4162C1167.13 15.7124 1167.96 14.1667 1168.42 12.9812C1169.07 11.313 1169.26 11.0881 1169.27 11.9876C1169.28 12.6269 1168.28 14.849 1167.04 16.9254C1164.92 20.4811 1162.38 26.4924 1162.83 26.8956C1163.07 27.1154 1162.86 27.3494 1169.73 19.2475C1172.76 15.6772 1175.33 12.8429 1175.45 12.9485C1175.68 13.1504 1171.2 19.0509 1166.14 25.2094C1162.06 30.1829 1162.06 30.1838 1162.64 32.8111L1163.14 35.0409L1164.65 33.4148C1165.48 32.5209 1167.19 30.59 1168.46 29.1245C1169.73 27.659 1171.71 25.8672 1172.86 25.1433L1174.96 23.8268L1175.16 20.117C1175.27 18.0766 1175.58 16.062 1175.85 15.6403C1176.19 15.0984 1176.28 16.01 1176.13 18.7533C1175.98 21.5919 1176.08 22.6332 1176.5 22.6332C1176.82 22.6332 1178.41 21.4481 1180.04 19.9998L1182.99 17.3664L1181.08 15.9323ZM1103.44 14.4359C1103.39 12.2139 1103.33 10.058 1103.29 9.64448C1103.26 9.23099 1103.07 8.89737 1102.87 8.90252C1102.33 8.91669 1097.45 11.5041 1097.45 11.7789C1097.45 11.9099 1098.26 12.815 1099.26 13.7901C1100.25 14.7652 1101.62 16.2187 1102.3 17.0195L1103.53 18.4759L1103.44 14.4359ZM1124.5 21.9891C1125.76 17.743 1125.66 16.8082 1123.5 12.8421C1122.45 10.9064 1121.49 9.32245 1121.37 9.32245C1120.98 9.32245 1120.11 13.6205 1120.11 15.5819C1120.11 16.8374 1120.59 18.3578 1121.49 19.962C1122.25 21.3128 1123.03 22.9981 1123.24 23.7066C1123.59 24.9059 1123.68 24.7878 1124.5 21.9891ZM1148.04 25.5061C1148.17 28.9592 1150.87 24.4091 1152.69 17.6906C1154.1 12.4754 1154.09 10.7836 1152.65 13.6351C1152.12 14.6875 1150.19 17.7705 1148.35 20.4863C1146.51 23.2021 1144.73 26.1004 1144.39 26.9269C1143.73 28.5483 1143.5 33.8064 1144.1 33.7824C1144.3 33.7742 1145.19 32.3302 1146.09 30.5736C1147.51 27.8136 1147.69 27.0716 1147.46 25.1137C1147.29 23.6954 1147.34 23.169 1147.6 23.7066C1147.82 24.1789 1148.02 24.9887 1148.04 25.5061ZM1103.9 23.6452C1102.97 19.603 1102.39 18.515 1099.27 15.0117C1097.96 13.5359 1096.63 12.3324 1096.32 12.3375C1096.02 12.3427 1095.26 12.6918 1094.65 13.113C1093.66 13.7901 1093.5 14.3526 1093.25 17.9684C1092.82 24.4932 1094.57 27.8999 1100.49 32.0425C1102.46 33.4204 1104.04 34.9829 1104.95 36.4553C1106.31 38.6455 1106.37 38.9504 1106.37 44.2429V49.7509L1108.44 51.0056C1109.57 51.6956 1110.57 52.2602 1110.65 52.2602C1111.09 52.2602 1105.18 31.4023 1104.08 29.0451C1103.69 28.2125 1102.02 26.0931 1100.36 24.3352C1098.71 22.5773 1097.05 20.5571 1096.67 19.8465L1095.98 18.5541L1096.83 19.6275C1097.29 20.2179 1098.89 21.8603 1100.38 23.2772C1101.86 24.6942 1103.44 26.3314 1103.88 26.9153C1104.88 28.2327 1104.88 27.869 1103.9 23.6452ZM1119.92 32.7235C1118.67 30.1258 1116.31 26.1648 1114.68 23.9213C1113.05 21.6778 1110 18.2458 1107.9 16.2943L1104.07 12.7467L1104.33 17.153C1104.67 23.0123 1106.51 31.7158 1110.67 47.0875C1112.15 52.5586 1113.86 57.5205 1115.62 61.4717C1117.11 64.789 1118.68 68.5259 1119.13 69.7762L1119.94 72.0494L1121.72 69.3842C1123.39 66.8775 1123.45 66.659 1122.75 65.713C1122.35 65.1596 1120.97 63.9835 1119.7 63.0994C1116.34 60.7653 1115.61 59.7292 1115.38 56.9825C1115.21 54.8678 1115.34 54.4174 1116.48 53.2147L1117.77 51.8489L1115.31 48.5122C1113.95 46.677 1112.51 44.1501 1112.1 42.8968C1111.41 40.8164 1111.42 40.336 1112.16 37.3857C1112.6 35.6081 1112.84 33.7145 1112.69 33.1778C1112.54 32.6411 1111.44 31.4015 1110.25 30.4234C1109.05 29.4448 1108.22 28.6444 1108.4 28.6444C1108.93 28.6444 1111.91 30.5535 1111.91 30.8987C1111.91 31.076 1112.13 31.2207 1112.38 31.2207C1113.25 31.2207 1111.93 28.9652 1109.93 27.0347C1108.02 25.1884 1106.16 22.1793 1106.14 20.9156C1106.14 20.5614 1106.65 21.2377 1107.28 22.4185C1107.91 23.5993 1109.34 25.3382 1110.45 26.2829C1112.69 28.1803 1113.84 29.8553 1113.84 31.2052C1113.84 31.693 1114.79 33.1293 1115.95 34.3977C1117.47 36.0564 1118.43 37.7378 1119.38 40.3884C1120.81 44.3807 1121.76 45.6637 1121.86 43.7435C1122.22 37.2226 1122.3 37.6609 1119.92 32.7235ZM1092.12 19.4128C1092.33 18.9405 1092.66 17.5394 1092.85 16.2998C1093.05 15.0602 1093.13 14.0486 1093.04 14.0525C1092.95 14.0563 1092.17 14.5875 1091.31 15.2333C1090.45 15.879 1089.28 16.7073 1088.71 17.0744C1087.91 17.5875 1087.53 18.53 1087.07 21.1535L1086.46 24.5654L1088.33 26.3679C1089.35 27.3593 1090.33 27.9789 1090.49 27.7445C1090.65 27.5096 1090.95 25.2494 1091.16 22.7212C1091.36 20.193 1091.57 18.6077 1091.63 19.1981C1091.72 20.1844 1091.76 20.202 1092.12 19.4128ZM1121.88 28.1769C1122.51 24.6362 1122.22 23.3506 1119.83 19.1226C1118.94 17.5463 1118.02 16.1517 1117.78 16.0242C1117.55 15.8967 1117.43 16.7034 1117.52 17.8173C1117.61 18.9311 1117.76 21.2033 1117.86 22.8672C1117.99 24.9853 1118.44 26.6908 1119.38 28.5564C1120.12 30.0219 1120.86 31.2207 1121.03 31.2207C1121.2 31.2207 1121.59 29.851 1121.88 28.1769ZM1192.16 26.975C1192.54 26.4211 1190.54 24.0673 1186.19 19.9646C1183.61 17.5343 1182.79 17.0375 1182.79 17.9182C1182.79 18.1586 1181.39 19.5966 1179.69 21.114L1176.59 23.8723L1177.27 26.151C1177.65 27.4044 1177.96 28.8643 1177.96 29.3959C1177.97 31.161 1178.67 30.3632 1181.07 25.8372C1182.37 23.3713 1183.52 21.4257 1183.62 21.5138C1183.72 21.6018 1182.84 23.5804 1181.66 25.9106C1180.48 28.2408 1179.58 30.2147 1179.67 30.2971C1179.88 30.4981 1185.98 26.686 1188.09 25.0291L1189.78 23.7066L1188.09 25.3649C1187.16 26.2769 1184.91 28.0906 1183.09 29.3946C1178.39 32.7673 1177.72 34.2461 1178.48 39.6129C1178.79 41.8457 1179.13 43.6727 1179.22 43.6727C1179.7 43.6727 1181.56 39.7155 1182.16 37.454C1183.01 34.2092 1184.5 31.9575 1187.43 29.5032L1189.73 27.571L1188 29.3422C1185.28 32.1284 1183.84 34.648 1183.05 37.9989C1182.65 39.7035 1181.64 42.2888 1180.82 43.7435C1179.41 46.2232 1179.35 46.5581 1179.73 49.088L1180.14 51.787L1183.23 48.3104C1188.39 42.5275 1189.33 40.4068 1191.01 30.8708C1191.89 25.8651 1192.04 27.58 1191.25 33.6046C1190.85 36.6347 1190.58 39.1633 1190.65 39.2235C1190.72 39.2836 1191.93 37.5059 1193.34 35.2732L1195.9 31.2138L1194.36 29.0721C1193.51 27.8892 1192.59 27.0553 1192.31 27.2095C1192 27.3765 1191.94 27.2825 1192.16 26.975ZM1085.79 24.0325L1086.36 21.5812C1086.67 20.2329 1086.84 19.0517 1086.73 18.956C1086.63 18.8602 1085.8 19.4579 1084.9 20.2849L1083.27 21.7881L1085.79 24.0325ZM1153.62 33.1529C1153.81 31.736 1154.83 28.5058 1155.89 25.9746C1156.94 23.4434 1157.73 21.2214 1157.64 21.0367C1157.55 20.8521 1155.66 22.3751 1153.45 24.4215C1148.88 28.6444 1148.94 28.2705 1151.9 33.3676L1153.28 35.7292L1153.62 33.1529ZM1098.51 31.973C1097.08 30.8072 1095.39 28.8308 1094.56 27.3554C1093.75 25.9372 1092.93 24.0527 1092.72 23.1682C1092.05 20.2939 1091.57 22.7998 1091.42 29.9326C1091.27 37.1521 1091.08 38.9478 1089.88 44.6104C1088.99 48.7964 1088.96 48.7234 1092.26 51.0489L1094.14 52.3813L1093.79 50.7106C1093.59 49.7917 1093.39 47.2043 1093.33 44.9608C1093.27 42.7173 1093.11 38.3699 1092.96 35.2998C1092.72 30.1863 1092.74 30.0601 1093.12 33.797C1093.35 36.0405 1093.83 39.2286 1094.2 40.8817C1094.83 43.7998 1094.91 43.917 1096.99 44.902C1098.17 45.4597 1100.18 46.4739 1101.46 47.1562C1102.74 47.8381 1103.96 48.3958 1104.18 48.3958C1104.84 48.3958 1105.28 43.8058 1104.7 42.847C1104.41 42.3665 1102.86 41.1784 1101.26 40.2072C1098.61 38.6051 1095.51 35.2727 1095.53 34.0348C1095.53 33.7858 1096.08 34.4037 1096.76 35.408C1098.03 37.2938 1105.16 41.9728 1105.16 40.9191C1105.16 40.6284 1104.83 39.5236 1104.43 38.4639C1103.66 36.4647 1102.7 35.414 1098.51 31.973ZM1084.77 33.0825L1085.05 28.6092C1085.32 24.358 1085.28 24.0866 1084.24 23.1415L1083.14 22.1471L1081.58 23.7311C1080.35 24.9793 1080.09 25.5542 1080.33 26.443C1080.68 27.7093 1082.43 30.5144 1083.84 32.0606L1084.77 33.0825ZM1176.15 28.4298C1176.13 28.1936 1175.99 27.276 1175.83 26.3902C1175.67 25.5048 1175.33 24.78 1175.07 24.78C1174.42 24.78 1170.81 27.7226 1170.12 28.8222C1169.56 29.7114 1168.83 35.9623 1169.29 35.9241C1169.74 35.8863 1176.17 28.86 1176.15 28.4298ZM1089.14 43.458C1090.39 37.6472 1090.87 32.1349 1090.29 30.3894C1089.97 29.4641 1088.98 27.9201 1088.08 26.9583L1086.44 25.2099L1086.11 26.5302C1085.43 29.2889 1085.75 33.5222 1086.78 35.5145C1087.49 36.8765 1087.8 38.3973 1087.85 40.667C1087.88 42.4382 1088.06 44.3704 1088.25 44.9608C1088.53 45.8539 1088.68 45.601 1089.14 43.458ZM1079.78 32.9296C1079.95 31.4483 1080.09 29.5397 1080.09 28.6887C1080.07 25.723 1079.42 25.9106 1076.96 29.5852L1074.62 33.1027L1075.43 35.919C1076.45 39.3999 1079.14 44.3318 1082.96 49.6839C1084.56 51.9274 1086.08 54.0529 1086.33 54.4071C1086.66 54.8704 1086.8 54.4887 1086.82 53.0468C1086.83 51.9442 1086.96 50.7694 1087.11 50.4358C1087.27 50.0429 1086.18 49.0403 1083.99 47.5907C1079.43 44.5761 1079.15 43.9676 1083.55 46.6431C1087.07 48.7861 1087.09 48.7921 1087.24 47.7213C1087.48 46.0308 1085.57 43.0462 1083.17 41.3862C1081.59 40.2892 1080.53 39.0143 1079.32 36.7739C1078.41 35.0709 1077.75 33.5909 1077.87 33.4848C1077.99 33.3783 1078.4 33.8163 1078.78 34.4574C1079.45 35.6025 1079.47 35.5755 1079.78 32.9296ZM1139.87 42.731C1139.85 40.3506 1139.28 38.0517 1137.35 32.6162C1136.49 30.1958 1135.67 28.2151 1135.51 28.2151C1135.36 28.2151 1134.87 29.2464 1134.42 30.5071C1133.46 33.2117 1133.28 42.7177 1134.15 44.2377C1134.76 45.3039 1137.98 48.3958 1138.47 48.3958C1138.99 48.3958 1139.88 44.7702 1139.87 42.731ZM1086.77 39.9963C1086.63 37.6506 1086.29 36.5836 1085.24 35.0769C1084.49 34.0185 1083.16 32.1293 1082.28 30.8776L1080.67 28.6028L1080.32 32.2757C1079.89 36.9044 1080.31 37.8593 1084.07 40.7598L1086.96 42.9917L1086.77 39.9963ZM1169.25 43.0316C1170 40.9143 1172.29 38.4489 1175.22 36.5879C1176.54 35.7524 1176.58 35.636 1176.43 32.2942C1176.35 30.4049 1176.14 29.1683 1175.96 29.5461C1175.79 29.924 1173.67 32.566 1171.26 35.417C1168.85 38.2685 1166.88 41.0122 1166.88 41.5142C1166.88 42.0166 1167.24 43.0453 1167.69 43.8015L1168.5 45.1755L1169.25 43.0316ZM1153.25 41.3111C1153.07 39.1595 1152.46 37.1105 1151.08 34.0988C1150.02 31.7853 1149.04 29.7866 1148.89 29.6578C1148.75 29.529 1148.27 30.0412 1147.83 30.7961C1147.24 31.8072 1147.11 32.751 1147.33 34.3784C1147.92 38.7318 1148.54 40.0427 1151.07 42.2269L1153.49 44.3167L1153.25 41.3111ZM1165.89 39.1955C1167.66 36.7717 1168.06 35.8391 1168.23 33.7459C1168.35 32.3573 1168.36 31.2207 1168.26 31.2207C1168.16 31.2207 1166.94 32.5067 1165.55 34.0787C1162.97 36.9894 1162.82 37.4484 1163.41 40.4274L1163.75 42.12L1165.89 39.1955ZM1199.06 36.7412L1197.68 34.1954C1196.92 32.7957 1196.24 31.6613 1196.17 31.6746C1196.06 31.6973 1190.47 41.6189 1190.1 42.467C1189.88 42.9431 1196.11 39.15 1197.8 37.7747L1199.06 36.7412ZM1161.04 37.6614C1161.59 37.071 1162.02 36.1049 1162 35.5145C1161.98 34.9241 1161.81 33.958 1161.62 33.3676C1161.33 32.4225 1161.25 32.3886 1160.95 33.0821C1160.76 33.5153 1160.48 34.9645 1160.33 36.3024L1160.05 38.7348L1161.04 37.6614ZM1132.08 43.6688C1132.26 43.6667 1132.47 41.348 1132.56 38.5163C1132.64 35.6845 1132.64 33.3732 1132.56 33.38C1132.03 33.423 1128.31 38.5729 1128.31 39.2522C1128.31 40.0474 1131.41 43.6765 1132.08 43.6688ZM1150.55 43.4777C1149.27 42.2707 1147.94 40.5356 1147.6 39.6219C1147.26 38.7078 1146.83 36.9752 1146.65 35.7713C1146.32 33.6913 1146.28 33.6385 1145.78 34.7098C1144.74 36.9344 1144.31 39.2419 1144.03 44.102C1143.63 50.86 1144.93 55.3702 1148.28 58.9156L1149.49 60.2037L1149.08 54.6218L1149.69 57.651C1150.02 59.317 1150.66 61.1367 1151.1 61.6945L1151.89 62.7087L1152.37 61.5927C1152.75 60.7052 1152.51 59.5699 1151.22 56.0465C1148.17 47.7329 1146.85 43.7444 1147.21 43.9427C1147.41 44.0518 1148.43 46.4988 1149.47 49.3812C1150.52 52.2637 1151.92 55.7811 1152.58 57.1981L1153.78 59.7743L1154.82 57.6274C1155.99 55.2208 1155.96 54.8743 1154.16 49.5028C1153.07 46.2562 1152.52 45.3374 1150.55 43.4777ZM1117.76 39.6709C1117.45 38.5326 1116.62 36.8421 1115.93 35.9138C1114.48 33.9571 1113.84 33.7777 1113.84 35.3243C1113.84 35.9284 1113.61 37.2509 1113.32 38.2638C1112.65 40.6524 1113.31 42.9105 1115.51 45.6723C1116.42 46.8161 1117.75 48.7179 1118.46 49.8986C1119.17 51.0794 1120.43 52.8897 1121.26 53.9211L1122.76 55.797L1123.07 54.5651C1123.82 51.5208 1123.53 49.9394 1121.77 47.6229C1119.79 45.0029 1118.58 42.5932 1117.76 39.6709ZM1074.47 40.667C1074.6 40.667 1074.39 39.7649 1074.02 38.6618C1073.65 37.5592 1073.27 36.5978 1073.19 36.5257C1073.11 36.4535 1072.77 37.0809 1072.43 37.919C1072.09 38.7571 1071.88 39.4991 1071.97 39.5674C1072.29 39.8048 1074.25 40.667 1074.47 40.667ZM1177.32 55.025C1178.14 52.5913 1178.1 49.3915 1177.14 42.9213C1176.68 39.7919 1176.16 37.232 1176 37.232C1175.83 37.232 1174.71 38.0534 1173.5 39.0569C1172.09 40.2376 1171.13 41.488 1170.79 42.5992C1170.07 44.9179 1170.14 48.3799 1170.93 49.6449L1171.57 50.6788L1172.14 49.1425C1172.46 48.2971 1173.03 47.3735 1173.41 47.0892C1174.01 46.6478 1174 46.7968 1173.39 48.1146C1172.2 50.6522 1172.46 51.9219 1174.71 54.432L1176.75 56.7159L1177.32 55.025ZM1197.85 42.0453C1198.85 40.3201 1199.66 38.6279 1199.66 38.2848C1199.66 37.9422 1199.5 37.6635 1199.3 37.6657C1198.96 37.67 1191.35 42.7426 1190.36 43.6263C1190.08 43.8809 1190.21 45.2584 1190.73 47.3305C1191.18 49.1442 1191.44 51.0442 1191.3 51.5517C1190.87 53.1039 1193.78 49.769 1194.99 47.3254C1195.57 46.1463 1196.86 43.7701 1197.85 42.0453ZM1161.39 45.3455C1162.19 43.9822 1162.5 42.713 1162.52 40.7744C1162.53 39.2986 1162.38 38.0933 1162.18 38.0959C1161.98 38.0989 1161.33 38.7726 1160.73 39.5927C1159.63 41.1054 1159.3 43.978 1159.97 46.2043C1160.26 47.1695 1160.35 47.1163 1161.39 45.3455ZM1200.08 47.5581C1201.47 44.029 1201.56 43.5013 1201.06 41.7426C1200.76 40.6786 1200.38 39.8096 1200.21 39.8117C1199.73 39.8169 1198 42.716 1196.32 46.3219C1195.47 48.133 1193.9 50.7351 1192.83 52.1044C1191.07 54.3307 1189.54 57.2509 1189.54 58.3531C1189.54 58.8615 1196.39 53.8983 1197.64 52.4878C1198.15 51.9111 1199.25 49.693 1200.08 47.5581ZM1075.13 42.3648C1074.81 41.9998 1074.01 41.3716 1073.36 40.9693C1072.7 40.567 1072.02 40.2376 1071.84 40.2376C1070.23 40.2376 1069.69 51.6771 1071.29 52.1499C1071.54 52.2254 1073.22 53.1499 1075.02 54.2036L1078.3 56.1195L1078.02 53.7162C1077.7 50.9047 1077.07 50.1631 1073.1 47.9046C1069.61 45.9157 1069.92 45.7818 1073.89 47.565C1075.5 48.2889 1076.89 48.814 1076.99 48.7316C1077.3 48.4551 1075.72 43.0368 1075.13 42.3648ZM1137.47 50.4628C1137.47 50.2052 1136.56 49.1034 1135.45 48.0145C1128.61 41.3025 1127.4 40.2737 1127.15 41.0058C1125.35 46.2953 1125.4 50.2731 1127.34 54.6261C1129 58.3492 1130.71 61.2771 1131.22 61.2771C1131.39 61.2771 1131.69 59.4398 1131.86 57.1942C1132.12 53.8863 1132.04 52.8596 1131.42 51.787C1130.99 51.0588 1130.75 50.374 1130.87 50.2653C1131.15 50.0154 1133.13 52.8403 1133.13 53.4917C1133.13 53.7592 1133.31 53.9777 1133.54 53.9777C1134.14 53.9777 1137.47 51.0051 1137.47 50.4628ZM1140.86 51.4015C1141.06 51.4015 1141.58 50.1941 1142.03 48.7179C1142.48 47.2245 1142.77 44.987 1142.68 43.6727L1142.53 41.3111L1141.7 43.2433C1140.04 47.1438 1139.5 49.4212 1140.02 50.4354C1140.29 50.9669 1140.67 51.4015 1140.86 51.4015ZM1168.32 47.9347C1168.32 47.5375 1167.97 46.4645 1167.53 45.5499C1167.09 44.6353 1166.59 43.3077 1166.42 42.5992L1166.11 41.3111L1164.76 43.3407C1163.48 45.2875 1163.44 45.4876 1163.92 48.2224C1164.2 49.7909 1164.54 51.1829 1164.69 51.316C1165.13 51.7037 1168.32 48.7282 1168.32 47.9347ZM1103 55.1491C1103.78 48.8802 1103.96 49.3246 1099.81 47.3507C1097.8 46.3906 1095.79 45.3395 1095.35 45.0158C1094.63 44.4816 1094.56 44.625 1094.56 46.5478C1094.56 50.6496 1095.66 52.76 1099.32 55.6454L1102.62 58.2522L1103 55.1491ZM1185.06 62.6451C1189.23 57.4106 1190.84 52.4766 1189.98 47.6753C1189.66 45.9462 1189.27 44.5336 1189.11 44.5361C1188.71 44.5426 1182.74 51.24 1181.24 53.3568C1179.7 55.5334 1179.07 57.3835 1178.69 60.8478L1178.38 63.6387L1179.62 62.3506C1180.3 61.6421 1181.62 59.7099 1182.54 58.0568C1183.46 56.4037 1184.22 55.3466 1184.23 55.7073C1184.24 56.7657 1181.12 62.202 1179.43 64.0681C1177.88 65.7753 1177.87 65.8062 1178.2 69.212C1178.38 71.097 1178.82 73.1258 1179.17 73.7205L1179.81 74.8025L1180.07 73.7291C1181.65 67.06 1181.78 66.7801 1185.06 62.6451ZM1203.62 51.1868L1203.02 48.3958C1202.69 46.8608 1202.27 45.452 1202.08 45.2652C1201.9 45.0789 1201.35 46.2382 1200.87 47.8415C1200.39 49.4452 1199.49 51.8016 1198.86 53.0777C1198.23 54.3539 1197.8 55.4651 1197.89 55.5475C1197.98 55.63 1199.31 54.6823 1200.84 53.4419L1203.62 51.1868ZM1091.46 66.7594C1091.88 66.3816 1089.48 61.5107 1087.8 59.3342C1086.95 58.2286 1084.54 54.6918 1082.45 51.4745C1080.36 48.2571 1078.65 45.8681 1078.65 46.1652C1078.65 47.1824 1079.96 49.498 1082.14 52.3302C1083.74 54.4131 1084.61 56.1697 1085.42 58.971C1086.41 62.3673 1086.79 63.008 1088.86 64.8861C1090.15 66.0441 1091.31 66.8874 1091.46 66.7594ZM1161 53.5917C1162.07 53.1022 1163.05 52.5543 1163.17 52.3736C1163.29 52.1932 1163.24 50.7896 1163.05 49.2546L1162.7 46.4636L1161.2 49.3005C1160.38 50.8604 1159.55 52.6647 1159.37 53.3092L1159.04 54.4814L1161 53.5917ZM1169.54 50.6312C1169.4 50.3078 1169.29 49.8656 1169.29 49.6487C1169.29 49.4319 1169.13 49.2833 1168.93 49.3185C1168.27 49.4362 1164.77 52.6763 1165.05 52.9193C1165.57 53.3899 1169.8 51.2379 1169.54 50.6312ZM1147.45 58.9963C1146.52 57.919 1145.44 56.2045 1145.03 55.186C1144.63 54.1671 1144.12 52.4766 1143.9 51.4294L1143.49 49.5251L1142.45 52.5028C1140.69 57.4935 1140.66 58.025 1141.9 59.959C1143.25 62.0668 1143.72 62.1552 1143.78 60.311C1143.83 58.8589 1144.8 62.8551 1145.46 67.2026L1145.8 69.4778L1147.18 66.5778C1149.37 61.947 1149.39 61.2694 1147.45 58.9963ZM1099.98 58.8597C1098.99 58.2174 1096.97 56.615 1095.5 55.2981C1094.03 53.9816 1091.82 52.2731 1090.59 51.5019L1088.35 50.0992L1088.05 51.9313C1087.61 54.5295 1088.33 56.7966 1090.56 59.8512C1091.67 61.3853 1093.38 64.8247 1094.61 68.0081C1095.77 71.0356 1098.14 76.025 1099.86 79.0955C1102.75 84.2433 1103.14 84.725 1104.81 85.2768C1105.81 85.6061 1106.73 85.7916 1106.84 85.6886C1106.96 85.5859 1106.74 83.6743 1106.36 81.4403C1105.98 79.2067 1105.66 76.3109 1105.66 75.0061L1105.65 72.6333L1101.67 70.471C1098.18 68.5753 1097.5 67.9939 1096.14 65.759C1094.48 63.0372 1093.95 61.0221 1095.47 63.2544C1096.66 64.9835 1098.98 66.236 1102.52 67.0579C1104.09 67.4207 1105.51 67.7178 1105.69 67.7178C1105.86 67.7178 1105.05 65.9874 1103.89 63.8727C1102.37 61.0947 1101.28 59.7039 1099.98 58.8597ZM1110.45 56.612C1111.18 54.2152 1110.86 53.5157 1108.33 51.8983C1106.15 50.4998 1105.66 50.3117 1105.64 50.8647C1105.63 51.0421 1105.43 51.918 1105.2 52.8115C1104.81 54.3049 1104.92 54.6003 1106.58 56.4703C1109.01 59.2058 1109.24 59.6648 1110.23 63.6387C1111.37 68.1833 1111.77 66.9823 1110.72 62.1818C1110.06 59.153 1110.01 58.0796 1110.45 56.612ZM1083.49 64.2828C1084.14 62.3828 1083.97 60.0229 1083.01 57.487C1082.5 56.1259 1081.54 54.1636 1080.88 53.1258L1079.67 51.2396L1079.91 54.648C1080.05 56.6648 1080.62 59.1964 1081.29 60.8478C1081.92 62.3828 1082.59 64.0252 1082.78 64.4975C1083.1 65.3004 1083.14 65.2862 1083.49 64.2828ZM1138.43 58.7009C1138.95 56.9297 1139.38 54.6707 1139.39 53.681C1139.39 52.6913 1139.22 51.7823 1139 51.6612C1138.78 51.5402 1137.44 52.4813 1136.03 53.7523L1133.47 56.0636L1132.99 62.6632L1135.78 61.0655L1134.44 62.5052C1133.02 64.0316 1133 64.6027 1134.19 68.787L1134.67 70.4997L1135.78 69.2606C1137 67.8977 1137.46 66.3859 1137.48 63.6924C1137.48 62.7181 1137.91 60.4721 1138.43 58.7009ZM1170.42 57.913C1171.9 54.9812 1171.99 54.1057 1170.95 52.7853C1170.05 51.6432 1170.07 51.6432 1167.48 52.8017C1165.11 53.8592 1165.12 54.028 1167.58 57.9666L1169.14 60.4523L1170.42 57.913ZM1204.45 60.2037C1204.42 56.9125 1203.78 51.5917 1203.57 52.9043C1203.53 53.1834 1203.38 53.1795 1203.15 52.8931C1202.61 52.219 1191.82 61.9624 1190.07 64.7122C1188.7 66.8629 1186.42 72.3864 1186.78 72.7033C1186.86 72.7759 1188.44 71.255 1190.28 69.3241C1193.92 65.5112 1199.01 58.9637 1200.88 55.6742C1202.2 53.3603 1203.36 52.3671 1202.8 54.0314C1202.24 55.7017 1197.76 62.9779 1195.22 66.3417C1193.92 68.0643 1191.51 70.8394 1189.87 72.5084C1184.83 77.6309 1182.91 80.0491 1182.06 82.3411C1180.97 85.2489 1181.69 85.9243 1183.53 83.7319C1184.28 82.8353 1187.21 80.0732 1190.04 77.5935C1195.81 72.541 1197.59 70.0751 1199.19 64.9269C1199.77 63.0376 1200.57 61.0088 1200.95 60.4184C1201.34 59.828 1201.53 59.7009 1201.38 60.1363C1201.23 60.5712 1200.98 61.4407 1200.83 62.0685C1200.56 63.1634 1200.59 63.1531 1201.6 61.8139C1203.11 59.8035 1203.29 60.0964 1201.87 62.2574C1200.59 64.196 1199.05 67.7178 1199.47 67.7178C1199.61 67.7178 1200.8 66.8964 1202.1 65.893L1204.48 64.0681L1204.45 60.2037ZM1157.16 58.6489C1158.31 58.3046 1163.95 54.1654 1163.97 53.6557C1163.99 52.9451 1163.67 53.0189 1161 54.3423C1159.59 55.0413 1158.34 56.0933 1157.68 57.1375C1157.1 58.0581 1156.87 58.7382 1157.16 58.6489ZM1078.62 61.0483C1080.31 61.9792 1078.02 58.6609 1075.61 56.6755C1074.42 55.7042 1072.83 54.633 1072.07 54.295L1070.69 53.6806L1069.15 56.5128C1067.08 60.2952 1067.41 60.6086 1073.58 60.7009C1076.07 60.7383 1078.34 60.8946 1078.62 61.0483ZM1123.22 62.2836C1122.31 58.7279 1121.89 57.7477 1120.47 55.8687C1119.61 54.7394 1118.63 53.7386 1118.3 53.6441C1117.52 53.4273 1116.17 56.2423 1116.54 57.2814C1117.25 59.2273 1118.03 60.0723 1120.68 61.7288L1123.53 63.5043L1123.22 62.2836ZM1131.97 69.8325C1131.49 65.9015 1130.86 64.0793 1129.18 61.6335C1128.36 60.4523 1127.08 58.1019 1126.33 56.4097L1124.97 53.3337L1124.86 55.6952C1124.7 59.3965 1124.91 60.7267 1126.2 64.3682C1127.16 67.075 1127.9 68.2584 1129.86 70.1794L1132.31 72.5912L1131.97 69.8325ZM1192.66 59.5635C1194.3 58.0263 1196.13 56.1409 1196.72 55.3732C1197.31 54.6055 1197.7 53.9777 1197.57 53.9777C1197.44 53.9777 1194.86 56.1517 1191.83 58.8082C1187.92 62.2415 1185.9 64.3841 1184.85 66.215C1183.44 68.6775 1181.82 73.8738 1181.82 75.9533C1181.82 77.5433 1184.07 74.2688 1185.65 70.3752C1187.76 65.1725 1189.45 62.5704 1192.66 59.5635ZM1166.94 63.345C1167.38 61.5288 1167.29 61.0504 1165.98 58.4179C1165.19 56.8146 1164.36 55.4488 1164.14 55.3831C1163.58 55.2186 1154.82 62.7194 1154.82 63.3575C1154.82 64.1269 1157.09 67.209 1159.57 69.8188L1161.77 72.134L1163.16 70.6775C1164.45 69.3267 1164.53 69.036 1164.27 66.6813C1164.11 65.2845 1163.44 63.0625 1162.77 61.7434C1161.78 59.761 1161.73 59.5313 1162.52 60.4184C1163.62 61.6602 1164.2 62.8714 1164.98 65.5709C1165.52 67.4078 1165.57 67.4499 1166 66.4297C1166.25 65.8393 1166.67 64.4511 1166.94 63.345ZM1174.72 64.7899C1176.12 62.7263 1176.07 59.4145 1174.6 57.0907C1173.38 55.1598 1172.66 54.7665 1172.66 56.0293C1172.66 56.4492 1171.89 58.2213 1170.96 59.9667C1168.78 64.005 1168.45 66.1038 1169.52 68.9712L1170.34 71.1846L1172.05 68.6998C1172.99 67.3331 1174.19 65.5739 1174.72 64.7899ZM1108.98 62.8006C1108.7 61.3922 1108.16 59.749 1107.8 59.1483C1107.44 58.548 1106.6 57.4772 1105.93 56.7687L1104.72 55.4805L1104.7 57.0233C1104.67 59.7778 1107.67 66.1862 1109.7 67.6809C1110.33 68.1532 1110.37 68.0424 1109.96 66.7904C1109.71 66.0042 1109.27 64.2085 1108.98 62.8006ZM1118.57 75.5063C1118.66 74.7806 1118.18 72.3929 1117.52 70.2009C1116.86 68.0085 1115.24 63.7997 1113.93 60.8478C1111.55 55.5145 1111.54 55.4909 1111.18 57.1264C1110.96 58.1569 1111.11 60.0023 1111.58 62.0642C1111.99 63.8749 1112.47 66.4189 1112.63 67.7178C1113.14 71.763 1113.86 73.24 1116.22 75.0949L1118.42 76.8266L1118.57 75.5063ZM1143.76 70.203C1144.16 68.9007 1144.17 67.7663 1143.8 66.1489C1143.52 64.9135 1142.67 62.7989 1141.9 61.4502C1140.63 59.211 1140.48 59.0878 1140.17 60.0302C1139.99 60.5979 1139.65 62.7048 1139.43 64.7122C1138.98 68.7041 1139.4 70.0729 1141.43 71.3413C1142.97 72.3036 1143.15 72.2142 1143.76 70.203ZM1073.48 61.7284C1070.34 61.5245 1068.78 61.2278 1068.14 60.7147C1066.97 59.7709 1067.01 59.758 1065.77 61.4708L1064.7 62.9414L1069.38 66.4529C1075.03 70.6891 1076.98 72.5354 1078.19 74.8025C1078.7 75.7472 1079.11 76.3921 1079.12 76.2358C1079.13 76.0795 1079.46 74.4371 1079.85 72.5861C1081.01 67.1789 1080.57 63.0221 1078.76 62.3338C1078.3 62.1595 1075.93 61.8869 1073.48 61.7284ZM1148.82 72.0116C1150.87 65.9934 1151.17 64.6284 1150.77 63.2252C1150.42 61.9787 1149.52 61.7503 1149.52 62.9075C1149.52 63.7267 1146.29 72.4259 1144.99 75.1108C1144.08 76.9941 1144.04 80.2084 1144.91 82.3167L1145.53 83.8195L1146.33 80.3844C1146.78 78.4952 1147.9 74.7274 1148.82 72.0116ZM1078.65 78.7077C1078.65 78.071 1076.53 74.3079 1075.48 73.085C1074.79 72.2799 1071.99 69.7732 1069.25 67.5147L1064.27 63.4077L1062.25 65.6984L1067.19 70.2456C1069.91 72.7462 1072.68 75.201 1073.34 75.6999C1074.77 76.7738 1078.65 78.9727 1078.65 78.7077ZM1094.52 73.6613C1093.98 72.7149 1092.05 70.6406 1090.24 69.0506C1088.42 67.461 1086.51 65.5344 1085.99 64.7693L1085.04 63.3785L1083.46 68.4447C1082.5 71.5453 1081.8 74.9451 1081.65 77.2053L1081.42 80.8997L1083.29 82.1312C1084.31 82.8087 1086.35 84.2527 1087.81 85.3403C1089.27 86.4279 1092.41 88.5327 1094.8 90.0175C1097.19 91.5019 1100.19 93.6131 1101.49 94.7089L1103.83 96.7008L1103.51 94.9833C1103.34 94.0387 1102.83 92.3289 1102.38 91.1837C1101.39 88.6629 1099.94 87.8848 1094.32 86.8797C1090.83 86.2562 1090.29 86.0183 1088.64 84.4043C1087.64 83.4219 1086.92 82.5348 1087.03 82.433C1087.15 82.3312 1087.97 82.9483 1088.85 83.8044C1090.3 85.2012 1090.88 85.4258 1094.56 85.993C1096.81 86.3404 1099.04 86.7324 1099.51 86.8638C1100.32 87.0909 1100.32 87.0273 1099.54 85.5718C1098.88 84.3291 1097.91 83.6657 1094.4 82.0513C1089.3 79.7077 1086.53 77.3973 1084.72 73.9846C1083.05 70.842 1083.3 70.4628 1085.06 73.4624C1085.79 74.7042 1087.3 76.508 1088.42 77.4703C1090.56 79.308 1097.93 83.0251 1097.93 82.2656C1097.93 81.4798 1095.53 75.432 1094.52 73.6613ZM1200.22 71.5891C1203.55 69.2764 1203.89 68.8947 1204.14 67.2141C1204.3 66.2012 1204.37 65.3258 1204.3 65.2682C1204.24 65.2111 1202.98 66.27 1201.5 67.6216C1198.97 69.9291 1196 73.6187 1196.39 73.9665C1196.49 74.0528 1198.21 72.9828 1200.22 71.5891ZM1104.25 68.5542C1102.52 68.0785 1100.15 67.2129 1098.98 66.6302C1096.31 65.3017 1096.03 65.3013 1097.43 66.6268C1098.05 67.2077 1100.2 68.458 1102.22 69.4053C1104.24 70.352 1107.07 71.7389 1108.52 72.4869L1111.15 73.8472L1110.26 72.6071C1108.55 70.2121 1107.36 69.4113 1104.25 68.5542ZM1157.57 71.5998C1157.72 71.1017 1157.1 69.8729 1155.96 68.4108C1154.94 67.1029 1153.95 66.0256 1153.76 66.0166C1153.57 66.0076 1153.19 66.8217 1152.91 67.8252C1152.62 68.8286 1151.84 70.9046 1151.15 72.4384C1150.47 73.9721 1149.74 76.1954 1149.52 77.3792C1149.13 79.5386 1149.35 81.8873 1149.96 81.8873C1150.4 81.8873 1157.28 72.5994 1157.57 71.5998ZM1063.93 69.331C1063.75 68.7981 1063.29 67.9273 1062.92 67.3958C1062.54 66.8642 1062.07 66.4297 1061.88 66.4297C1061.5 66.4297 1060.16 68.1669 1060.41 68.3262C1060.5 68.3786 1061.4 68.8441 1062.41 69.361L1064.25 70.3005L1063.93 69.331ZM1174.26 84.4227C1179.46 81.9968 1180.16 80.4003 1178.1 75.6613C1177.69 74.7167 1177.22 72.3396 1177.06 70.3787L1176.76 66.8135L1175.45 68.6221C1174.73 69.6174 1173.21 72.091 1172.07 74.1198C1170.16 77.5377 1170.01 78.0598 1170.01 81.2432C1170.01 86.4095 1170.01 86.4078 1174.26 84.4227ZM1126.06 72.3942L1125.23 70.0562C1124.77 68.7702 1124.32 67.7178 1124.23 67.7178C1123.96 67.7178 1122.07 70.696 1121.3 72.3293C1120.56 73.9069 1120.41 75.8571 1120.9 77.4861C1121.31 78.8456 1121.91 78.6867 1122.29 77.116C1122.47 76.3809 1123.39 75.0177 1124.34 74.0868L1126.06 72.3942ZM1074.44 77.7283C1071.86 75.8807 1069.31 73.7184 1068.77 72.9236C1068.24 72.1288 1066.99 70.6805 1065.99 69.7054L1064.18 67.9325L1064.9 69.5268C1066.31 72.6316 1069.31 76.1585 1074.19 80.472L1079.13 84.8392V82.9633C1079.13 81.1075 1079.08 81.0526 1074.44 77.7283ZM1168.47 75.3393C1169.26 72.8536 1169.27 72.4895 1168.56 70.4014C1168.15 69.1618 1167.71 68.1472 1167.59 68.1472C1167.48 68.1472 1167.02 68.7749 1166.58 69.5427C1166.13 70.3104 1165.25 71.553 1164.6 72.3049L1163.44 73.6716L1165.28 75.8227C1166.29 77.0061 1167.23 77.9851 1167.37 77.9984C1167.5 78.0117 1168 76.8155 1168.47 75.3393ZM1066.39 74.2418C1065.05 72.4268 1063.21 70.5062 1062.3 69.9738C1060.21 68.735 1059.57 68.7556 1058.58 70.0948C1057.8 71.1649 1057.81 71.2078 1059.66 72.6101C1063.76 75.7339 1073.32 81.8873 1074.07 81.8873C1074.68 81.8873 1073.67 80.9396 1071.29 79.2651C1069.94 78.3157 1067.74 76.0589 1066.39 74.2418ZM1142.01 75.1237C1142.67 73.4474 1142.66 73.3903 1141.46 72.8218C1140.79 72.5011 1139.76 71.6093 1139.17 70.8394L1138.11 69.4396L1136.76 71.8038C1135.53 73.9713 1135.44 74.4723 1135.63 77.8245C1135.84 81.2793 1136.02 81.7782 1138.87 86.8844C1140.75 90.2477 1142.06 92.1357 1142.34 91.8853C1143.37 90.9708 1143.37 87.2528 1142.34 83.9929C1141.16 80.2239 1141.05 77.5278 1142.01 75.1237ZM1131 76.3015C1131.34 75.4771 1131.62 74.6093 1131.64 74.3732C1131.66 74.137 1130.92 73.0953 1129.99 72.0584C1129.06 71.0214 1128.31 70.3581 1128.31 70.5843C1128.31 71.6694 1129.42 76.1851 1129.88 76.9434C1130.36 77.736 1130.44 77.6875 1131 76.3015ZM1202.79 74.8794C1202.92 74.3646 1203.23 73.1224 1203.46 72.1189C1203.97 70.0081 1203.66 69.8574 1202.04 71.41C1201.39 72.0236 1199.52 73.4813 1197.88 74.6488C1195.13 76.6016 1193.87 78.1577 1194.54 78.7575C1194.69 78.8898 1195.35 78.6815 1196.02 78.2947C1196.68 77.9082 1198.42 77.192 1199.89 76.7034C1201.79 76.0701 1202.62 75.5458 1202.79 74.8794ZM1058.83 73.7231C1059.35 73.7278 1059.3 73.5239 1058.64 72.8703C1057.62 71.8669 1056.68 71.763 1056.31 72.6131C1056.06 73.1902 1057.24 73.7093 1058.83 73.7231ZM1156.07 76.3818C1158.54 75.1456 1159.77 73.8948 1159.43 72.9528C1158.88 71.3937 1158.66 71.5564 1156.1 75.3947C1155.17 76.7996 1155.17 76.8305 1156.07 76.3818ZM1128.61 81.9946C1128.48 81.5816 1128.01 79.6974 1127.56 77.8082C1126.42 73.0223 1126.29 72.9094 1124.78 75.3775C1122.96 78.3586 1123.08 79.366 1125.5 81.2097C1127.69 82.8804 1129 83.2106 1128.61 81.9946ZM1112.04 76.6313C1111.63 76.2199 1110.36 75.3989 1109.23 74.8064C1108.09 74.2139 1107.01 73.7291 1106.82 73.7291C1106.42 73.7291 1106.8 76.6849 1107.93 82.4167C1108.75 86.5572 1108.78 86.6014 1110.46 87.1995C1112.96 88.0909 1117.22 89.1738 1117.22 88.92C1117.22 88.0961 1112.64 77.2311 1112.04 76.6313ZM1064.42 78.1573C1063.4 77.3685 1061.46 76.2568 1060.1 75.6871C1055 73.538 1053.72 73.8583 1054.67 77.0413C1055.2 78.8069 1055.26 78.8447 1057.65 79.0641C1058.99 79.1869 1061.48 79.3557 1063.19 79.4394L1066.29 79.5918L1064.42 78.1573ZM1167.39 85.2252C1166.64 81.3939 1165.55 79.0993 1163.62 77.2715C1161.82 75.5655 1161.27 75.5441 1158.87 77.089C1154.28 80.053 1151.17 84.1389 1148.34 90.9085C1147.01 94.0863 1146.85 94.778 1147.51 94.5329C1147.95 94.3658 1149.4 93.8506 1150.73 93.3877C1152.05 92.9244 1153.45 92.3212 1153.83 92.0468C1154.38 91.6522 1154.44 91.6702 1154.13 92.1352C1153.91 92.4577 1152.17 93.3581 1150.25 94.1361C1146.22 95.7729 1145.62 96.5746 1147.26 98.1663C1147.89 98.7773 1148.89 100.002 1149.48 100.887C1150.69 102.685 1151.29 102.817 1153.52 101.787C1157.71 99.8567 1159.46 97.8095 1158.89 95.4968C1158.71 94.751 1157.82 92.9133 1156.93 91.4134C1155.59 89.1592 1155.31 88.2266 1155.31 86.0381C1155.32 84.5816 1155.5 83.1402 1155.72 82.8349C1155.94 82.5227 1156.02 83.2759 1155.91 84.5524C1155.8 85.8023 1155.91 87.3069 1156.16 87.896C1156.6 88.9209 1156.68 88.8556 1158.09 86.3932C1158.9 84.9775 1160.39 83.1432 1161.41 82.3167L1163.26 80.8138L1161.72 82.3167C1160.88 83.1432 1159.49 85.1454 1158.64 86.7663L1157.09 89.7127L1158.61 92.3482C1159.45 93.7974 1160.13 95.438 1160.13 95.9936C1160.13 96.8 1160.68 96.3667 1162.84 93.8467C1164.33 92.1103 1166.1 90.1627 1166.77 89.519C1167.99 88.3593 1167.99 88.3193 1167.39 85.2252ZM1052.93 78.6446C1054.47 78.989 1054.52 78.9447 1054.2 77.4861C1053.89 76.052 1053.58 76.0271 1052.51 77.3487C1051.7 78.341 1051.71 78.3724 1052.93 78.6446ZM1200.45 81.8254L1201.46 79.0654C1202.01 77.5476 1202.43 76.3148 1202.39 76.3264C1202.35 76.338 1200.87 77.0078 1199.11 77.8146C1196.91 78.8189 1195.33 79.9297 1194.1 81.336C1193.11 82.4656 1190.87 84.6224 1189.11 86.1291L1185.92 88.8677L1188.09 87.8024C1189.28 87.2167 1192.55 85.6323 1195.36 84.2815L1200.45 81.8254ZM1118.66 82.0723C1118.66 79.4626 1118.51 78.9078 1117.58 78.1616C1116.4 77.2143 1115.29 76.5827 1115.29 76.8567C1115.29 76.952 1115.69 78.0744 1116.18 79.3509C1116.67 80.6279 1117.45 83.0732 1117.92 84.7856C1118.39 86.4979 1118.95 87.8986 1119.17 87.8986C1119.38 87.8986 1119.36 87.2717 1119.11 86.5061C1118.87 85.7401 1118.66 83.7448 1118.66 82.0723ZM1134.07 83.2261C1133.55 81.7391 1133.13 80.0568 1133.13 79.4875C1133.13 78.0504 1132.18 78.1813 1132.08 79.633C1131.86 82.749 1132.23 84.2609 1133.45 85.2368C1134.13 85.7804 1134.76 86.1587 1134.85 86.0771C1134.94 85.996 1134.59 84.713 1134.07 83.2261ZM1187.39 85.3223C1189.41 83.5511 1191.49 81.3587 1192.02 80.4502C1192.55 79.5416 1192.89 78.7185 1192.78 78.621C1192.41 78.2869 1188.33 81.3437 1186.35 83.4489C1183.81 86.1377 1181.25 89.7548 1180.22 92.085C1179.78 93.0884 1179.5 93.9098 1179.6 93.9098C1179.7 93.9098 1180.67 92.7024 1181.75 91.2262C1182.83 89.7505 1185.37 87.0935 1187.39 85.3223ZM1056.36 84.9762L1055.32 82.266C1054.37 79.8147 1054.12 79.5274 1052.68 79.2655C1051.26 79.0066 1050.99 79.1199 1050.15 80.3243C1048.4 82.8559 1049.52 84.0823 1054.13 84.6842L1056.36 84.9762ZM1080.79 91.2649C1078.42 87.1587 1071.41 82.0715 1066.44 80.8516C1063.65 80.1676 1055.51 79.6549 1055.51 80.1633C1055.51 81.0002 1057.06 84.2918 1057.81 85.0269C1058.27 85.4782 1060.59 86.7178 1062.98 87.7813C1068.26 90.1335 1072.61 92.8252 1076.53 96.1546C1079.17 98.39 1079.79 98.7038 1082.32 99.0731C1086.61 99.6991 1086.6 99.7095 1084.35 96.8472C1082.35 94.3075 1082.04 94.1147 1076.72 91.9871C1063.34 86.6418 1060.76 85.0505 1072.86 89.6161C1076.44 90.966 1079.87 92.2121 1080.49 92.3847L1081.61 92.6994L1080.79 91.2649ZM1127.78 91.3963C1127.54 90.063 1127.13 87.9269 1126.88 86.6495C1126.47 84.6164 1126.07 84.0393 1123.69 82.0161L1120.97 79.7052L1121.16 82.8358C1121.39 86.6594 1122.67 89.2532 1126.38 93.4367C1128.85 96.2225 1130.06 96.8859 1128.78 94.748C1128.47 94.2379 1128.02 92.7299 1127.78 91.3963ZM1147.14 86.6104C1147.36 86.6104 1147.69 85.9445 1147.86 85.1308C1148.03 84.3167 1148.06 83.3991 1147.92 83.0912C1147.78 82.7834 1147.65 82.7246 1147.62 82.9607C1147.59 83.1969 1147.38 84.1149 1147.15 85.0003C1146.92 85.8861 1146.91 86.6104 1147.14 86.6104ZM1102.71 99.1195C1101.51 97.1808 1098.86 94.9957 1092.63 90.8093C1090.64 89.4731 1087.44 87.1935 1085.52 85.7435L1082.02 83.1071V84.4086C1082.02 85.4807 1082.43 85.9552 1084.31 87.0978C1085.57 87.8608 1088.66 89.9694 1091.18 91.7836C1093.7 93.5981 1096.74 95.6196 1097.93 96.2757C1099.13 96.9322 1100.95 98.2624 1101.98 99.232L1103.86 100.995L1102.71 99.1195ZM1193.53 93.3611C1195.4 90.7359 1198.22 86.2914 1198.22 85.9728C1198.22 85.4674 1197.18 85.8968 1191.48 88.768C1184.83 92.1146 1184.18 92.5569 1182.84 94.5681L1181.92 95.964L1183.78 95.7412C1184.81 95.6183 1186.64 95.7399 1187.85 96.0112C1190.65 96.6407 1191.47 96.2602 1193.53 93.3611ZM1107.09 90.3211C1107.09 87.1712 1107.04 86.999 1105.86 86.5997C1105.18 86.3695 1104.42 86.181 1104.18 86.181C1103.8 86.181 1106.31 92.9257 1106.88 93.4337C1107 93.538 1107.09 92.1374 1107.09 90.3211ZM1175.22 95.1142C1176.46 93.0966 1177.78 90.2614 1178.16 88.8136C1178.79 86.3983 1178.78 86.1841 1178.04 86.215C1176.63 86.2751 1174.39 87.1214 1172.72 88.2335L1171.09 89.3172L1171.36 92.365C1171.51 94.0412 1171.94 96.171 1172.3 97.0975L1172.98 98.7824L1175.22 95.1142ZM1139.07 103.211C1141.25 97.0516 1139.18 91.8557 1132.94 87.8247C1130.01 85.9342 1129.56 86.1355 1129.92 89.1833C1130.08 90.5981 1130.74 92.8686 1131.38 94.2284C1132.01 95.5883 1132.79 97.7609 1133.09 99.0568C1133.6 101.202 1135.5 103.786 1136.57 103.786C1136.9 103.786 1137.94 101.099 1137.95 100.244C1137.95 100.068 1137.14 99.1105 1136.14 98.116L1134.33 96.3088L1135.9 97.286C1136.76 97.8236 1137.69 98.6236 1137.95 99.0641C1138.55 100.068 1138.57 102.293 1137.98 104.111C1137.23 106.462 1138.2 105.651 1139.07 103.211ZM1119.49 92.2271C1118.12 90.5676 1117.44 90.1858 1114.07 89.1858C1111.96 88.5568 1109.89 87.9084 1109.49 87.7448C1108.84 87.4859 1108.77 88.0145 1108.92 91.8596C1109.26 100.665 1112.28 105.56 1124.1 116.42L1126.93 119.028L1126.66 115.593C1126.45 112.875 1126.07 111.576 1124.82 109.367C1123.28 106.646 1123.13 106.528 1118.95 104.644C1116.1 103.362 1114.24 102.208 1113.41 101.214L1112.16 99.7155L1114.27 101.307C1115.44 102.182 1117.71 103.349 1119.33 103.901L1122.28 104.904L1122.42 101.505C1122.59 97.52 1121.8 95.0292 1119.49 92.2271ZM1093.77 96.4732C1094.41 96.4582 1091.28 93.9107 1086.89 90.8857C1085.2 89.7153 1083.63 88.7573 1083.41 88.7573C1082.64 88.7573 1084.48 92.2889 1086.03 93.8107C1086.91 94.6664 1092.26 96.5084 1093.77 96.4732ZM1065.39 92.6754L1064.18 92.0197C1062.78 91.258 1061.77 91.1502 1061.77 91.763C1061.77 91.9991 1062.04 92.1949 1062.38 92.1983C1062.71 92.2014 1063.52 92.31 1064.18 92.4397L1065.39 92.6754ZM1162.99 98.2521C1163.28 97.7657 1164.62 96.1898 1165.97 94.7497C1167.32 93.3096 1168.31 92.0348 1168.18 91.9167C1167.91 91.6779 1163.34 96.435 1162.51 97.8228C1162.22 98.3088 1162.09 98.803 1162.22 98.9211C1162.35 99.0392 1162.7 98.7382 1162.99 98.2521ZM1071.75 98.0203C1071.66 97.7669 1070.38 96.727 1068.91 95.7098C1067.44 94.6922 1065.22 93.5878 1063.98 93.2555C1061.93 92.7037 1061.71 92.7149 1061.44 93.3877C1061.28 93.7931 1060.64 95.2688 1060.01 96.6673C1059.39 98.0662 1058.88 99.2736 1058.88 99.3509C1058.88 99.4286 1060.43 99.4918 1062.32 99.4918C1066.57 99.4918 1071.98 98.6472 1071.75 98.0203ZM1131.32 117.204C1131.63 106.314 1130.77 101.799 1127.7 98.3054C1126.57 97.0276 1125.26 95.5638 1124.77 95.0533L1123.89 94.1245L1124.19 95.198C1124.35 95.7884 1124.7 98.2036 1124.97 100.565C1125.34 103.864 1125.79 105.47 1126.9 107.497C1128.38 110.221 1129.45 114.04 1130.03 118.706C1130.21 120.183 1130.55 121.39 1130.78 121.39C1131.01 121.39 1131.25 119.506 1131.32 117.204ZM1165.27 109.722C1169.5 105.768 1170.34 104.309 1169.65 102.108C1169.39 101.26 1168.92 99.1474 1168.62 97.4144L1168.07 94.2637L1166.5 96.2117C1165.63 97.283 1163.85 99.2805 1162.53 100.651C1159.58 103.709 1155.47 110.867 1154.75 114.195C1154.3 116.246 1154.35 117.186 1155.05 119.777C1155.52 121.491 1156 123.047 1156.13 123.236C1156.65 124.019 1157.79 122.368 1158.92 119.173C1160.6 114.424 1161.22 113.513 1165.27 109.722ZM1094.96 97.8086C1093.81 97.563 1092 97.0954 1090.94 96.7695C1089.88 96.4436 1088.58 96.0164 1088.05 95.8201C1087.34 95.5574 1087.52 95.9094 1088.73 97.1555C1091.49 100 1093.2 100.853 1096.82 101.202C1098.63 101.375 1100.21 101.432 1100.34 101.329C1100.92 100.872 1096.86 98.2156 1094.96 97.8086ZM1089.56 113.239C1088.54 112.229 1087.16 110.356 1086.5 109.076C1085.64 107.406 1083.73 105.332 1079.72 101.725C1074.32 96.87 1074.2 96.7948 1076.31 99.4918C1077.52 101.027 1079.46 103.902 1080.62 105.881C1083.79 111.248 1086.45 113.704 1090.22 114.743C1091.32 115.046 1091.26 114.913 1089.56 113.239ZM1186.34 98.5716C1188.45 97.6553 1188.56 97.5407 1187.53 97.2835C1185.6 96.8008 1182.53 96.8902 1181.73 97.4522C1181.32 97.7476 1179.64 99.9211 1177.99 102.283L1175.01 106.576L1177.57 104.395C1181.03 101.452 1183.55 99.7747 1186.34 98.5716ZM1077.38 105.385C1076.68 104.151 1075.48 102.32 1074.7 101.317C1073.17 99.3213 1072.25 99.1328 1068.28 99.9993C1067.22 100.231 1064.64 100.325 1062.55 100.208L1058.75 99.9946L1061.26 102.251C1063.3 104.097 1063.7 104.698 1063.46 105.555C1063.21 106.449 1063.4 106.678 1064.76 107.117C1065.64 107.4 1067.66 108.597 1069.25 109.777C1070.95 111.039 1072.64 111.933 1073.34 111.948C1074.01 111.962 1076.28 112.248 1078.39 112.583C1080.5 112.918 1082.28 113.146 1082.34 113.09C1082.41 113.034 1081.8 112.094 1081 111C1079.62 109.109 1079.38 108.978 1076.03 108.315C1072.46 107.607 1069.64 106.264 1066.59 103.815C1065.07 102.588 1065.18 102.621 1067.8 104.155C1070.58 105.785 1073.75 106.892 1077.08 107.393L1078.65 107.629L1077.38 105.385ZM1149.52 112.709C1149.52 111.698 1149.08 109.273 1148.56 107.321C1147.58 103.67 1145.53 99.4888 1145.07 100.177C1144.13 101.568 1143.61 106.616 1143.63 114.028C1143.65 121.612 1143.55 122.641 1142.49 125.804C1141.85 127.71 1141.32 130.184 1141.32 131.302C1141.32 132.419 1140.66 136.293 1139.85 139.911C1138.58 145.588 1138.38 147.385 1138.4 153.036C1138.43 158.811 1138.66 160.66 1140.37 168.718C1141.44 173.742 1142.47 178.626 1142.67 179.571C1143.01 181.206 1143.08 181.064 1144.16 176.605C1144.78 174.029 1146.24 169.221 1147.41 165.919C1150.78 156.428 1151.85 150.961 1151.57 144.791C1151.45 141.957 1151.57 137.61 1151.86 135.13C1152.31 131.161 1152.25 129.954 1151.35 125.04C1149.8 116.506 1149.75 116.391 1146.71 113.52L1143.98 110.941L1149.52 114.547L1149.52 112.709ZM1184.12 106.533C1185.5 104.431 1187.09 102.084 1187.65 101.317C1188.21 100.549 1188.59 99.9211 1188.5 99.9211C1188.02 99.9211 1181.78 103.901 1179.79 105.475C1178.54 106.462 1176.42 108.771 1175.08 110.604C1173.74 112.438 1172.01 114.359 1171.23 114.872C1169.82 115.8 1167.04 119.528 1167.47 119.911C1167.59 120.021 1168.72 118.951 1169.97 117.532C1172.48 114.687 1175.03 112.948 1179 111.385C1181.43 110.429 1181.81 110.07 1184.12 106.533ZM1100.34 112.917C1100.34 111.905 1092.17 103.608 1089.8 102.216C1088.79 101.621 1081.06 100.193 1081.06 100.601C1081.06 100.659 1082.47 101.703 1084.19 102.922C1086.72 104.717 1087.47 105.547 1088.16 107.296C1089.64 111.046 1096.09 117.096 1098.61 117.096C1099.35 117.096 1100.34 114.716 1100.34 112.917ZM1113.32 111.381C1111.51 109.249 1109.24 106.184 1108.29 104.571C1107.34 102.959 1106.48 101.639 1106.37 101.639C1106.27 101.639 1106.58 102.846 1107.06 104.322C1107.53 105.798 1108.32 108.262 1108.8 109.797C1109.76 112.88 1110.82 114.115 1114.93 116.952C1117.4 118.658 1117.7 118.766 1117.7 117.952C1117.7 116.7 1117.14 115.851 1113.32 111.381ZM1153.08 108.198C1153.28 107.673 1154.2 106.255 1155.13 105.047C1156.06 103.839 1156.76 102.789 1156.67 102.714C1156.58 102.64 1155.65 103.114 1154.6 103.77C1152.57 105.039 1151.91 106.337 1152.42 108.079C1152.72 109.148 1152.73 109.149 1153.08 108.198ZM1103.44 106.867C1102.39 104.724 1101.89 104.175 1100.65 103.842C1098.59 103.287 1095.52 102.924 1095.52 103.235C1095.52 104.461 1103.71 110.376 1104.47 109.699C1104.6 109.581 1104.14 108.306 1103.44 106.867ZM1134.51 115.379C1136.97 108.849 1137.01 108.653 1135.95 107.456C1135.42 106.854 1134.79 106.362 1134.54 106.362C1134.29 106.362 1134.09 107.977 1134.09 109.951C1134.09 111.926 1133.99 114.486 1133.85 115.641L1133.61 117.74L1134.51 115.379ZM1067.86 110.203C1066.87 109.389 1065.37 108.385 1064.53 107.972C1062.54 106.998 1061.64 107.024 1060.56 108.088C1059.7 108.935 1059.71 109.002 1061.12 110.772C1062.51 112.517 1062.65 112.582 1064.81 112.446C1066.04 112.368 1067.64 112.164 1068.36 111.993L1069.67 111.682L1067.86 110.203ZM1163.05 119.012C1163.31 118.867 1164.39 117.218 1165.45 115.346C1166.51 113.475 1167.3 111.944 1167.21 111.944C1167.03 111.944 1165.48 113.477 1164.52 114.608C1163.7 115.578 1162.44 119.347 1163.05 119.012ZM1105.81 120.531C1106 120.531 1105.93 119.99 1105.41 117.031C1105.21 115.848 1104.61 115.077 1102.98 113.89L1100.83 112.316V118.37L1103.22 119.451C1104.54 120.045 1105.7 120.531 1105.81 120.531ZM1086.36 116.906C1084.43 115.605 1081.55 114.783 1075.74 113.872C1070.69 113.082 1063.7 113.163 1063.7 114.012C1063.71 114.456 1072.17 116.551 1076 117.054C1077.85 117.298 1081.32 117.621 1083.71 117.77L1088.05 118.041L1086.36 116.906ZM1139.13 123.312C1139.57 122.373 1140.05 120.445 1140.2 119.028C1140.35 117.612 1140.26 115.776 1140.02 114.949C1139.6 113.542 1139.46 113.842 1137.81 119.673C1136.84 123.097 1135.68 127.058 1135.24 128.475C1134.59 130.539 1134.51 131.819 1134.81 134.915L1135.2 138.78L1136.09 135.774C1136.58 134.121 1137.28 131.025 1137.65 128.894C1138.03 126.763 1138.69 124.251 1139.13 123.312ZM1176.32 116.693C1177.28 117.009 1179.06 115.896 1179.96 114.413C1180.61 113.34 1179.96 113.507 1177.52 115.044C1175.66 116.216 1175.51 116.427 1176.32 116.693ZM1073.21 119.939C1071.8 118.074 1071.24 117.732 1067.82 116.619C1065.72 115.937 1063.98 115.379 1063.97 115.379C1063.95 115.379 1063.94 116.296 1063.94 117.418C1063.94 118.54 1063.79 120.074 1063.6 120.828L1063.25 122.199L1069.02 122.331C1072.2 122.404 1074.79 122.363 1074.79 122.241C1074.79 122.118 1074.08 121.083 1073.21 119.939ZM1167.51 129.119C1168.85 127.863 1177 117.876 1177 117.49C1177 116.955 1176.51 117.018 1175 117.748C1174.3 118.087 1172.81 119.653 1171.7 121.228C1169.48 124.35 1166.4 130.156 1167.51 129.119ZM1092.57 122.389C1090.86 120.736 1088.98 120.186 1081.9 119.273C1078.36 118.818 1074.88 118.312 1074.15 118.15L1072.83 117.854L1074.65 120.236C1076.34 122.434 1076.78 122.721 1080.41 123.953C1084.57 125.364 1087.84 127.55 1090.27 130.532L1091.61 132.186L1092.6 130.46C1093.24 129.343 1093.61 127.809 1093.65 126.116C1093.71 123.907 1093.54 123.325 1092.57 122.389ZM1122.38 139.746C1118.81 133.643 1115.78 128.877 1109.99 120.209C1108.22 117.565 1107.45 117.298 1108.14 119.565C1109.29 123.327 1124.86 146.723 1126.22 146.723C1126.35 146.723 1124.62 143.584 1122.38 139.746ZM1129.68 131.373C1129.21 128.558 1125.77 122.016 1123.48 119.565C1121.3 117.245 1120.43 117.441 1121.66 119.974C1122.38 121.46 1129.8 133.842 1129.97 133.842C1130.03 133.842 1129.9 132.731 1129.68 131.373ZM1105.96 124.465C1104.33 122.929 1101.95 121.723 1097.01 119.934C1095.3 119.318 1093.8 118.814 1093.66 118.814C1093.12 118.814 1096.44 121.627 1100.03 124.212C1102.12 125.712 1105.32 128.47 1107.15 130.341C1110.26 133.532 1112.88 135.575 1112.88 134.815C1112.88 134.042 1107.36 125.782 1105.96 124.465ZM1157.77 132.31C1159.23 131.507 1163.5 122.836 1163.5 120.679C1163.5 118.803 1162.75 119.66 1160.47 124.147C1158.33 128.331 1156.85 132.815 1157.77 132.31ZM1174.9 124.181L1176.97 122.405C1178.11 121.428 1178.96 120.393 1178.85 120.104C1178.63 119.522 1178.59 119.56 1176.27 122.463L1174.9 124.181ZM1074.69 125.286C1076.74 124.398 1076.85 124.277 1075.98 123.826C1075.45 123.554 1072.32 123.265 1068.95 123.179C1063.53 123.041 1062.84 123.105 1062.55 123.771C1062.38 124.182 1062.3 124.579 1062.38 124.654C1062.47 124.728 1064.77 125.119 1067.49 125.522L1072.45 126.255L1074.69 125.286ZM1125.77 137.83C1126.12 136.904 1122.56 128.271 1120.85 125.894C1119.92 124.598 1119.05 123.537 1118.92 123.537C1118.58 123.537 1119.15 126.007 1120.06 128.475C1121.07 131.194 1125.52 138.495 1125.77 137.83ZM1111.02 143.355C1110.04 141.058 1108.32 138.684 1104.12 133.842C1102.59 132.071 1099.92 129.269 1098.2 127.616L1095.07 124.61L1095.05 126.663C1095.05 127.871 1094.54 129.781 1093.82 131.307L1092.59 133.899L1093.6 135.355C1095.46 138.036 1099.4 140.719 1105.01 143.118C1111.9 146.069 1112.19 146.081 1111.02 143.355ZM1075.15 126.113C1072.93 127.172 1071.78 127.172 1066.59 126.113C1061.53 125.079 1061.94 125.071 1061.59 126.221C1060.9 128.514 1061.19 129.063 1063.34 129.553C1064.47 129.811 1066.21 130.301 1067.21 130.644C1069.63 131.474 1070.36 131.435 1076 130.187C1078.65 129.6 1081.9 129.113 1083.23 129.105L1085.64 129.092L1084.29 128.032C1082.72 126.803 1081.7 126.706 1080.2 127.642C1079.05 128.356 1075.89 128.968 1071.17 129.389C1068.66 129.614 1068.13 129.527 1067.08 128.718L1065.87 127.788L1067.52 128.501C1069.23 129.24 1072.72 129.146 1073.29 128.345C1073.45 128.119 1074.71 127.798 1076.08 127.632C1079.08 127.268 1080.73 126.366 1079.61 125.698C1078.51 125.04 1077.13 125.168 1075.15 126.113ZM1066.59 131.67C1066.59 131.466 1065.47 131.002 1064.1 130.638C1061.15 129.858 1061.29 129.871 1061.29 130.387C1061.29 131.233 1062.43 132.983 1062.98 132.983C1064.02 132.983 1066.59 132.048 1066.59 131.67ZM1090.05 134.664C1089.48 133.817 1088.69 132.701 1088.29 132.183C1087.44 131.081 1084.57 130.753 1079.69 131.203C1077.2 131.432 1076.46 131.683 1075.73 132.556C1075.24 133.145 1074.39 134.141 1073.85 134.769C1073.31 135.396 1072.86 135.988 1072.86 136.082C1072.86 136.178 1076.96 136.243 1081.98 136.229L1091.09 136.204L1090.05 134.664ZM1070.18 135.738C1071.9 135.771 1072.21 135.597 1073.49 133.924C1074.26 132.906 1074.82 132.023 1074.72 131.962C1074.63 131.901 1073.68 131.999 1072.62 132.178C1071.56 132.358 1070.01 132.516 1069.18 132.529C1068.36 132.543 1066.84 132.873 1065.81 133.263L1063.94 133.972L1066.11 134.837C1067.31 135.313 1069.14 135.718 1070.18 135.738ZM1125.13 154.85C1127.33 156.467 1118.33 141.932 1115.1 138.657C1113.72 137.258 1111.91 136.128 1111.91 136.668C1111.91 136.822 1113.23 139.21 1114.83 141.975C1117.42 146.438 1122.75 153.104 1125.13 154.85Z" fill="black"/>
<path d="M625.381 233.215C431.029 230.061 241.915 198.075 65.0001 230.946C148.775 207.51 205.061 194.3 499.552 218.574C794.043 242.848 947.216 202.108 934.104 206.203C920.992 210.297 819.732 236.369 625.381 233.215Z" fill="url(#paint0_linear_1861_355)"/>
<path d="M494.681 181V174.216H500.057C501.337 174.216 502.446 174.045 503.385 173.704C504.409 173.277 505.177 172.467 505.689 171.272C506.286 170.077 506.585 168.285 506.585 165.896V97.416H496.345C493.785 97.416 491.779 97.8 490.329 98.568C488.878 99.2507 487.811 100.275 487.129 101.64C486.446 103.005 485.977 104.627 485.721 106.504L484.825 114.44H476.249L476.889 89.608H556.633L557.273 114.44H548.697L547.801 106.504C547.63 104.627 547.161 103.005 546.393 101.64C545.71 100.275 544.643 99.2507 543.193 98.568C541.742 97.8 539.737 97.416 537.177 97.416H526.937V165.896C526.937 168.285 527.193 170.077 527.705 171.272C528.302 172.467 529.113 173.277 530.137 173.704C531.161 174.045 532.27 174.216 533.465 174.216H538.841V181H494.681ZM565.122 181V174.216H569.602C571.394 174.216 572.759 173.917 573.698 173.32C574.722 172.637 575.234 170.973 575.234 168.328V121.096C575.234 118.28 574.764 116.531 573.826 115.848C572.887 115.08 571.479 114.696 569.602 114.696H565.122V107.912H628.482L628.994 127.752H620.418L619.906 122.504C619.564 119.773 618.839 117.811 617.73 116.616C616.62 115.421 614.956 114.824 612.738 114.824H594.69V139.144H620.034V146.056H594.69V173.96H616.194C618.156 173.96 619.692 173.277 620.802 171.912C621.911 170.461 622.679 168.584 623.106 166.28L624.002 161.032H632.322L631.426 181H565.122ZM642.587 181V174.216H647.067C648.773 174.216 650.139 173.917 651.163 173.32C652.187 172.637 652.699 171.016 652.699 168.456V120.584C652.699 118.024 652.187 116.403 651.163 115.72C650.139 115.037 648.773 114.696 647.067 114.696H642.587V107.912H679.579C686.661 107.912 692.379 108.765 696.731 110.472C701.083 112.093 704.283 114.397 706.331 117.384C708.379 120.371 709.403 123.869 709.403 127.88C709.403 131.379 708.72 134.28 707.355 136.584C706.075 138.888 704.368 140.765 702.235 142.216C700.187 143.667 697.968 144.819 695.579 145.672L707.995 166.408C709.189 168.285 710.299 169.821 711.323 171.016C712.432 172.125 713.541 172.936 714.651 173.448C715.845 173.96 717.04 174.216 718.235 174.216H718.747V181H713.243C708.72 181 704.923 180.701 701.851 180.104C698.864 179.421 696.389 178.312 694.427 176.776C692.464 175.24 690.757 173.192 689.307 170.632L677.787 149.64H672.155V168.456C672.155 171.016 672.667 172.637 673.691 173.32C674.715 173.917 676.08 174.216 677.787 174.216H682.267V181H642.587ZM675.995 142.856C680.347 142.856 683.632 141.704 685.851 139.4C688.069 137.011 689.179 133.384 689.179 128.52C689.179 123.4 688.155 119.859 686.107 117.896C684.059 115.848 681.115 114.824 677.275 114.824H672.155V142.856H675.995ZM722.626 181V174.216H723.65C725.1 174.216 726.338 174.045 727.362 173.704C728.471 173.363 729.452 172.723 730.306 171.784C731.159 170.845 731.927 169.523 732.61 167.816L755.906 107.912H774.338L796.354 166.408C797.548 169.395 798.871 171.443 800.322 172.552C801.858 173.661 803.436 174.216 805.058 174.216H807.234V181H769.09V174.216H772.674C774.21 174.216 775.319 174.003 776.002 173.576C776.77 173.064 777.154 172.296 777.154 171.272C777.154 170.589 777.068 169.907 776.898 169.224C776.727 168.541 776.514 167.816 776.258 167.048L772.546 156.552H746.562L743.362 165.128C743.02 166.237 742.722 167.219 742.466 168.072C742.21 168.925 742.082 169.821 742.082 170.76C742.082 171.613 742.38 172.424 742.978 173.192C743.66 173.875 744.812 174.216 746.434 174.216H750.274V181H722.626ZM748.994 149.64H769.986L764.61 134.408C763.756 132.019 762.903 129.544 762.05 126.984C761.196 124.424 760.386 121.864 759.618 119.304C759.191 121.011 758.679 122.717 758.082 124.424C757.57 126.131 757.015 127.837 756.418 129.544C755.82 131.165 755.223 132.787 754.626 134.408L748.994 149.64ZM813.767 181V174.216H818.375C820.252 174.216 821.617 173.875 822.471 173.192C823.409 172.424 823.879 170.675 823.879 167.944V120.584C823.879 118.024 823.409 116.403 822.471 115.72C821.532 115.037 820.167 114.696 818.375 114.696H813.767V107.912H849.479C856.391 107.912 862.023 108.723 866.375 110.344C870.812 111.965 874.055 114.397 876.103 117.64C878.236 120.883 879.303 124.936 879.303 129.8C879.303 134.152 878.279 138.163 876.231 141.832C874.268 145.416 870.94 148.275 866.247 150.408C861.553 152.541 855.153 153.608 847.047 153.608H843.335V168.456C843.335 170.931 843.804 172.509 844.743 173.192C845.767 173.875 847.132 174.216 848.839 174.216H855.751V181H813.767ZM845.895 146.824C849.137 146.824 851.697 146.227 853.575 145.032C855.537 143.837 856.945 142.045 857.799 139.656C858.652 137.181 859.079 134.067 859.079 130.312C859.079 124.936 858.183 121.011 856.391 118.536C854.684 116.061 851.74 114.824 847.559 114.824H843.335V146.824H845.895ZM889.732 181V174.216H894.212C896.089 174.216 897.497 173.875 898.436 173.192C899.374 172.424 899.844 170.675 899.844 167.944V120.968C899.844 118.237 899.374 116.531 898.436 115.848C897.497 115.08 896.089 114.696 894.212 114.696H889.732V107.912H929.412V114.696H924.932C923.14 114.696 921.732 115.08 920.708 115.848C919.769 116.531 919.3 118.237 919.3 120.968V167.944C919.3 170.675 919.726 172.424 920.58 173.192C921.433 173.875 922.884 174.216 924.932 174.216H929.412V181H889.732ZM936.396 181V174.216H937.42C938.87 174.216 940.108 174.045 941.132 173.704C942.241 173.363 943.222 172.723 944.076 171.784C944.929 170.845 945.697 169.523 946.38 167.816L969.676 107.912H988.108L1010.12 166.408C1011.32 169.395 1012.64 171.443 1014.09 172.552C1015.63 173.661 1017.21 174.216 1018.83 174.216H1021V181H982.86V174.216H986.444C987.98 174.216 989.089 174.003 989.772 173.576C990.54 173.064 990.924 172.296 990.924 171.272C990.924 170.589 990.838 169.907 990.668 169.224C990.497 168.541 990.284 167.816 990.028 167.048L986.316 156.552H960.332L957.132 165.128C956.79 166.237 956.492 167.219 956.236 168.072C955.98 168.925 955.852 169.821 955.852 170.76C955.852 171.613 956.15 172.424 956.748 173.192C957.43 173.875 958.582 174.216 960.204 174.216H964.044V181H936.396ZM962.764 149.64H983.756L978.38 134.408C977.526 132.019 976.673 129.544 975.82 126.984C974.966 124.424 974.156 121.864 973.388 119.304C972.961 121.011 972.449 122.717 971.852 124.424C971.34 126.131 970.785 127.837 970.188 129.544C969.59 131.165 968.993 132.787 968.396 134.408L962.764 149.64Z" fill="black"/>
<path d="M10.88 102.536C10.368 100.915 9.64267 99.6773 8.704 98.824C7.76533 97.8853 6.784 97.2453 5.76 96.904C4.736 96.5627 3.79733 96.392 2.944 96.392H0V89.608H42.24V96.392H36.352C35.1573 96.392 34.0053 96.6907 32.896 97.288C31.872 97.8853 31.36 98.9947 31.36 100.616C31.36 101.128 31.4027 101.725 31.488 102.408C31.6587 103.091 31.8293 103.773 32 104.456C32.1707 105.053 32.3413 105.608 32.512 106.12L45.568 145.544C45.9093 146.483 46.2507 147.635 46.592 149C47.0187 150.28 47.4027 151.688 47.744 153.224C48.0853 154.675 48.384 156.125 48.64 157.576C48.9813 158.941 49.1947 160.221 49.28 161.416C49.536 159.965 49.8773 158.344 50.304 156.552C50.7307 154.76 51.2 152.925 51.712 151.048C52.3093 149.171 52.864 147.464 53.376 145.928L66.56 107.016C66.816 106.419 67.0293 105.736 67.2 104.968C67.456 104.115 67.6693 103.304 67.84 102.536C68.0107 101.768 68.096 101.171 68.096 100.744C68.096 99.2933 67.6267 98.2267 66.688 97.544C65.7493 96.776 64.512 96.392 62.976 96.392H56.32V89.608H89.344V96.392H83.2C82.432 96.392 81.7493 96.648 81.152 97.16C80.5547 97.5867 79.9573 98.4827 79.36 99.848C78.7627 101.128 77.9947 103.091 77.056 105.736L50.944 181H38.144L10.88 102.536ZM95.903 181V174.216H100.383C102.26 174.216 103.668 173.875 104.607 173.192C105.546 172.424 106.015 170.675 106.015 167.944V120.968C106.015 118.237 105.546 116.531 104.607 115.848C103.668 115.08 102.26 114.696 100.383 114.696H95.903V107.912H135.583V114.696H131.103C129.311 114.696 127.903 115.08 126.879 115.848C125.94 116.531 125.471 118.237 125.471 120.968V167.944C125.471 170.675 125.898 172.424 126.751 173.192C127.604 173.875 129.055 174.216 131.103 174.216H135.583V181H95.903ZM142.567 181V174.216H143.591C145.042 174.216 146.279 174.045 147.303 173.704C148.412 173.363 149.394 172.723 150.247 171.784C151.1 170.845 151.868 169.523 152.551 167.816L175.847 107.912H194.279L216.295 166.408C217.49 169.395 218.812 171.443 220.263 172.552C221.799 173.661 223.378 174.216 224.999 174.216H227.175V181H189.031V174.216H192.615C194.151 174.216 195.26 174.003 195.943 173.576C196.711 173.064 197.095 172.296 197.095 171.272C197.095 170.589 197.01 169.907 196.839 169.224C196.668 168.541 196.455 167.816 196.199 167.048L192.487 156.552H166.503L163.303 165.128C162.962 166.237 162.663 167.219 162.407 168.072C162.151 168.925 162.023 169.821 162.023 170.76C162.023 171.613 162.322 172.424 162.919 173.192C163.602 173.875 164.754 174.216 166.375 174.216H170.215V181H142.567ZM168.935 149.64H189.927L184.551 134.408C183.698 132.019 182.844 129.544 181.991 126.984C181.138 124.424 180.327 121.864 179.559 119.304C179.132 121.011 178.62 122.717 178.023 124.424C177.511 126.131 176.956 127.837 176.359 129.544C175.762 131.165 175.164 132.787 174.567 134.408L168.935 149.64ZM233.836 181V174.216H238.188C240.065 174.216 241.431 173.875 242.284 173.192C243.223 172.424 243.692 170.675 243.692 167.944V120.584C243.692 118.024 243.18 116.403 242.156 115.72C241.217 115.037 239.895 114.696 238.188 114.696H233.58V107.912H260.332L297.068 154.76V120.584C297.068 118.024 296.556 116.403 295.532 115.72C294.508 115.037 293.1 114.696 291.308 114.696H286.956V107.912H316.268V114.696H311.788C309.996 114.696 308.588 115.08 307.564 115.848C306.625 116.531 306.156 118.237 306.156 120.968V181H294.892L252.78 126.472V167.944C252.78 170.675 253.292 172.424 254.316 173.192C255.34 173.875 256.791 174.216 258.668 174.216H262.636V181H233.836ZM321.997 181V174.216H323.021C324.472 174.216 325.709 174.045 326.733 173.704C327.842 173.363 328.824 172.723 329.677 171.784C330.53 170.845 331.298 169.523 331.981 167.816L355.277 107.912H373.709L395.725 166.408C396.92 169.395 398.242 171.443 399.693 172.552C401.229 173.661 402.808 174.216 404.429 174.216H406.605V181H368.461V174.216H372.045C373.581 174.216 374.69 174.003 375.373 173.576C376.141 173.064 376.525 172.296 376.525 171.272C376.525 170.589 376.44 169.907 376.269 169.224C376.098 168.541 375.885 167.816 375.629 167.048L371.917 156.552H345.933L342.733 165.128C342.392 166.237 342.093 167.219 341.837 168.072C341.581 168.925 341.453 169.821 341.453 170.76C341.453 171.613 341.752 172.424 342.349 173.192C343.032 173.875 344.184 174.216 345.805 174.216H349.645V181H321.997ZM348.365 149.64H369.357L363.981 134.408C363.128 132.019 362.274 129.544 361.421 126.984C360.568 124.424 359.757 121.864 358.989 119.304C358.562 121.011 358.05 122.717 357.453 124.424C356.941 126.131 356.386 127.837 355.789 129.544C355.192 131.165 354.594 132.787 353.997 134.408L348.365 149.64Z" fill="black"/>
<defs>
<linearGradient id="paint0_linear_1861_355" x1="66.257" y1="202.973" x2="933.263" y2="241.931" gradientUnits="userSpaceOnUse">
<stop stop-color="#AC8C4D"/>
<stop offset="0.509615" stop-color="#C1A461"/>
<stop offset="1" stop-color="#B69F69"/>
</linearGradient>
</defs>
</svg>
