<svg width="1022" height="218" viewBox="0 0 1022 218" fill="none" xmlns="http://www.w3.org/2000/svg">
<path d="M625.381 189.215C431.029 186.061 241.915 154.075 65.0001 186.946C148.775 163.51 205.061 150.3 499.552 174.574C794.043 198.848 947.216 158.108 934.104 162.203C920.992 166.297 819.732 192.369 625.381 189.215Z" fill="url(#paint0_linear_1861_362)"/>
<path d="M494.712 137V130.216H500.088C501.368 130.216 502.477 130.045 503.416 129.704C504.44 129.277 505.208 128.467 505.72 127.272C506.317 126.077 506.616 124.285 506.616 121.896V53.416H496.376C493.816 53.416 491.811 53.8 490.36 54.568C488.909 55.2507 487.843 56.2747 487.16 57.64C486.477 59.0053 486.008 60.6267 485.752 62.504L484.856 70.44H476.28L476.92 45.608H556.664L557.304 70.44H548.728L547.832 62.504C547.661 60.6267 547.192 59.0053 546.424 57.64C545.741 56.2747 544.675 55.2507 543.224 54.568C541.773 53.8 539.768 53.416 537.208 53.416H526.968V121.896C526.968 124.285 527.224 126.077 527.736 127.272C528.333 128.467 529.144 129.277 530.168 129.704C531.192 130.045 532.301 130.216 533.496 130.216H538.872V137H494.712ZM565.153 137V130.216H569.633C571.425 130.216 572.79 129.917 573.729 129.32C574.753 128.637 575.265 126.973 575.265 124.328V77.096C575.265 74.28 574.796 72.5307 573.857 71.848C572.918 71.08 571.51 70.696 569.633 70.696H565.153V63.912H628.513L629.025 83.752H620.449L619.937 78.504C619.596 75.7733 618.87 73.8107 617.761 72.616C616.652 71.4213 614.988 70.824 612.769 70.824H594.721V95.144H620.065V102.056H594.721V129.96H616.225C618.188 129.96 619.724 129.277 620.833 127.912C621.942 126.461 622.71 124.584 623.137 122.28L624.033 117.032H632.353L631.457 137H565.153ZM642.618 137V130.216H647.098C648.805 130.216 650.17 129.917 651.194 129.32C652.218 128.637 652.73 127.016 652.73 124.456V76.584C652.73 74.024 652.218 72.4027 651.194 71.72C650.17 71.0373 648.805 70.696 647.098 70.696H642.618V63.912H679.61C686.693 63.912 692.41 64.7653 696.762 66.472C701.114 68.0933 704.314 70.3973 706.362 73.384C708.41 76.3707 709.434 79.8693 709.434 83.88C709.434 87.3787 708.751 90.28 707.386 92.584C706.106 94.888 704.399 96.7653 702.266 98.216C700.218 99.6667 697.999 100.819 695.61 101.672L708.026 122.408C709.221 124.285 710.33 125.821 711.354 127.016C712.463 128.125 713.573 128.936 714.682 129.448C715.877 129.96 717.071 130.216 718.266 130.216H718.778V137H713.274C708.751 137 704.954 136.701 701.882 136.104C698.895 135.421 696.421 134.312 694.458 132.776C692.495 131.24 690.789 129.192 689.338 126.632L677.818 105.64H672.186V124.456C672.186 127.016 672.698 128.637 673.722 129.32C674.746 129.917 676.111 130.216 677.818 130.216H682.298V137H642.618ZM676.026 98.856C680.378 98.856 683.663 97.704 685.882 95.4C688.101 93.0107 689.21 89.384 689.21 84.52C689.21 79.4 688.186 75.8587 686.138 73.896C684.09 71.848 681.146 70.824 677.306 70.824H672.186V98.856H676.026ZM722.657 137V130.216H723.681C725.132 130.216 726.369 130.045 727.393 129.704C728.502 129.363 729.484 128.723 730.337 127.784C731.19 126.845 731.958 125.523 732.641 123.816L755.937 63.912H774.369L796.385 122.408C797.58 125.395 798.902 127.443 800.353 128.552C801.889 129.661 803.468 130.216 805.089 130.216H807.265V137H769.121V130.216H772.705C774.241 130.216 775.35 130.003 776.033 129.576C776.801 129.064 777.185 128.296 777.185 127.272C777.185 126.589 777.1 125.907 776.929 125.224C776.758 124.541 776.545 123.816 776.289 123.048L772.577 112.552H746.593L743.393 121.128C743.052 122.237 742.753 123.219 742.497 124.072C742.241 124.925 742.113 125.821 742.113 126.76C742.113 127.613 742.412 128.424 743.009 129.192C743.692 129.875 744.844 130.216 746.465 130.216H750.305V137H722.657ZM749.025 105.64H770.017L764.641 90.408C763.788 88.0187 762.934 85.544 762.081 82.984C761.228 80.424 760.417 77.864 759.649 75.304C759.222 77.0107 758.71 78.7173 758.113 80.424C757.601 82.1307 757.046 83.8373 756.449 85.544C755.852 87.1653 755.254 88.7867 754.657 90.408L749.025 105.64ZM813.798 137V130.216H818.406C820.283 130.216 821.649 129.875 822.502 129.192C823.441 128.424 823.91 126.675 823.91 123.944V76.584C823.91 74.024 823.441 72.4027 822.502 71.72C821.563 71.0373 820.198 70.696 818.406 70.696H813.798V63.912H849.51C856.422 63.912 862.054 64.7227 866.406 66.344C870.843 67.9653 874.086 70.3973 876.134 73.64C878.267 76.8827 879.334 80.936 879.334 85.8C879.334 90.152 878.31 94.1627 876.262 97.832C874.299 101.416 870.971 104.275 866.278 106.408C861.585 108.541 855.185 109.608 847.078 109.608H843.366V124.456C843.366 126.931 843.835 128.509 844.774 129.192C845.798 129.875 847.163 130.216 848.87 130.216H855.782V137H813.798ZM845.926 102.824C849.169 102.824 851.729 102.227 853.606 101.032C855.569 99.8373 856.977 98.0453 857.83 95.656C858.683 93.1813 859.11 90.0667 859.11 86.312C859.11 80.936 858.214 77.0107 856.422 74.536C854.715 72.0613 851.771 70.824 847.59 70.824H843.366V102.824H845.926ZM889.763 137V130.216H894.243C896.12 130.216 897.528 129.875 898.467 129.192C899.406 128.424 899.875 126.675 899.875 123.944V76.968C899.875 74.2373 899.406 72.5307 898.467 71.848C897.528 71.08 896.12 70.696 894.243 70.696H889.763V63.912H929.443V70.696H924.963C923.171 70.696 921.763 71.08 920.739 71.848C919.8 72.5307 919.331 74.2373 919.331 76.968V123.944C919.331 126.675 919.758 128.424 920.611 129.192C921.464 129.875 922.915 130.216 924.963 130.216H929.443V137H889.763ZM936.427 137V130.216H937.451C938.902 130.216 940.139 130.045 941.163 129.704C942.272 129.363 943.254 128.723 944.107 127.784C944.96 126.845 945.728 125.523 946.411 123.816L969.707 63.912H988.139L1010.16 122.408C1011.35 125.395 1012.67 127.443 1014.12 128.552C1015.66 129.661 1017.24 130.216 1018.86 130.216H1021.04V137H982.891V130.216H986.475C988.011 130.216 989.12 130.003 989.803 129.576C990.571 129.064 990.955 128.296 990.955 127.272C990.955 126.589 990.87 125.907 990.699 125.224C990.528 124.541 990.315 123.816 990.059 123.048L986.347 112.552H960.363L957.163 121.128C956.822 122.237 956.523 123.219 956.267 124.072C956.011 124.925 955.883 125.821 955.883 126.76C955.883 127.613 956.182 128.424 956.779 129.192C957.462 129.875 958.614 130.216 960.235 130.216H964.075V137H936.427ZM962.795 105.64H983.787L978.411 90.408C977.558 88.0187 976.704 85.544 975.851 82.984C974.998 80.424 974.187 77.864 973.419 75.304C972.992 77.0107 972.48 78.7173 971.883 80.424C971.371 82.1307 970.816 83.8373 970.219 85.544C969.622 87.1653 969.024 88.7867 968.427 90.408L962.795 105.64Z" fill="black"/>
<path d="M10.88 58.536C10.368 56.9147 9.64267 55.6773 8.704 54.824C7.76533 53.8853 6.784 53.2453 5.76 52.904C4.736 52.5627 3.79733 52.392 2.944 52.392H0V45.608H42.24V52.392H36.352C35.1573 52.392 34.0053 52.6907 32.896 53.288C31.872 53.8853 31.36 54.9947 31.36 56.616C31.36 57.128 31.4027 57.7253 31.488 58.408C31.6587 59.0907 31.8293 59.7733 32 60.456C32.1707 61.0533 32.3413 61.608 32.512 62.12L45.568 101.544C45.9093 102.483 46.2507 103.635 46.592 105C47.0187 106.28 47.4027 107.688 47.744 109.224C48.0853 110.675 48.384 112.125 48.64 113.576C48.9813 114.941 49.1947 116.221 49.28 117.416C49.536 115.965 49.8773 114.344 50.304 112.552C50.7307 110.76 51.2 108.925 51.712 107.048C52.3093 105.171 52.864 103.464 53.376 101.928L66.56 63.016C66.816 62.4187 67.0293 61.736 67.2 60.968C67.456 60.1147 67.6693 59.304 67.84 58.536C68.0107 57.768 68.096 57.1707 68.096 56.744C68.096 55.2933 67.6267 54.2267 66.688 53.544C65.7493 52.776 64.512 52.392 62.976 52.392H56.32V45.608H89.344V52.392H83.2C82.432 52.392 81.7493 52.648 81.152 53.16C80.5547 53.5867 79.9573 54.4827 79.36 55.848C78.7627 57.128 77.9947 59.0907 77.056 61.736L50.944 137H38.144L10.88 58.536ZM95.903 137V130.216H100.383C102.26 130.216 103.668 129.875 104.607 129.192C105.546 128.424 106.015 126.675 106.015 123.944V76.968C106.015 74.2373 105.546 72.5307 104.607 71.848C103.668 71.08 102.26 70.696 100.383 70.696H95.903V63.912H135.583V70.696H131.103C129.311 70.696 127.903 71.08 126.879 71.848C125.94 72.5307 125.471 74.2373 125.471 76.968V123.944C125.471 126.675 125.898 128.424 126.751 129.192C127.604 129.875 129.055 130.216 131.103 130.216H135.583V137H95.903ZM142.567 137V130.216H143.591C145.042 130.216 146.279 130.045 147.303 129.704C148.412 129.363 149.394 128.723 150.247 127.784C151.1 126.845 151.868 125.523 152.551 123.816L175.847 63.912H194.279L216.295 122.408C217.49 125.395 218.812 127.443 220.263 128.552C221.799 129.661 223.378 130.216 224.999 130.216H227.175V137H189.031V130.216H192.615C194.151 130.216 195.26 130.003 195.943 129.576C196.711 129.064 197.095 128.296 197.095 127.272C197.095 126.589 197.01 125.907 196.839 125.224C196.668 124.541 196.455 123.816 196.199 123.048L192.487 112.552H166.503L163.303 121.128C162.962 122.237 162.663 123.219 162.407 124.072C162.151 124.925 162.023 125.821 162.023 126.76C162.023 127.613 162.322 128.424 162.919 129.192C163.602 129.875 164.754 130.216 166.375 130.216H170.215V137H142.567ZM168.935 105.64H189.927L184.551 90.408C183.698 88.0187 182.844 85.544 181.991 82.984C181.138 80.424 180.327 77.864 179.559 75.304C179.132 77.0107 178.62 78.7173 178.023 80.424C177.511 82.1307 176.956 83.8373 176.359 85.544C175.762 87.1653 175.164 88.7867 174.567 90.408L168.935 105.64ZM233.836 137V130.216H238.188C240.065 130.216 241.431 129.875 242.284 129.192C243.223 128.424 243.692 126.675 243.692 123.944V76.584C243.692 74.024 243.18 72.4027 242.156 71.72C241.217 71.0373 239.895 70.696 238.188 70.696H233.58V63.912H260.332L297.068 110.76V76.584C297.068 74.024 296.556 72.4027 295.532 71.72C294.508 71.0373 293.1 70.696 291.308 70.696H286.956V63.912H316.268V70.696H311.788C309.996 70.696 308.588 71.08 307.564 71.848C306.625 72.5307 306.156 74.2373 306.156 76.968V137H294.892L252.78 82.472V123.944C252.78 126.675 253.292 128.424 254.316 129.192C255.34 129.875 256.791 130.216 258.668 130.216H262.636V137H233.836ZM321.997 137V130.216H323.021C324.472 130.216 325.709 130.045 326.733 129.704C327.842 129.363 328.824 128.723 329.677 127.784C330.53 126.845 331.298 125.523 331.981 123.816L355.277 63.912H373.709L395.725 122.408C396.92 125.395 398.242 127.443 399.693 128.552C401.229 129.661 402.808 130.216 404.429 130.216H406.605V137H368.461V130.216H372.045C373.581 130.216 374.69 130.003 375.373 129.576C376.141 129.064 376.525 128.296 376.525 127.272C376.525 126.589 376.44 125.907 376.269 125.224C376.098 124.541 375.885 123.816 375.629 123.048L371.917 112.552H345.933L342.733 121.128C342.392 122.237 342.093 123.219 341.837 124.072C341.581 124.925 341.453 125.821 341.453 126.76C341.453 127.613 341.752 128.424 342.349 129.192C343.032 129.875 344.184 130.216 345.805 130.216H349.645V137H321.997ZM348.365 105.64H369.357L363.981 90.408C363.128 88.0187 362.274 85.544 361.421 82.984C360.568 80.424 359.757 77.864 358.989 75.304C358.562 77.0107 358.05 78.7173 357.453 80.424C356.941 82.1307 356.386 83.8373 355.789 85.544C355.192 87.1653 354.594 88.7867 353.997 90.408L348.365 105.64Z" fill="black"/>
<defs>
<linearGradient id="paint0_linear_1861_362" x1="66.257" y1="158.973" x2="933.263" y2="197.931" gradientUnits="userSpaceOnUse">
<stop stop-color="#AC8C4D"/>
<stop offset="0.509615" stop-color="#C1A461"/>
<stop offset="1" stop-color="#B69F69"/>
</linearGradient>
</defs>
</svg>
