<svg width="484" height="282" viewBox="0 0 484 282" fill="none" xmlns="http://www.w3.org/2000/svg">
<path d="M312.255 258.593C203.899 263.376 97.7398 231.372 0 281.033C46.0858 247.54 77.113 228.251 241.787 245.718C406.461 263.185 490.777 204.621 483.574 210.404C476.372 216.186 420.611 253.811 312.255 258.593Z" fill="url(#paint0_linear_1861_388)"/>
<path d="M124.012 210V205.866H127.288C128.068 205.866 128.744 205.762 129.316 205.554C129.94 205.294 130.408 204.8 130.72 204.072C131.084 203.344 131.266 202.252 131.266 200.796V159.066H125.026C123.466 159.066 122.244 159.3 121.36 159.768C120.476 160.184 119.826 160.808 119.41 161.64C118.994 162.472 118.708 163.46 118.552 164.604L118.006 169.44H112.78L113.17 154.308H161.764L162.154 169.44H156.928L156.382 164.604C156.278 163.46 155.992 162.472 155.524 161.64C155.108 160.808 154.458 160.184 153.574 159.768C152.69 159.3 151.468 159.066 149.908 159.066H143.668V200.796C143.668 202.252 143.824 203.344 144.136 204.072C144.5 204.8 144.994 205.294 145.618 205.554C146.242 205.762 146.918 205.866 147.646 205.866H150.922V210H124.012ZM166.937 210V205.866H169.667C170.759 205.866 171.591 205.684 172.163 205.32C172.787 204.904 173.099 203.89 173.099 202.278V173.496C173.099 171.78 172.813 170.714 172.241 170.298C171.669 169.83 170.811 169.596 169.667 169.596H166.937V165.462H205.547L205.859 177.552H200.633L200.321 174.354C200.113 172.69 199.671 171.494 198.995 170.766C198.319 170.038 197.305 169.674 195.953 169.674H184.955V184.494H200.399V188.706H184.955V205.71H198.059C199.255 205.71 200.191 205.294 200.867 204.462C201.543 203.578 202.011 202.434 202.271 201.03L202.817 197.832H207.887L207.341 210H166.937ZM214.142 210V205.866H216.872C217.912 205.866 218.744 205.684 219.368 205.32C219.992 204.904 220.304 203.916 220.304 202.356V173.184C220.304 171.624 219.992 170.636 219.368 170.22C218.744 169.804 217.912 169.596 216.872 169.596H214.142V165.462H236.684C241 165.462 244.484 165.982 247.136 167.022C249.788 168.01 251.738 169.414 252.986 171.234C254.234 173.054 254.858 175.186 254.858 177.63C254.858 179.762 254.442 181.53 253.61 182.934C252.83 184.338 251.79 185.482 250.49 186.366C249.242 187.25 247.89 187.952 246.434 188.472L254 201.108C254.728 202.252 255.404 203.188 256.028 203.916C256.704 204.592 257.38 205.086 258.056 205.398C258.784 205.71 259.512 205.866 260.24 205.866H260.552V210H257.198C254.442 210 252.128 209.818 250.256 209.454C248.436 209.038 246.928 208.362 245.732 207.426C244.536 206.49 243.496 205.242 242.612 203.682L235.592 190.89H232.16V202.356C232.16 203.916 232.472 204.904 233.096 205.32C233.72 205.684 234.552 205.866 235.592 205.866H238.322V210H214.142ZM234.5 186.756C237.152 186.756 239.154 186.054 240.506 184.65C241.858 183.194 242.534 180.984 242.534 178.02C242.534 174.9 241.91 172.742 240.662 171.546C239.414 170.298 237.62 169.674 235.28 169.674H232.16V186.756H234.5ZM262.916 210V205.866H263.54C264.424 205.866 265.178 205.762 265.802 205.554C266.478 205.346 267.076 204.956 267.596 204.384C268.116 203.812 268.584 203.006 269 201.966L283.196 165.462H294.428L307.844 201.108C308.572 202.928 309.378 204.176 310.262 204.852C311.198 205.528 312.16 205.866 313.148 205.866H314.474V210H291.23V205.866H293.414C294.35 205.866 295.026 205.736 295.442 205.476C295.91 205.164 296.144 204.696 296.144 204.072C296.144 203.656 296.092 203.24 295.988 202.824C295.884 202.408 295.754 201.966 295.598 201.498L293.336 195.102H277.502L275.552 200.328C275.344 201.004 275.162 201.602 275.006 202.122C274.85 202.642 274.772 203.188 274.772 203.76C274.772 204.28 274.954 204.774 275.318 205.242C275.734 205.658 276.436 205.866 277.424 205.866H279.764V210H262.916ZM278.984 190.89H291.776L288.5 181.608C287.98 180.152 287.46 178.644 286.94 177.084C286.42 175.524 285.926 173.964 285.458 172.404C285.198 173.444 284.886 174.484 284.522 175.524C284.21 176.564 283.872 177.604 283.508 178.644C283.144 179.632 282.78 180.62 282.416 181.608L278.984 190.89ZM318.455 210V205.866H321.263C322.407 205.866 323.239 205.658 323.759 205.242C324.331 204.774 324.617 203.708 324.617 202.044V173.184C324.617 171.624 324.331 170.636 323.759 170.22C323.187 169.804 322.355 169.596 321.263 169.596H318.455V165.462H340.217C344.429 165.462 347.861 165.956 350.513 166.944C353.217 167.932 355.193 169.414 356.441 171.39C357.741 173.366 358.391 175.836 358.391 178.8C358.391 181.452 357.767 183.896 356.519 186.132C355.323 188.316 353.295 190.058 350.435 191.358C347.575 192.658 343.675 193.308 338.735 193.308H336.473V202.356C336.473 203.864 336.759 204.826 337.331 205.242C337.955 205.658 338.787 205.866 339.827 205.866H344.039V210H318.455ZM338.033 189.174C340.009 189.174 341.569 188.81 342.713 188.082C343.909 187.354 344.767 186.262 345.287 184.806C345.807 183.298 346.067 181.4 346.067 179.112C346.067 175.836 345.521 173.444 344.429 171.936C343.389 170.428 341.595 169.674 339.047 169.674H336.473V189.174H338.033ZM364.746 210V205.866H367.476C368.62 205.866 369.478 205.658 370.05 205.242C370.622 204.774 370.908 203.708 370.908 202.044V173.418C370.908 171.754 370.622 170.714 370.05 170.298C369.478 169.83 368.62 169.596 367.476 169.596H364.746V165.462H388.926V169.596H386.196C385.104 169.596 384.246 169.83 383.622 170.298C383.05 170.714 382.764 171.754 382.764 173.418V202.044C382.764 203.708 383.024 204.774 383.544 205.242C384.064 205.658 384.948 205.866 386.196 205.866H388.926V210H364.746ZM393.182 210V205.866H393.806C394.69 205.866 395.444 205.762 396.068 205.554C396.744 205.346 397.342 204.956 397.862 204.384C398.382 203.812 398.85 203.006 399.266 201.966L413.462 165.462H424.694L438.11 201.108C438.838 202.928 439.644 204.176 440.528 204.852C441.464 205.528 442.426 205.866 443.414 205.866H444.74V210H421.496V205.866H423.68C424.616 205.866 425.292 205.736 425.708 205.476C426.176 205.164 426.41 204.696 426.41 204.072C426.41 203.656 426.358 203.24 426.254 202.824C426.15 202.408 426.02 201.966 425.864 201.498L423.602 195.102H407.768L405.818 200.328C405.61 201.004 405.428 201.602 405.272 202.122C405.116 202.642 405.038 203.188 405.038 203.76C405.038 204.28 405.22 204.774 405.584 205.242C406 205.658 406.702 205.866 407.69 205.866H410.03V210H393.182ZM409.25 190.89H422.042L418.766 181.608C418.246 180.152 417.726 178.644 417.206 177.084C416.686 175.524 416.192 173.964 415.724 172.404C415.464 173.444 415.152 174.484 414.788 175.524C414.476 176.564 414.138 177.604 413.774 178.644C413.41 179.632 413.046 180.62 412.682 181.608L409.25 190.89Z" fill="black"/>
<path d="M48.88 58.536C48.368 56.9147 47.6427 55.6773 46.704 54.824C45.7653 53.8853 44.784 53.2453 43.76 52.904C42.736 52.5627 41.7973 52.392 40.944 52.392H38V45.608H80.24V52.392H74.352C73.1573 52.392 72.0053 52.6907 70.896 53.288C69.872 53.8853 69.36 54.9947 69.36 56.616C69.36 57.128 69.4027 57.7253 69.488 58.408C69.6587 59.0907 69.8293 59.7733 70 60.456C70.1707 61.0533 70.3413 61.608 70.512 62.12L83.568 101.544C83.9093 102.483 84.2507 103.635 84.592 105C85.0187 106.28 85.4027 107.688 85.744 109.224C86.0853 110.675 86.384 112.125 86.64 113.576C86.9813 114.941 87.1947 116.221 87.28 117.416C87.536 115.965 87.8773 114.344 88.304 112.552C88.7307 110.76 89.2 108.925 89.712 107.048C90.3093 105.171 90.864 103.464 91.376 101.928L104.56 63.016C104.816 62.4187 105.029 61.736 105.2 60.968C105.456 60.1147 105.669 59.304 105.84 58.536C106.011 57.768 106.096 57.1707 106.096 56.744C106.096 55.2933 105.627 54.2267 104.688 53.544C103.749 52.776 102.512 52.392 100.976 52.392H94.32V45.608H127.344V52.392H121.2C120.432 52.392 119.749 52.648 119.152 53.16C118.555 53.5867 117.957 54.4827 117.36 55.848C116.763 57.128 115.995 59.0907 115.056 61.736L88.944 137H76.144L48.88 58.536ZM133.903 137V130.216H138.383C140.26 130.216 141.668 129.875 142.607 129.192C143.546 128.424 144.015 126.675 144.015 123.944V76.968C144.015 74.2373 143.546 72.5307 142.607 71.848C141.668 71.08 140.26 70.696 138.383 70.696H133.903V63.912H173.583V70.696H169.103C167.311 70.696 165.903 71.08 164.879 71.848C163.94 72.5307 163.471 74.2373 163.471 76.968V123.944C163.471 126.675 163.898 128.424 164.751 129.192C165.604 129.875 167.055 130.216 169.103 130.216H173.583V137H133.903ZM180.567 137V130.216H181.591C183.042 130.216 184.279 130.045 185.303 129.704C186.412 129.363 187.394 128.723 188.247 127.784C189.1 126.845 189.868 125.523 190.551 123.816L213.847 63.912H232.279L254.295 122.408C255.49 125.395 256.812 127.443 258.263 128.552C259.799 129.661 261.378 130.216 262.999 130.216H265.175V137H227.031V130.216H230.615C232.151 130.216 233.26 130.003 233.943 129.576C234.711 129.064 235.095 128.296 235.095 127.272C235.095 126.589 235.01 125.907 234.839 125.224C234.668 124.541 234.455 123.816 234.199 123.048L230.487 112.552H204.503L201.303 121.128C200.962 122.237 200.663 123.219 200.407 124.072C200.151 124.925 200.023 125.821 200.023 126.76C200.023 127.613 200.322 128.424 200.919 129.192C201.602 129.875 202.754 130.216 204.375 130.216H208.215V137H180.567ZM206.935 105.64H227.927L222.551 90.408C221.698 88.0187 220.844 85.544 219.991 82.984C219.138 80.424 218.327 77.864 217.559 75.304C217.132 77.0107 216.62 78.7173 216.023 80.424C215.511 82.1307 214.956 83.8373 214.359 85.544C213.762 87.1653 213.164 88.7867 212.567 90.408L206.935 105.64ZM271.836 137V130.216H276.188C278.065 130.216 279.431 129.875 280.284 129.192C281.223 128.424 281.692 126.675 281.692 123.944V76.584C281.692 74.024 281.18 72.4027 280.156 71.72C279.217 71.0373 277.895 70.696 276.188 70.696H271.58V63.912H298.332L335.068 110.76V76.584C335.068 74.024 334.556 72.4027 333.532 71.72C332.508 71.0373 331.1 70.696 329.308 70.696H324.956V63.912H354.268V70.696H349.788C347.996 70.696 346.588 71.08 345.564 71.848C344.625 72.5307 344.156 74.2373 344.156 76.968V137H332.892L290.78 82.472V123.944C290.78 126.675 291.292 128.424 292.316 129.192C293.34 129.875 294.791 130.216 296.668 130.216H300.636V137H271.836ZM359.997 137V130.216H361.021C362.472 130.216 363.709 130.045 364.733 129.704C365.842 129.363 366.824 128.723 367.677 127.784C368.53 126.845 369.298 125.523 369.981 123.816L393.277 63.912H411.709L433.725 122.408C434.92 125.395 436.242 127.443 437.693 128.552C439.229 129.661 440.808 130.216 442.429 130.216H444.605V137H406.461V130.216H410.045C411.581 130.216 412.69 130.003 413.373 129.576C414.141 129.064 414.525 128.296 414.525 127.272C414.525 126.589 414.44 125.907 414.269 125.224C414.098 124.541 413.885 123.816 413.629 123.048L409.917 112.552H383.933L380.733 121.128C380.392 122.237 380.093 123.219 379.837 124.072C379.581 124.925 379.453 125.821 379.453 126.76C379.453 127.613 379.752 128.424 380.349 129.192C381.032 129.875 382.184 130.216 383.805 130.216H387.645V137H359.997ZM386.365 105.64H407.357L401.981 90.408C401.128 88.0187 400.274 85.544 399.421 82.984C398.568 80.424 397.757 77.864 396.989 75.304C396.562 77.0107 396.05 78.7173 395.453 80.424C394.941 82.1307 394.386 83.8373 393.789 85.544C393.192 87.1653 392.594 88.7867 391.997 90.408L386.365 105.64Z" fill="black"/>
<defs>
<linearGradient id="paint0_linear_1861_388" x1="0" y1="245.517" x2="484" y2="245.517" gradientUnits="userSpaceOnUse">
<stop stop-color="#AC8C4D"/>
<stop offset="0.509615" stop-color="#C1A461"/>
<stop offset="1" stop-color="#B69F69"/>
</linearGradient>
</defs>
</svg>
