<svg width="671" height="325" viewBox="0 0 671 325" fill="none" xmlns="http://www.w3.org/2000/svg">
<path fill-rule="evenodd" clip-rule="evenodd" d="M570.829 0.418269C550.915 2.91292 533.6 11.3115 521.011 24.5819C509.025 37.2165 501.267 55.4511 503.147 66.5712C503.715 69.9286 503.673 70.6824 502.828 72.3406C501.417 75.1101 496.577 81.9332 487.52 93.9195C479.463 104.582 478 106.986 478 109.555C478 113.452 480.817 115.62 487.356 116.757C489.452 117.121 491.736 117.879 492.433 118.442L493.699 119.465L492.474 123.086C491.8 125.077 490.699 128.209 490.027 130.045C488.676 133.737 488.849 134.39 492.108 137.892L493.497 139.385L492.035 141.536C490.205 144.226 490.193 145.689 491.981 148.147C492.757 149.213 493.817 150.666 494.338 151.376C496.03 153.681 495.945 157.022 494.042 163.127C493.076 166.223 492.288 169.687 492.289 170.825C492.299 176.904 495.736 181.233 502.37 183.518C506.015 184.774 507.155 184.869 518.858 184.89C532.754 184.915 532.749 184.914 538.581 188.919C540.305 190.103 545.83 193.052 550.859 195.472C560.982 200.344 562.743 201.737 567.3 208.476C574.955 219.796 580.051 234.799 581.94 251.581C583.477 265.231 583.167 280.342 581.218 286.792L580.4 289.5H600.431L600.062 287.658C599.859 286.644 599.396 283.408 599.034 280.466C597.475 267.805 601.688 244.562 607.732 232.479C610.046 227.854 610.568 225.521 609.888 222.846C609.24 220.298 610.291 212.702 612.343 205.11C613.785 199.774 620.307 186.194 624.538 179.717C626.293 177.03 630.533 171.938 633.961 168.401C640.459 161.694 640.844 161.019 641.692 154.847C642.236 150.889 645.644 144.441 653.4 132.693C664.073 116.527 667.586 108.731 669.717 96.4854C672.74 79.1015 670.384 60.7056 663.039 44.3521C660.244 38.13 654.144 29.5946 648.307 23.7374C636.755 12.1491 621.846 4.66915 603.963 1.49082C596.3 0.128603 577.896 -0.46669 570.829 0.418269ZM577.114 18.3775C577.322 16.993 578.756 13.2815 580.301 10.1289L583.11 4.39716L578.413 4.4884C570.184 4.64806 570.33 4.59046 569.209 8.13771L568.226 11.2499L573.308 20.5129L575.032 13.4532C576.952 5.59346 577.482 6.33016 575.695 14.3758C575.069 17.1983 574.308 21.6915 574.003 24.3606C573.699 27.0303 572.675 31.5042 571.726 34.3039C569.817 39.9392 569.575 43.9381 570.792 49.7C571.245 51.8411 571.346 54.1231 571.067 55.8856C570.824 57.4223 570.791 59.4876 570.993 60.4757C571.329 62.1105 571.431 61.9383 572.119 58.5667C572.535 56.5282 573.953 52.5932 575.271 49.8226L577.667 44.7843L576.775 41.5546C576.284 39.7779 575.457 37.3625 574.935 36.1861C574.414 35.0104 574.115 34.0479 574.272 34.0479C574.784 34.0479 577.85 40.5562 578.288 42.5753L578.716 44.5459L579.795 43.2162C581.568 41.0312 581.562 39.7317 579.751 33.8688C577.511 26.6152 576.642 21.513 577.114 18.3775ZM588.158 20.002C588.578 18.4755 589.072 14.3404 589.256 10.812L589.59 4.39716H586.674C584.268 4.39716 583.641 4.61327 583.095 5.63109C582.031 7.6154 582.861 12.3601 585.22 17.781L587.395 22.7777L588.158 20.002ZM608.334 7.76309C608.299 7.06116 607.009 6.64035 602.717 5.9293C599.653 5.42182 595.539 4.84421 593.574 4.64578L590.002 4.2854L589.99 10.7561C589.982 15.0623 589.6 18.934 588.847 22.3296C588.225 25.1361 587.717 27.5447 587.717 27.6809C587.717 28.177 589.864 25.1641 590.778 23.3862C591.293 22.3837 591.989 18.9197 592.323 15.6884C593.171 7.49908 593.485 7.42724 593.079 15.5162C592.707 22.9169 592.364 23.9843 588.863 28.6309C585.162 33.5432 585.069 34.5508 587.643 41.7741C588.868 45.2079 590.202 49.5158 590.609 51.3468L591.35 54.6756L592.366 52.7723C593.676 50.3198 593.66 47.9997 592.288 42.0307C591.135 37.0124 590.893 30.8262 591.753 28.3458C592.082 27.3975 592.158 28.2563 591.981 30.9117C591.834 33.107 591.927 35.8012 592.186 36.8989L592.657 38.8946L593.557 35.7585C594.053 34.0336 594.757 30.0564 595.123 26.9203C595.489 23.7842 596.19 19.1872 596.68 16.7051C597.215 14.0034 597.45 10.8388 597.267 8.81968C597.098 6.9648 597.13 5.61626 597.339 5.82268C597.547 6.02966 597.845 8.1514 598.003 10.5383L598.288 14.8781L599.839 12.6315C601.581 10.1078 604.665 6.49894 603.952 7.8184C603.698 8.28882 602.376 10.3364 601.015 12.3686C598.112 16.7033 596.959 20.1839 596.479 26.065L596.131 30.3415L597.276 28.916C600.91 24.3943 607.138 13.3505 607.154 11.3987C607.159 10.8405 607.42 9.99943 607.734 9.52901C608.375 8.56765 608.291 9.48568 606.815 19.4905C606.308 22.9306 605.416 27.2727 604.834 29.1395L603.775 32.534L611.629 24.7581L612.018 19.852C612.764 10.4499 613.407 8.09951 613.128 15.8013L612.869 22.9288L614.721 20.7056C618.235 16.4895 621.42 12.0932 621.425 11.45C621.431 10.8753 611.229 7.24819 609.606 7.24819C609.248 7.24819 608.826 7.56922 608.667 7.96095C608.481 8.42224 608.363 8.35268 608.334 7.76309ZM567.252 9.82495C567.854 10.0553 568.294 9.47599 568.801 7.78647C569.191 6.48868 569.428 5.37735 569.327 5.31691C569.045 5.14699 566.503 5.55753 564.271 6.13344L562.254 6.65403L562.678 12.3549C563.072 17.6601 564.022 20.92 565.426 21.7862C565.779 22.0028 566.005 21.1869 566.009 19.6838C566.012 18.3324 566.388 15.8298 566.844 14.122C567.452 11.8418 567.504 10.8165 567.041 10.26C566.559 9.68012 566.608 9.57805 567.252 9.82495ZM561.776 10.9545C561.629 8.75924 561.491 6.89866 561.469 6.82054C561.388 6.52175 556.791 7.70721 556.349 8.14056C556.063 8.42111 561.59 16.859 562.091 16.9063C562.297 16.9257 562.371 16.4929 562.255 15.9438C562.139 15.3947 561.924 13.1498 561.776 10.9545ZM562.45 26.4818C562.628 19.7465 562.729 20.0761 558.378 13.0928C556.766 10.5058 555.186 8.40913 554.867 8.43365C553.096 8.57107 553.076 9.16409 554.643 14.918C556.755 22.67 558.065 26.0291 560.382 29.6368L562.288 32.603L562.45 26.4818ZM584.836 31.5127C586.819 25.2838 586.815 25.2159 584.254 18.5194C583.326 16.0949 582.373 12.7644 582.136 11.1193L581.705 8.12745L579.996 11.8218C578.5 15.0572 578.288 16.1542 578.288 20.648C578.288 24.916 578.618 26.8142 580.245 31.9238C581.322 35.3029 582.389 37.8688 582.617 37.6259C582.845 37.383 583.843 34.6317 584.836 31.5127ZM554.896 19.4112C554.445 17.5826 553.784 14.6107 553.427 12.8077C553.068 10.9973 552.476 9.54213 552.104 9.55867C551.734 9.57463 550.444 9.99544 549.239 10.4938C547.14 11.3617 547.064 11.4865 547.431 13.4389C547.642 14.5605 548.307 16.1691 548.91 17.0141C549.996 18.536 555.716 23.5903 555.716 23.0281C555.716 22.8673 555.347 21.2399 554.896 19.4112ZM638.84 21.1578C637.594 20.1097 634.331 17.9247 631.589 16.3013C628.846 14.678 625.617 12.9098 624.413 12.3721L622.225 11.3947L621.022 13.48C620.361 14.6267 618.253 17.6727 616.34 20.2483C614.426 22.8239 612.86 25.2142 612.86 25.5609C612.86 25.907 611.661 29.6903 610.196 33.968C607.779 41.0226 607.529 42.2491 607.501 47.1626C607.449 56.4843 609.253 69.4006 610.606 69.4006C611.353 69.4006 611.802 65.3413 611.99 56.904C612.105 51.6923 612.517 47.2778 613.09 45.0773C613.929 41.8665 613.929 41.2655 613.101 38.037L612.194 34.5074L614.744 29.2884C616.146 26.4179 617.454 23.6844 617.652 23.2139C617.849 22.7435 617.862 23.1284 617.681 24.0693C617.5 25.0101 616.483 27.7072 615.421 30.0633C613.767 33.732 613.561 34.6586 613.982 36.5231C614.627 39.3759 615.01 39.6758 615.454 37.6789C617.208 29.8072 618.72 25.9241 621.637 21.8004C622.298 20.8658 623.285 18.8131 623.831 17.2388C624.599 15.0235 624.827 14.7247 624.842 15.9193C624.852 16.7683 623.661 19.7192 622.195 22.4767C619.685 27.1985 616.676 35.1814 617.204 35.7169C617.492 36.0088 617.241 36.3196 625.383 25.5603C628.971 20.8191 632.022 17.0552 632.162 17.1954C632.431 17.4634 627.123 25.2992 621.132 33.4777C616.294 40.0823 616.293 40.0835 616.985 43.5726L617.572 46.5337L619.358 44.3743C620.342 43.1871 622.376 40.6229 623.879 38.6768C625.383 36.7307 627.731 34.3512 629.098 33.3898L631.584 31.6416L631.823 26.715C631.955 24.0054 632.322 21.33 632.639 20.7701C633.046 20.0505 633.142 21.261 632.967 24.904C632.787 28.6737 632.905 30.0564 633.408 30.0564C633.786 30.0564 635.672 28.4827 637.599 26.5593L641.104 23.0623L638.84 21.1578ZM546.817 19.1706C546.758 16.2198 546.679 13.3568 546.641 12.8077C546.604 12.2586 546.38 11.8155 546.144 11.8224C545.499 11.8412 539.716 15.2773 539.716 15.6422C539.716 15.8161 540.68 17.0181 541.859 18.313C543.037 19.608 544.659 21.5381 545.463 22.6015L546.925 24.5357L546.817 19.1706ZM571.78 29.2011C573.268 23.5623 573.147 22.321 570.594 17.054C569.348 14.4835 568.212 12.38 568.07 12.38C567.601 12.38 566.573 18.0878 566.573 20.6925C566.573 22.3598 567.14 24.3789 568.205 26.5092C569.103 28.303 570.037 30.5411 570.282 31.4819C570.696 33.0745 570.799 32.9177 571.78 29.2011ZM599.677 33.8717C599.824 38.4573 603.032 32.4148 605.187 23.4928C606.859 16.5671 606.841 14.3205 605.143 18.1072C604.517 19.5048 602.222 23.5988 600.043 27.2054C597.863 30.8119 595.753 34.6608 595.352 35.7585C594.567 37.9116 594.299 44.8943 595.003 44.8624C595.238 44.8515 596.304 42.934 597.37 40.6012C599.045 36.936 599.265 35.9506 598.987 33.3505C598.785 31.4671 598.847 30.768 599.151 31.4819C599.418 32.1092 599.655 33.1846 599.677 33.8717ZM547.364 31.4004C546.258 26.0325 545.567 24.5876 541.874 19.9353C540.318 17.9755 538.746 16.3772 538.381 16.384C538.015 16.3909 537.12 16.8544 536.39 17.4138C535.219 18.313 535.028 19.06 534.741 23.8617C534.223 32.5265 536.298 37.0506 543.313 42.5519C545.647 44.3817 547.521 46.4567 548.607 48.4119C550.222 51.3205 550.287 51.7254 550.287 58.7537V66.0683L552.736 67.7345C554.083 68.6508 555.266 69.4006 555.364 69.4006C555.883 69.4006 548.881 41.7017 547.57 38.5713C547.107 37.4657 545.125 34.6511 543.166 32.3167C541.207 29.9823 539.237 27.2995 538.789 26.3558L537.976 24.6395L538.978 26.065C539.529 26.849 541.421 29.03 543.182 30.9117C544.943 32.7934 546.811 34.9676 547.335 35.7431C548.516 37.4925 548.52 37.0095 547.364 31.4004ZM566.345 43.4563C564.86 40.0065 562.066 34.7464 560.138 31.767C558.209 28.7877 554.591 24.2301 552.098 21.6385L547.566 16.9274L547.868 22.7789C548.271 30.5599 550.455 42.118 555.38 62.5313C557.133 69.7969 559.159 76.3862 561.253 81.6332C563.012 86.0386 564.882 91.0011 565.411 92.6616L566.372 95.6803L568.477 92.141C570.457 88.8121 570.531 88.5219 569.705 87.2657C569.223 86.5307 567.593 84.9689 566.084 83.7949C562.1 80.6952 561.234 79.3193 560.969 75.6717C560.766 72.8635 560.921 72.2653 562.268 70.6682L563.797 68.8544L560.878 64.4233C559.271 61.9862 557.559 58.6306 557.073 56.9661C556.265 54.2035 556.271 53.5654 557.144 49.6475C557.671 47.2869 557.955 44.7723 557.775 44.0595C557.596 43.3468 556.294 41.7006 554.881 40.4017C553.468 39.1022 552.484 38.0393 552.693 38.0393C553.327 38.0393 556.851 40.5744 556.855 41.0329C556.857 41.2684 557.11 41.4605 557.416 41.4605C558.441 41.4605 556.871 38.4652 554.503 35.9016C552.238 33.4497 550.034 29.4537 550.02 27.7756C550.016 27.3052 550.622 28.2032 551.367 29.7713C552.112 31.3394 553.803 33.6487 555.123 34.9032C557.776 37.4229 559.145 39.6473 559.145 41.44C559.145 42.0878 560.269 43.9951 561.644 45.6795C563.442 47.8822 564.582 50.1151 565.705 53.635C567.397 58.9368 568.523 60.6405 568.648 58.0906C569.076 49.4309 569.168 50.013 566.345 43.4563ZM533.394 25.7799C533.648 25.1526 534.042 23.2921 534.268 21.6459C534.494 19.9997 534.592 18.6563 534.484 18.6614C534.376 18.6666 533.456 19.3719 532.439 20.2295C531.423 21.0871 530.036 22.187 529.356 22.6745C528.405 23.3559 527.955 24.6075 527.407 28.0915L526.694 32.6223L528.903 35.0161C530.119 36.3327 531.271 37.1555 531.464 36.8441C531.657 36.5322 532.012 33.5307 532.254 30.1733C532.495 26.8159 532.746 24.7107 532.812 25.4948C532.921 26.8045 532.969 26.8279 533.394 25.7799ZM568.673 37.4184C569.415 32.7164 569.069 31.0092 566.236 25.3944C565.18 23.3012 564.091 21.4492 563.816 21.2798C563.541 21.1105 563.4 22.1819 563.502 23.661C563.604 25.1401 563.785 28.1576 563.903 30.3672C564.054 33.18 564.595 35.4449 565.709 37.9224C566.585 39.8685 567.466 41.4605 567.668 41.4605C567.869 41.4605 568.322 39.6416 568.673 37.4184ZM651.964 35.8223C652.42 35.0868 650.045 31.9609 644.892 26.5126C641.839 23.2852 640.861 22.6255 640.861 23.795C640.861 24.1143 639.209 26.0239 637.189 28.039L633.518 31.702L634.326 34.7281C634.77 36.3925 635.136 38.3312 635.139 39.0372C635.152 41.3813 635.977 40.3218 638.819 34.3113C640.367 31.0366 641.73 28.453 641.847 28.5699C641.964 28.6868 640.917 31.3143 639.519 34.4088C638.122 37.5033 637.063 40.1245 637.167 40.234C637.419 40.5009 644.641 35.4386 647.147 33.2382L649.147 31.4819L647.147 33.6841C646.047 34.8952 643.381 37.3037 641.223 39.0355C635.643 43.5144 634.851 45.4782 635.75 52.6052C636.124 55.5703 636.522 57.9965 636.634 57.9965C637.197 57.9965 639.41 52.7415 640.112 49.7382C641.12 45.4292 642.888 42.439 646.359 39.1797L649.091 36.6138L647.041 38.9659C643.818 42.6659 642.11 46.0119 641.172 50.4618C640.695 52.7255 639.505 56.1587 638.527 58.0906C636.862 61.3835 636.781 61.8283 637.234 65.1879L637.718 68.7723L641.39 64.1553C647.498 56.4758 648.619 53.6595 650.608 40.9958C651.651 34.3484 651.829 36.6258 650.891 44.6263C650.419 48.6503 650.098 52.0082 650.178 52.088C650.258 52.1679 651.691 49.8072 653.363 46.8421L656.403 41.4514L654.574 38.6072C653.563 37.0363 652.475 35.929 652.143 36.1337C651.783 36.3555 651.712 36.2306 651.964 35.8223ZM525.889 31.9147L526.567 28.6594C526.939 26.869 527.139 25.3003 527.012 25.1732C526.884 25.046 525.907 25.8398 524.841 26.938L522.902 28.9343L525.889 31.9147ZM606.294 44.0265C606.519 42.1448 607.727 37.8551 608.978 34.4938C610.23 31.1324 611.165 28.1816 611.057 27.9364C610.949 27.6912 608.711 29.7137 606.086 32.4313C600.666 38.0393 600.743 37.5427 604.256 44.3116L605.883 47.4477L606.294 44.0265ZM540.967 42.4595C539.281 40.9114 537.277 38.2868 536.286 36.3275C535.333 34.4441 534.353 31.9415 534.109 30.7669C533.313 26.9499 532.741 30.2777 532.565 39.7499C532.387 49.3374 532.164 51.722 530.738 59.2418C529.683 64.8008 529.651 64.7038 533.559 67.7921L535.797 69.5614L535.376 67.3427C535.143 66.1225 534.898 62.6864 534.832 59.7071C534.765 56.7278 534.57 50.9545 534.398 46.8775C534.111 40.0869 534.126 39.9193 534.582 44.8818C534.855 47.8611 535.429 52.0949 535.857 54.2902C536.612 58.1653 536.709 58.3209 539.175 59.629C540.572 60.3697 542.954 61.7165 544.468 62.6226C545.981 63.5281 547.431 64.2688 547.688 64.2688C548.479 64.2688 548.994 58.1733 548.311 56.9C547.968 56.2619 546.131 54.6842 544.228 53.3944C541.088 51.2669 537.421 46.8416 537.435 45.1977C537.438 44.8669 538.096 45.6875 538.897 47.0212C540.401 49.5255 548.859 55.7391 548.859 54.3398C548.859 53.9537 548.466 52.4866 547.985 51.0793C547.079 48.4244 545.942 47.0292 540.967 42.4595ZM524.682 43.9329L525.02 37.9925C525.343 32.3469 525.295 31.9866 524.058 30.7315L522.757 29.4109L520.906 31.5144C519.448 33.172 519.133 33.9355 519.424 35.1158C519.839 36.7974 521.914 40.5225 523.58 42.5759L524.682 43.9329ZM632.991 37.7542C632.975 37.4406 632.807 36.2221 632.618 35.0457C632.43 33.87 632.022 32.9074 631.712 32.9074C630.939 32.9074 626.667 36.8151 625.845 38.2754C625.18 39.4563 624.313 47.7573 624.86 47.7066C625.398 47.6564 633.022 38.3255 632.991 37.7542ZM529.866 57.7114C531.346 49.9948 531.918 42.6745 531.222 40.3566C530.854 39.1278 529.677 37.0774 528.607 35.8001L526.663 33.4782L526.277 35.2316C525.471 38.8952 525.846 44.5168 527.072 47.1626C527.911 48.9713 528.282 50.991 528.331 54.0051C528.37 56.3572 528.583 58.9231 528.806 59.7071C529.142 60.8931 529.321 60.5573 529.866 57.7114ZM518.769 43.73C518.975 41.7627 519.14 39.2282 519.135 38.098C519.118 34.1596 518.344 34.4088 515.435 39.2886L512.65 43.9597L513.621 47.6997C514.823 52.3224 518.018 58.8718 522.54 65.9794C524.436 68.9587 526.232 71.7812 526.532 72.2516C526.924 72.8669 527.086 72.36 527.11 70.4452C527.129 68.9809 527.283 67.4209 527.454 66.9778C527.654 66.4561 526.352 65.1246 523.758 63.1996C518.362 59.1962 518.027 58.3882 523.235 61.9412C527.407 64.7871 527.431 64.7951 527.613 63.373C527.9 61.1281 525.63 57.1646 522.795 54.9601C520.92 53.5033 519.659 51.8103 518.23 48.835C517.144 46.5736 516.371 44.6081 516.512 44.4672C516.653 44.3258 517.135 44.9074 517.581 45.7587C518.38 47.2795 518.401 47.2436 518.769 43.73ZM589.989 56.746C589.97 53.5848 589.293 50.5319 587.009 43.3137C585.991 40.0995 585.01 37.4691 584.828 37.4691C584.646 37.4691 584.064 38.8387 583.535 40.5129C582.401 44.1046 582.177 56.7284 583.213 58.7469C583.939 60.1627 587.749 64.2688 588.336 64.2688C588.946 64.2688 590.004 59.4539 589.989 56.746ZM527.061 53.1144C526.884 49.9994 526.489 48.5824 525.237 46.5815C524.358 45.176 522.78 42.6671 521.731 41.0049L519.823 37.984L519.415 42.8615C518.902 49.0083 519.402 50.2765 523.858 54.1282L527.286 57.0922L527.061 53.1144ZM624.82 57.1452C625.707 54.3335 628.414 51.0594 631.896 48.5881C633.459 47.4785 633.498 47.324 633.325 42.886C633.226 40.3771 632.977 38.735 632.769 39.2367C632.561 39.7385 630.054 43.247 627.197 47.0332C624.34 50.8199 622.003 54.4635 622.003 55.1301C622.003 55.7972 622.435 57.1634 622.963 58.1676L623.923 59.9922L624.82 57.1452ZM605.846 54.8604C605.639 52.0031 604.909 49.282 603.277 45.2826C602.023 42.2104 600.856 39.556 600.684 39.385C600.513 39.2139 599.948 39.8942 599.428 40.8966C598.732 42.2394 598.576 43.4927 598.835 45.6538C599.53 51.4351 600.27 53.176 603.267 56.0766L606.134 58.8518L605.846 54.8604ZM620.833 52.051C622.935 48.8322 623.41 47.5937 623.612 44.8139C623.745 42.9699 623.759 41.4605 623.643 41.4605C623.526 41.4605 622.081 43.1683 620.431 45.2558C617.377 49.1213 617.193 49.7308 617.897 53.6869L618.297 55.9346L620.833 52.051ZM660.152 48.7917L658.511 45.4109C657.608 43.5521 656.803 42.0456 656.723 42.0632C656.587 42.0935 649.967 55.2692 649.521 56.3954C649.272 57.0277 656.65 51.9905 658.649 50.1642L660.152 48.7917ZM615.088 50.0136C615.734 49.2296 616.244 47.9466 616.219 47.1626C616.194 46.3786 615.996 45.0956 615.777 44.3116C615.426 43.0565 615.331 43.0115 614.976 43.9324C614.754 44.5077 614.424 46.4322 614.243 48.2089L613.913 51.4391L615.088 50.0136ZM580.761 57.9914C580.973 57.9885 581.226 54.9094 581.325 51.1489C581.425 47.3884 581.425 44.319 581.325 44.3281C580.706 44.3851 576.288 51.2242 576.288 52.1262C576.288 53.1822 579.963 58.0016 580.761 57.9914ZM602.65 57.7376C601.131 56.1348 599.559 53.8306 599.158 52.6172C598.756 51.4032 598.247 49.1024 598.025 47.5036C597.641 44.7415 597.59 44.6714 596.996 46.094C595.762 49.0483 595.252 52.1125 594.917 58.5667C594.453 67.5412 595.987 73.5306 599.956 78.2388L601.398 79.9494L600.908 72.5367L601.631 76.5595C602.028 78.7719 602.779 81.1885 603.299 81.9292L604.244 83.276L604.809 81.794C605.258 80.6154 604.979 79.1078 603.447 74.4287C599.833 63.3884 598.267 58.0917 598.693 58.3552C598.928 58.5 600.134 61.7496 601.374 65.5774C602.614 69.4052 604.27 74.0763 605.054 75.958L606.481 79.3792L607.713 76.5282C609.094 73.3322 609.061 72.872 606.931 65.7388C605.643 61.4274 604.99 60.2072 602.65 57.7376ZM563.791 52.6822C563.416 51.1706 562.44 48.9257 561.622 47.6929C559.899 45.0945 559.145 44.8561 559.145 46.91C559.145 47.7123 558.867 49.4685 558.527 50.8136C557.727 53.9857 558.517 56.9844 561.119 60.652C562.197 62.171 563.77 64.6964 564.615 66.2645C565.461 67.8325 566.954 70.2365 567.935 71.6062L569.716 74.0974L570.077 72.4615C570.969 68.4187 570.62 66.3187 568.544 63.2424C566.196 59.763 564.756 56.563 563.791 52.6822ZM512.478 54.0051C512.626 54.0051 512.385 52.807 511.943 51.3422C511.501 49.8779 511.061 48.6012 510.965 48.5054C510.87 48.4096 510.461 49.2427 510.058 50.3557C509.654 51.4688 509.412 52.4541 509.52 52.5448C509.892 52.8601 512.213 54.0051 512.478 54.0051ZM634.379 73.0722C635.357 69.8402 635.301 65.5911 634.167 56.9986C633.619 52.843 633.009 49.4434 632.81 49.4434C632.611 49.4434 631.281 50.5342 629.855 51.8668C628.178 53.4349 627.042 55.0953 626.636 56.571C625.79 59.6501 625.874 64.2477 626.807 65.9275L627.569 67.3005L628.244 65.2604C628.615 64.1376 629.291 62.9111 629.747 62.5336C630.455 61.9475 630.451 62.1453 629.718 63.8953C628.307 67.2652 628.621 68.9513 631.28 72.2847L633.701 75.3176L634.379 73.0722ZM658.718 55.8354C659.897 53.5443 660.861 51.2971 660.861 50.8416C660.861 50.3865 660.668 50.0165 660.433 50.0193C660.03 50.025 651.013 56.7614 649.837 57.9349C649.498 58.273 649.66 60.1023 650.273 62.8541C650.811 65.2626 651.113 67.7858 650.947 68.4598C650.437 70.5211 653.887 66.0923 655.319 62.8472C656.01 61.2814 657.54 58.1259 658.718 55.8354ZM615.494 60.218C616.444 58.4076 616.816 56.7221 616.834 54.1476C616.849 52.1878 616.667 50.5872 616.432 50.5907C616.196 50.5947 615.424 51.4893 614.717 52.5784C613.413 54.5872 613.021 58.4019 613.814 61.3584C614.157 62.6403 614.262 62.5695 615.494 60.218ZM661.361 63.1563C663.001 58.4698 663.106 57.769 662.517 55.4334C662.16 54.0205 661.706 52.8664 661.507 52.8692C660.943 52.876 658.89 56.7261 656.898 61.5147C655.897 63.9198 654.034 67.3752 652.757 69.1936C650.682 72.1501 648.861 76.0281 648.861 77.4918C648.861 78.167 656.983 71.5759 658.46 69.7028C659.063 68.937 660.369 65.9914 661.361 63.1563ZM513.26 56.2597C512.881 55.775 511.936 54.9408 511.159 54.4065C510.382 53.8722 509.574 53.4349 509.363 53.4349C507.45 53.4349 506.815 68.6263 508.703 69.2541C509.005 69.3544 511 70.5821 513.135 71.9814L517.017 74.5256L516.687 71.3342C516.301 67.6005 515.557 66.6157 510.858 63.6164C506.719 60.9752 507.087 60.7974 511.789 63.1654C513.698 64.1268 515.349 64.8241 515.459 64.7147C515.827 64.3475 513.955 57.152 513.26 56.2597ZM587.145 67.0137C587.145 66.6716 586.069 65.2085 584.754 63.7624C576.651 54.849 575.207 53.4828 574.912 54.455C572.779 61.4793 572.847 66.7617 575.144 72.5425C577.108 77.4867 579.131 81.3749 579.738 81.3749C579.947 81.3749 580.291 78.935 580.501 75.9528C580.811 71.56 580.71 70.1966 579.972 68.7723C579.471 67.8052 579.179 66.8957 579.323 66.7514C579.657 66.4196 582.002 70.171 582.002 71.036C582.002 71.3912 582.22 71.6814 582.486 71.6814C583.205 71.6814 587.145 67.7339 587.145 67.0137ZM591.169 68.2602C591.401 68.2602 592.022 66.6568 592.55 64.6964C593.085 62.7132 593.43 59.7419 593.328 57.9965L593.145 54.8604L592.167 57.4263C590.193 62.606 589.56 65.6304 590.169 66.9772C590.488 67.6832 590.938 68.2602 591.169 68.2602ZM623.717 63.6564C623.717 63.1289 623.293 61.704 622.775 60.4894C622.256 59.2749 621.665 57.5118 621.461 56.571L621.089 54.8604L619.499 57.5557C617.974 60.141 617.934 60.4068 618.501 64.0384C618.825 66.1214 619.236 67.97 619.413 68.1467C619.929 68.6616 623.717 64.7101 623.717 63.6564ZM546.294 73.237C547.211 64.9119 547.427 65.5021 542.515 62.8809C540.126 61.6059 537.747 60.21 537.229 59.7801C536.375 59.0708 536.287 59.2612 536.287 61.8146C536.287 67.2618 537.596 70.0643 541.927 73.8961L545.84 77.3578L546.294 73.237ZM643.558 83.1916C648.492 76.2402 650.41 69.688 649.379 63.312C649.008 61.0157 648.547 59.1398 648.354 59.1432C647.881 59.1517 640.799 68.0458 639.026 70.8569C637.203 73.7473 636.457 76.2043 636.001 80.8047L635.634 84.5111L637.106 82.8004C637.916 81.8596 639.473 79.2937 640.567 77.0984C641.661 74.9031 642.56 73.4993 642.565 73.9782C642.581 75.3838 638.882 82.6032 636.877 85.0813C635.042 87.3484 635.034 87.3895 635.425 91.9123C635.642 94.4155 636.16 97.1098 636.577 97.8995L637.334 99.3364L637.636 97.9109C639.513 89.0545 639.662 88.6827 643.558 83.1916ZM665.552 67.9751L664.843 64.2688C664.454 62.2303 663.954 60.3594 663.732 60.1114C663.51 59.8639 662.863 61.4035 662.294 63.5326C661.724 65.6624 660.651 68.7916 659.91 70.4863C659.167 72.1809 658.65 73.6566 658.76 73.7661C658.869 73.8756 660.442 72.6172 662.255 70.9698L665.552 67.9751ZM532.61 88.6553C533.113 88.1535 530.27 81.6851 528.277 78.7948C527.264 77.3265 524.41 72.6297 521.933 68.3571C519.456 64.0846 517.429 60.912 517.429 61.3065C517.429 62.6574 518.982 65.7325 521.563 69.4936C523.46 72.2596 524.491 74.5923 525.46 78.3124C526.634 82.8227 527.076 83.6734 529.539 86.1675C531.058 87.7054 532.44 88.8252 532.61 88.6553ZM615.033 71.1688C616.309 70.5188 617.47 69.7912 617.613 69.5512C617.755 69.3117 617.688 67.4477 617.465 65.4092L617.057 61.7028L615.276 65.4702C614.296 67.5417 613.318 69.9377 613.103 70.7936L612.711 72.3503L615.033 71.1688ZM625.161 67.2372C624.996 66.8079 624.86 66.2206 624.86 65.9326C624.86 65.6447 624.667 65.4474 624.432 65.4941C623.648 65.6504 619.509 69.9531 619.833 70.2759C620.459 70.9008 625.471 68.0429 625.161 67.2372ZM598.971 78.346C597.877 76.9153 596.59 74.6385 596.111 73.286C595.632 71.9329 595.026 69.688 594.764 68.2973L594.288 65.7684L593.048 69.7228C590.97 76.3503 590.924 77.0562 592.393 79.6244C593.996 82.4235 594.556 82.541 594.629 80.092C594.686 78.1635 595.839 83.4704 596.616 89.2438L597.024 92.2653L598.652 88.4141C601.252 82.2644 601.281 81.3647 598.971 78.346ZM542.712 78.1647C541.535 77.3116 539.146 75.1836 537.401 73.4348C535.657 71.6866 533.038 69.4177 531.581 68.3936L528.931 66.5308L528.57 68.9638C528.057 72.4142 528.909 75.4248 531.545 79.4813C532.869 81.5186 534.893 86.086 536.346 90.3135C537.728 94.334 540.53 100.96 542.573 105.037C545.997 111.874 546.455 112.513 548.443 113.246C549.628 113.683 550.711 113.93 550.847 113.793C550.984 113.657 550.726 111.118 550.274 108.151C549.821 105.185 549.446 101.34 549.44 99.6067L549.43 96.4557L544.716 93.5842C540.583 91.0667 539.774 90.2946 538.16 87.3267C536.195 83.7122 535.562 81.0362 537.373 84.0007C538.776 86.2969 541.527 87.9602 545.726 89.0516C547.581 89.5334 549.268 89.928 549.476 89.928C549.683 89.928 548.727 87.6301 547.352 84.8218C545.544 81.1326 544.257 79.2857 542.712 78.1647ZM555.124 75.1796C555.983 71.9968 555.61 71.0679 552.612 68.9199C550.02 67.0628 549.44 66.813 549.416 67.5474C549.409 67.7829 549.177 68.9462 548.901 70.1328C548.439 72.1159 548.572 72.5082 550.539 74.9915C553.416 78.6243 553.694 79.2338 554.867 84.5111C556.209 90.5461 556.683 88.9512 555.442 82.5763C554.659 78.5541 554.598 77.1286 555.124 75.1796ZM523.166 85.3664C523.937 82.8432 523.743 79.7094 522.606 76.3417C521.996 74.5342 520.855 71.9283 520.07 70.5501L518.644 68.0452L518.928 72.5715C519.097 75.2498 519.765 78.6117 520.565 80.8047C521.309 82.8432 522.1 85.0242 522.324 85.6515C522.703 86.7178 522.758 86.6989 523.166 85.3664ZM588.288 77.9537C588.906 75.6016 589.416 72.6017 589.421 71.2874C589.426 69.9731 589.218 68.766 588.957 68.6052C588.696 68.4444 587.116 69.6943 585.445 71.3821L582.407 74.4515L581.843 83.2155L585.145 81.0938L583.559 83.0057C581.878 85.0328 581.851 85.7912 583.258 91.3478L583.834 93.6224L585.149 91.9768C586.595 90.1669 587.14 88.1592 587.155 84.5823C587.161 83.2885 587.67 80.3058 588.288 77.9537ZM626.201 76.9074C627.952 73.014 628.059 71.8514 626.828 70.098C625.764 68.5812 625.784 68.5812 622.715 70.1196C619.913 71.5241 619.917 71.7481 622.839 76.9786L624.684 80.2796L626.201 76.9074ZM666.533 79.9494C666.497 75.5788 665.741 68.5128 665.495 70.2559C665.443 70.6266 665.268 70.6214 664.995 70.2411C664.353 69.3459 651.572 82.285 649.492 85.9366C647.865 88.7927 645.169 96.1279 645.591 96.5487C645.688 96.645 647.556 94.6254 649.742 92.0612C654.06 86.9977 660.086 78.3027 662.304 73.9343C663.865 70.8615 665.239 69.5426 664.579 71.7527C663.915 73.9708 658.606 83.6335 655.595 88.1005C654.053 90.3882 651.2 94.0734 649.255 96.2898C643.284 103.092 641.006 106.304 639.993 109.348C638.707 113.209 639.554 114.106 641.736 111.194C642.628 110.004 646.103 106.336 649.458 103.043C656.294 96.3331 658.404 93.0584 660.297 86.2217C660.992 83.7128 661.934 81.0185 662.39 80.2345C662.846 79.4505 663.074 79.2817 662.895 79.8599C662.717 80.4375 662.422 81.5922 662.242 82.4258C661.926 83.8798 661.963 83.8662 663.157 82.0877C664.95 79.418 665.161 79.8069 663.475 82.6767C661.963 85.2512 660.133 89.928 660.638 89.928C660.801 89.928 662.204 88.8372 663.755 87.5046L666.575 85.0813L666.533 79.9494ZM610.489 77.8847C611.849 77.4274 618.534 71.9306 618.553 71.2538C618.581 70.3101 618.201 70.4082 615.034 72.1655C613.361 73.0938 611.88 74.4908 611.099 75.8776C610.41 77.1001 610.136 78.0033 610.489 77.8847ZM517.399 81.071C519.403 82.3072 516.691 77.9007 513.824 75.264C512.422 73.9742 510.538 72.5516 509.637 72.1028L508.001 71.2869L506.169 75.0479C503.722 80.0709 504.115 80.4871 511.418 80.6097C514.377 80.6593 517.068 80.8669 517.399 81.071ZM570.255 82.7115C569.185 77.9896 568.687 76.6878 566.994 74.1926C565.977 72.693 564.82 71.3638 564.422 71.2384C563.508 70.9504 561.9 74.6887 562.345 76.0686C563.178 78.6528 564.11 79.7749 567.253 81.9748L570.622 84.3326L570.255 82.7115ZM580.628 92.7363C580.055 87.516 579.319 85.0961 577.316 81.8482C576.35 80.2796 574.831 77.1583 573.943 74.9111L572.327 70.8261L572.205 73.9623C572.013 78.8774 572.256 80.6439 573.787 85.4798C574.924 89.0744 575.807 90.6459 578.123 93.197L581.03 96.3999L580.628 92.7363ZM652.556 79.0992C654.502 77.0579 656.669 74.5541 657.373 73.5346C658.077 72.5151 658.53 71.6814 658.378 71.6814C658.227 71.6814 655.168 74.5684 651.582 78.0962C646.948 82.6556 644.554 85.5009 643.309 87.9323C641.634 91.2024 639.718 98.103 639.718 100.865C639.718 102.976 642.379 98.6276 644.251 93.457C646.752 86.5478 648.751 83.0924 652.556 79.0992ZM622.078 84.121C622.597 81.7091 622.487 81.0739 620.944 77.5779C620.004 75.4488 619.02 73.635 618.757 73.5477C618.1 73.3293 607.717 83.2902 607.717 84.1376C607.717 85.1594 610.398 89.2523 613.337 92.718L615.945 95.7926L617.594 93.8584C619.123 92.0646 619.219 91.6785 618.908 88.5515C618.723 86.6967 617.928 83.7458 617.14 81.9942C615.956 79.3615 615.904 79.0565 616.836 80.2345C618.14 81.8836 618.828 83.4921 619.759 87.077C620.393 89.5163 620.453 89.5722 620.965 88.2174C621.261 87.4334 621.762 85.5899 622.078 84.121ZM631.3 86.0398C632.963 83.2994 632.903 78.9014 631.161 75.8154C629.714 73.2512 628.86 72.7289 628.86 74.4059C628.86 74.9635 627.95 77.3168 626.836 79.6347C624.261 84.9974 623.863 87.7846 625.131 91.5924L626.109 94.5319L628.13 91.2321C629.242 89.4171 630.668 87.081 631.3 86.0398ZM553.383 83.398C553.043 81.5277 552.414 79.3456 551.985 78.5478C551.556 77.7507 550.558 76.3286 549.767 75.3878L548.328 73.6772L548.308 75.7259C548.271 79.3838 551.831 87.8941 554.228 89.879C554.985 90.5062 555.025 90.3591 554.547 88.6964C554.247 87.6523 553.723 85.2677 553.383 83.398ZM564.751 100.271C564.849 99.3073 564.286 96.1364 563.501 93.2255C562.715 90.314 560.799 84.7249 559.242 80.8047C556.43 73.7222 556.41 73.6908 555.991 75.8628C555.728 77.2312 555.904 79.682 556.462 82.4201C556.952 84.8247 557.513 88.2031 557.707 89.928C558.313 95.2999 559.165 97.2614 561.962 99.7247L564.573 102.024L564.751 100.271ZM594.607 93.2284C595.073 91.4989 595.087 89.9925 594.655 87.8445C594.324 86.204 593.311 83.3957 592.404 81.6047C590.897 78.6311 590.718 78.4675 590.354 79.7191C590.134 80.4729 589.737 83.2709 589.47 85.9366C588.941 91.2378 589.431 93.0556 591.841 94.74C593.669 96.0178 593.886 95.8992 594.607 93.2284ZM511.309 81.9742C507.585 81.7034 505.733 81.3094 504.978 80.628C503.59 79.3746 503.637 79.3575 502.161 81.6321L500.894 83.585L506.447 88.2482C513.147 93.8738 515.456 96.3257 516.89 99.3364C517.487 100.591 517.981 101.447 517.988 101.24C517.995 101.032 518.387 98.8512 518.858 96.393C520.235 89.2124 519.709 83.6922 517.561 82.7782C517.017 82.5467 514.204 82.1846 511.309 81.9742ZM600.601 95.6301C603.025 87.6381 603.385 85.8254 602.916 83.9619C602.5 82.3066 601.431 82.0033 601.431 83.54C601.431 84.6279 597.604 96.1803 596.062 99.7458C594.98 102.247 594.937 106.515 595.965 109.315L596.697 111.311L597.655 106.749C598.181 104.24 599.507 99.2366 600.601 95.6301ZM517.429 104.522C517.429 103.677 514.918 98.6795 513.676 97.0556C512.859 95.9864 509.534 92.6576 506.289 89.6583L500.386 84.2043L497.988 87.2463L503.851 93.2848C507.077 96.6057 510.358 99.8656 511.144 100.528C512.834 101.954 517.429 104.874 517.429 104.522ZM536.241 97.8208C535.598 96.5641 533.314 93.8094 531.165 91.6979C529.015 89.587 526.75 87.0285 526.131 86.0124L525.005 84.1655L523.138 90.8934C521.995 95.0108 521.161 99.5257 520.989 102.527L520.709 107.433L522.927 109.069C524.146 109.968 526.558 111.886 528.287 113.33C530.015 114.775 533.744 117.57 536.573 119.542C539.401 121.513 542.967 124.317 544.497 125.772L547.279 128.417L546.902 126.136C546.694 124.882 546.089 122.611 545.558 121.09C544.388 117.743 542.661 116.709 536.001 115.375C531.869 114.547 531.223 114.231 529.277 112.087C528.093 110.783 527.234 109.605 527.37 109.47C527.506 109.334 528.474 110.154 529.523 111.291C531.234 113.146 531.927 113.444 536.287 114.197C538.958 114.658 541.599 115.179 542.155 115.353C543.116 115.655 543.118 115.571 542.194 113.638C541.405 111.988 540.256 111.107 536.097 108.963C530.058 105.85 526.771 102.782 524.623 98.2502C522.644 94.0768 522.94 93.5733 525.031 97.5568C525.896 99.2058 527.69 101.601 529.017 102.879C531.551 105.32 540.287 110.256 540.287 109.247C540.287 108.204 537.443 100.172 536.241 97.8208ZM661.52 95.069C665.467 91.9979 665.873 91.4909 666.173 89.2592C666.354 87.914 666.44 86.7514 666.364 86.675C666.287 86.5992 664.789 88.0053 663.035 89.8003C660.041 92.8646 656.524 97.7644 656.987 98.2262C657.102 98.3408 659.141 96.9199 661.52 95.069ZM547.771 91.0388C545.721 90.407 542.91 89.2575 541.523 88.4837C538.36 86.7195 538.036 86.7189 539.694 88.4791C540.42 89.2506 542.972 90.911 545.365 92.1689C547.758 93.4262 551.119 95.268 552.833 96.2613L555.95 98.0677L554.901 96.4209C552.872 93.2403 551.463 92.1769 547.771 91.0388ZM610.974 95.0832C611.147 94.4218 610.409 92.7899 609.058 90.8483C607.849 89.1115 606.677 87.6808 606.454 87.6689C606.23 87.6569 605.775 88.738 605.442 90.0706C605.11 91.4031 604.176 94.1601 603.367 96.1968C602.559 98.2336 601.688 101.186 601.431 102.758C600.963 105.626 601.232 108.745 601.947 108.745C602.476 108.745 610.626 96.4107 610.974 95.0832ZM499.981 92.0703C499.769 91.3626 499.231 90.2063 498.785 89.5004C498.339 88.7944 497.785 88.2174 497.553 88.2174C497.102 88.2174 495.513 90.5244 495.818 90.736C495.918 90.8056 496.983 91.4237 498.183 92.1102L500.366 93.3578L499.981 92.0703ZM630.757 112.112C636.918 108.89 637.747 106.77 635.307 100.477C634.822 99.2224 634.265 96.0657 634.071 93.4616L633.718 88.7272L632.161 91.1289C631.305 92.4506 629.505 95.7356 628.161 98.4298C625.896 102.969 625.717 103.662 625.717 107.889C625.717 114.75 625.715 114.748 630.757 112.112ZM573.62 96.1381L572.639 93.0334C572.099 91.3256 571.568 89.928 571.458 89.928C571.135 89.928 568.89 93.883 567.981 96.052C567.104 98.147 566.924 100.737 567.505 102.9C567.99 104.705 568.7 104.494 569.159 102.409C569.374 101.432 570.465 99.6221 571.585 98.3859L573.62 96.1381ZM512.439 103.222C509.38 100.768 506.359 97.8966 505.725 96.8412C505.091 95.7857 503.606 93.8624 502.426 92.5675L500.28 90.2131L501.139 92.3303C502.812 96.4535 506.358 101.137 512.144 106.865L518.001 112.665V110.174C518.001 107.709 517.943 107.636 512.439 103.222ZM623.888 100.049C624.827 96.7482 624.836 96.2647 624.002 93.4918C623.507 91.8456 622.99 90.4982 622.853 90.4982C622.716 90.4982 622.173 91.3319 621.647 92.3514C621.121 93.3709 620.069 95.0211 619.308 96.0195L617.926 97.8345L620.107 100.691C621.307 102.263 622.421 103.563 622.581 103.58C622.743 103.598 623.331 102.01 623.888 100.049ZM502.905 98.5917C501.307 96.1815 499.127 93.6309 498.059 92.9239C495.574 91.2788 494.816 91.3062 493.649 93.0847C492.716 94.5056 492.737 94.5627 494.922 96.4249C499.785 100.573 511.116 108.745 512.003 108.745C512.721 108.745 511.532 107.486 508.713 105.263C507.114 104.002 504.505 101.005 502.905 98.5917ZM592.524 99.7629C593.311 97.5368 593.295 97.461 591.882 96.706C591.085 96.2801 589.863 95.0958 589.166 94.0734L587.901 92.2145L586.309 95.3541C584.849 98.2325 584.738 98.8979 584.972 103.35C585.214 107.937 585.425 108.6 588.809 115.381C591.038 119.847 592.592 122.354 592.925 122.022C594.143 120.808 594.142 115.87 592.924 111.541C591.517 106.536 591.395 102.955 592.524 99.7629ZM579.481 101.327C579.877 100.232 580.218 99.0798 580.239 98.7662C580.26 98.4526 579.379 97.0693 578.282 95.6922C577.186 94.3152 576.288 93.4342 576.288 93.7347C576.288 95.1756 577.611 101.172 578.151 102.179C578.715 103.232 578.815 103.168 579.481 101.327ZM664.57 99.4385C664.725 98.7548 665.084 97.1052 665.367 95.7726C665.964 92.9695 665.603 92.7693 663.675 94.8312C662.913 95.646 660.697 97.5819 658.749 99.1323C655.492 101.726 653.993 103.792 654.791 104.589C654.967 104.764 655.754 104.488 656.539 103.974C657.324 103.461 659.39 102.51 661.128 101.861C663.379 101.02 664.37 100.323 664.57 99.4385ZM493.946 97.9029C494.557 97.9092 494.502 97.6383 493.715 96.7705C492.506 95.4379 491.392 95.2999 490.958 96.4289C490.663 97.1953 492.061 97.8847 493.946 97.9029ZM609.189 101.434C612.122 99.792 613.578 98.131 613.181 96.88C612.522 94.8095 612.259 95.0257 609.233 100.123C608.125 101.988 608.123 102.029 609.189 101.434ZM576.652 108.887C576.495 108.339 575.931 105.837 575.398 103.328C574.047 96.9723 573.895 96.8224 572.107 100.1C569.948 104.059 570.096 105.397 572.962 107.845C575.559 110.064 577.112 110.502 576.652 108.887ZM557.006 101.765C556.518 101.219 555.019 100.128 553.673 99.3415C552.327 98.5547 551.047 97.9109 550.826 97.9109C550.351 97.9109 550.798 101.836 552.14 109.448C553.111 114.946 553.139 115.005 555.132 115.799C558.103 116.983 563.145 118.421 563.145 118.084C563.145 116.99 557.717 102.561 557.006 101.765ZM500.572 103.791C499.357 102.744 497.052 101.268 495.449 100.511C489.404 97.6571 487.881 98.0825 489.011 102.309C489.639 104.654 489.705 104.704 492.54 104.996C494.129 105.159 497.083 105.383 499.104 105.494L502.78 105.696L500.572 103.791ZM622.61 113.178C621.722 108.09 620.435 105.042 618.148 102.615C616.013 100.35 615.356 100.321 612.517 102.373C607.072 106.309 603.38 111.735 600.031 120.725C598.459 124.945 598.27 125.864 599.045 125.538C599.572 125.316 601.288 124.632 602.86 124.017C604.431 123.402 606.088 122.601 606.541 122.236C607.194 121.712 607.267 121.736 606.895 122.354C606.636 122.782 604.566 123.978 602.294 125.011C597.514 127.185 596.809 128.249 598.751 130.363C599.496 131.174 600.683 132.801 601.387 133.976C602.816 136.363 603.522 136.539 606.174 135.171C611.141 132.608 613.212 129.889 612.536 126.818C612.318 125.828 611.273 123.387 610.214 121.395C608.623 118.402 608.29 117.163 608.297 114.257C608.302 112.323 608.517 110.409 608.775 110.003C609.038 109.589 609.139 110.589 609.005 112.284C608.873 113.944 609.008 115.942 609.305 116.724C609.822 118.085 609.921 117.999 611.587 114.729C612.545 112.849 614.316 110.413 615.522 109.315L617.717 107.319L615.893 109.315C614.889 110.413 613.245 113.072 612.237 115.224L610.406 119.137L612.205 122.637C613.194 124.561 614.004 126.74 614.003 127.478C614.003 128.549 614.652 127.973 617.216 124.627C618.983 122.321 621.083 119.734 621.881 118.88C623.32 117.34 623.327 117.286 622.61 113.178ZM486.942 104.439C488.769 104.896 488.828 104.837 488.455 102.9C488.088 100.996 487.724 100.963 486.446 102.718C485.486 104.035 485.498 104.077 486.942 104.439ZM661.798 108.663L662.992 104.997C663.649 102.982 664.145 101.345 664.095 101.36C664.045 101.375 662.293 102.265 660.201 103.336C657.598 104.67 655.726 106.145 654.267 108.013C653.095 109.513 650.435 112.377 648.355 114.378L644.575 118.015L647.147 116.6C648.561 115.822 652.436 113.718 655.758 111.924L661.798 108.663ZM564.859 108.991C564.859 105.525 564.677 104.788 563.573 103.797C562.173 102.539 560.859 101.7 560.859 102.064C560.859 102.191 561.333 103.681 561.913 105.377C562.493 107.072 563.421 110.32 563.975 112.594C564.529 114.868 565.194 116.728 565.452 116.728C565.71 116.728 565.683 115.895 565.391 114.878C565.098 113.861 564.859 111.212 564.859 108.991ZM583.122 110.523C582.506 108.548 582.002 106.314 582.002 105.558C582.002 103.649 580.882 103.823 580.759 105.751C580.495 109.889 580.933 111.897 582.382 113.193C583.189 113.915 583.937 114.417 584.045 114.309C584.153 114.201 583.738 112.497 583.122 110.523ZM646.312 113.306C648.704 110.954 651.175 108.043 651.801 106.836C652.428 105.63 652.835 104.537 652.705 104.407C652.26 103.964 647.434 108.023 645.081 110.819C642.076 114.389 639.036 119.193 637.821 122.287C637.298 123.62 636.966 124.711 637.084 124.711C637.202 124.711 638.347 123.107 639.629 121.147C640.912 119.187 643.919 115.659 646.312 113.306ZM491.019 112.847L489.777 109.248C488.653 105.992 488.354 105.611 486.649 105.263C484.965 104.919 484.646 105.07 483.658 106.669C481.581 110.031 482.905 111.66 488.367 112.459L491.019 112.847ZM519.963 121.198C517.164 115.745 508.856 108.989 502.958 107.369C499.648 106.461 490 105.78 490 106.455C490 107.567 491.848 111.938 492.729 112.914C493.271 113.513 496.029 115.16 498.858 116.572C505.113 119.696 510.278 123.27 514.925 127.692C518.044 130.66 518.781 131.077 521.782 131.567C526.871 132.399 526.86 132.412 524.186 128.611C521.814 125.239 521.455 124.983 515.144 122.157C499.29 115.059 496.222 112.946 510.572 119.009C514.815 120.801 518.884 122.456 519.613 122.685L520.941 123.103L519.963 121.198ZM575.665 121.373C575.38 119.602 574.898 116.765 574.594 115.069C574.111 112.369 573.64 111.603 570.816 108.916L567.589 105.847L567.816 110.004C568.093 115.082 569.607 118.527 574.002 124.082C576.929 127.782 578.367 128.663 576.844 125.824C576.482 125.146 575.951 123.144 575.665 121.373ZM598.608 115.017C598.875 115.017 599.26 114.133 599.463 113.052C599.667 111.971 599.698 110.752 599.534 110.344C599.37 109.935 599.21 109.857 599.177 110.17C599.145 110.484 598.894 111.703 598.62 112.879C598.347 114.055 598.342 115.017 598.608 115.017ZM545.945 131.629C544.527 129.054 541.386 126.153 534.001 120.593C531.644 118.819 527.851 115.791 525.572 113.866L521.43 110.365V112.093C521.43 113.517 521.908 114.147 524.144 115.664C525.636 116.678 529.301 119.478 532.287 121.887C535.273 124.297 538.873 126.981 540.287 127.852C541.701 128.724 543.862 130.491 545.088 131.778L547.317 134.119L545.945 131.629ZM653.594 123.982C655.806 120.496 659.147 114.593 659.147 114.17C659.147 113.499 657.92 114.069 651.161 117.882C643.285 122.327 642.505 122.914 640.925 125.585L639.829 127.438L642.04 127.142C643.256 126.979 645.424 127.141 646.857 127.501C650.183 128.337 651.149 127.832 653.594 123.982ZM551.144 119.945C551.144 115.762 551.077 115.533 549.679 115.003C548.872 114.697 547.979 114.447 547.693 114.447C547.241 114.447 550.216 123.404 550.891 124.078C551.031 124.217 551.144 122.357 551.144 119.945ZM631.892 126.31C633.356 123.631 634.921 119.866 635.37 117.943C636.121 114.735 636.11 114.451 635.238 114.492C633.557 114.572 630.911 115.696 628.927 117.172L626.994 118.612L627.318 122.659C627.496 124.885 627.999 127.713 628.436 128.944L629.231 131.181L631.892 126.31ZM589.041 137.062C591.625 128.883 589.171 121.983 581.774 116.63C578.304 114.119 577.774 114.386 578.197 118.434C578.394 120.313 579.173 123.328 579.927 125.134C580.681 126.939 581.596 129.825 581.959 131.546C582.561 134.394 584.814 137.825 586.082 137.825C586.468 137.825 587.705 134.258 587.713 133.123C587.715 132.888 586.753 131.617 585.574 130.296L583.431 127.896L585.289 129.194C586.311 129.908 587.404 130.97 587.718 131.555C588.433 132.889 588.45 135.843 587.757 138.257C586.859 141.38 588.017 140.303 589.041 137.062ZM565.833 122.476C564.209 120.272 563.405 119.765 559.418 118.437C556.91 117.602 554.464 116.741 553.981 116.524C553.216 116.18 553.129 116.882 553.305 121.988C553.709 133.681 557.295 140.182 571.296 154.604L574.659 158.068L574.34 153.506C574.087 149.896 573.631 148.171 572.151 145.238C570.327 141.623 570.155 141.468 565.194 138.966C561.818 137.263 559.609 135.73 558.626 134.41L557.145 132.42L559.653 134.533C561.033 135.696 563.733 137.246 565.653 137.978L569.145 139.31L569.312 134.796C569.508 129.505 568.573 126.197 565.833 122.476ZM535.347 128.115C536.112 128.095 532.398 124.712 527.202 120.695C525.19 119.14 523.332 117.868 523.073 117.868C522.164 117.868 524.337 122.558 526.182 124.579C527.22 125.715 533.56 128.161 535.347 128.115ZM501.715 123.071L500.286 122.201C498.626 121.189 497.429 121.046 497.429 121.86C497.429 122.173 497.751 122.433 498.143 122.438C498.536 122.442 499.5 122.586 500.286 122.758L501.715 123.071ZM617.397 130.477C617.744 129.831 619.332 127.738 620.927 125.826C622.522 123.913 623.698 122.22 623.541 122.064C623.223 121.747 617.814 128.064 616.826 129.907C616.48 130.552 616.325 131.209 616.482 131.365C616.639 131.522 617.051 131.123 617.397 130.477ZM509.255 130.169C509.144 129.833 507.628 128.452 505.887 127.101C504.146 125.749 501.52 124.283 500.05 123.842C497.61 123.109 497.348 123.124 497.033 124.017C496.843 124.555 496.083 126.515 495.344 128.372C494.605 130.23 494 131.834 494 131.936C494 132.039 495.835 132.123 498.078 132.123C503.114 132.123 509.53 131.002 509.255 130.169ZM579.859 155.644C580.231 141.183 579.205 135.188 575.566 130.548C574.234 128.851 572.673 126.907 572.096 126.229L571.048 124.996L571.404 126.421C571.6 127.205 572.017 130.413 572.332 133.549C572.772 137.93 573.302 140.063 574.615 142.754C576.379 146.371 577.644 151.443 578.328 157.64C578.544 159.6 578.945 161.204 579.219 161.204C579.493 161.204 579.78 158.702 579.859 155.644ZM620.099 145.708C625.111 140.458 626.105 138.52 625.289 135.597C624.975 134.471 624.424 131.666 624.065 129.365L623.412 125.18L621.55 127.767C620.527 129.19 618.409 131.843 616.845 133.662C613.355 137.723 608.482 147.23 607.625 151.649C607.097 154.372 607.158 155.621 607.99 159.062C608.539 161.338 609.112 163.404 609.261 163.655C609.882 164.695 611.226 162.503 612.57 158.259C614.566 151.953 615.292 150.743 620.099 145.708ZM536.761 129.888C535.401 129.562 533.258 128.941 532.001 128.508C530.744 128.075 529.201 127.508 528.573 127.247C527.731 126.898 527.943 127.366 529.379 129.021C532.655 132.798 534.678 133.931 538.973 134.394C541.11 134.624 542.986 134.699 543.143 134.563C543.832 133.956 539.017 130.429 536.761 129.888ZM530.363 150.379C529.149 149.038 527.518 146.551 526.738 144.851C525.72 142.633 523.451 139.879 518.696 135.089C512.294 128.642 512.158 128.542 514.664 132.123C516.089 134.162 518.388 137.98 519.772 140.608C523.522 147.735 526.674 150.997 531.143 152.377C532.445 152.778 532.376 152.602 530.363 150.379ZM645.065 130.901C647.575 129.684 647.701 129.532 646.484 129.191C644.198 128.55 640.55 128.668 639.612 129.415C639.119 129.807 637.125 132.693 635.178 135.83L631.639 141.532L634.679 138.634C638.778 134.726 641.769 132.499 645.065 130.901ZM515.927 139.95C515.097 138.311 513.669 135.879 512.753 134.547C510.933 131.897 509.844 131.647 505.143 132.797C503.886 133.105 500.831 133.229 498.354 133.074L493.85 132.791L496.816 135.788C499.242 138.239 499.718 139.038 499.432 140.175C499.134 141.362 499.359 141.666 500.97 142.25C502.009 142.625 504.401 144.215 506.286 145.781C508.303 147.457 510.304 148.644 511.144 148.664C511.929 148.684 514.62 149.063 517.123 149.508C519.625 149.953 521.734 150.256 521.808 150.182C521.883 150.108 521.169 148.859 520.223 147.406C518.585 144.895 518.299 144.721 514.329 143.84C510.093 142.9 506.757 141.117 503.143 137.864C501.334 136.236 501.471 136.279 504.572 138.316C507.866 140.481 511.626 141.95 515.575 142.616L517.435 142.93L515.927 139.95ZM601.427 149.675C601.425 148.332 600.914 145.113 600.291 142.521C599.126 137.672 596.704 132.119 596.154 133.033C595.041 134.881 594.42 141.584 594.447 151.427C594.475 161.498 594.357 162.865 593.097 167.065C592.338 169.597 591.717 172.882 591.717 174.366C591.717 175.85 590.93 180.994 589.969 185.799C588.46 193.338 588.225 195.724 588.256 203.228C588.287 210.898 588.562 213.353 590.589 224.055C591.852 230.727 593.077 237.212 593.311 238.467C593.716 240.639 593.8 240.45 595.073 234.528C595.809 231.108 597.545 224.722 598.932 220.337C602.92 207.733 604.196 200.473 603.865 192.28C603.713 188.517 603.864 182.743 604.201 179.45C604.74 174.179 604.668 172.577 603.605 166.05C601.758 154.718 601.703 154.565 598.099 150.753L594.86 147.327L601.431 152.116L601.427 149.675ZM642.445 141.473C644.076 138.683 645.956 135.566 646.621 134.547C647.286 133.527 647.738 132.693 647.625 132.693C647.065 132.693 639.67 137.979 637.307 140.068C635.823 141.38 633.313 144.445 631.727 146.88C630.142 149.316 628.088 151.866 627.163 152.548C625.493 153.78 622.192 158.731 622.702 159.24C622.848 159.386 624.181 157.964 625.664 156.081C628.639 152.303 631.668 149.993 636.373 147.917C639.248 146.648 639.698 146.171 642.445 141.473ZM543.141 149.951C543.144 148.607 533.462 137.59 530.653 135.741C529.451 134.95 520.287 133.054 520.287 133.597C520.287 133.673 521.954 135.06 523.992 136.678C526.995 139.062 527.89 140.165 528.707 142.487C530.459 147.467 538.103 155.502 541.089 155.502C541.967 155.502 543.135 152.34 543.141 149.951ZM558.53 147.912C556.375 145.081 553.69 141.011 552.562 138.869C551.434 136.727 550.412 134.974 550.292 134.974C550.172 134.974 550.536 136.578 551.102 138.538C551.667 140.498 552.594 143.77 553.162 145.808C554.302 149.903 555.557 151.542 560.43 155.31C563.362 157.576 563.716 157.719 563.716 156.638C563.716 154.975 563.047 153.849 558.53 147.912ZM605.65 143.685C605.881 142.988 606.975 141.105 608.081 139.501C609.187 137.896 610.007 136.502 609.905 136.403C609.801 136.303 608.699 136.934 607.454 137.805C605.045 139.49 604.264 141.214 604.862 143.527C605.228 144.947 605.231 144.948 605.65 143.685ZM546.811 141.917C545.575 139.072 544.976 138.343 543.508 137.901C541.064 137.163 537.43 136.681 537.43 137.094C537.43 138.723 547.135 146.578 548.036 145.679C548.194 145.522 547.642 143.829 546.811 141.917ZM583.636 153.221C586.561 144.549 586.604 144.289 585.35 142.699C584.721 141.901 583.967 141.247 583.675 141.247C583.383 141.247 583.145 143.392 583.145 146.013C583.145 148.636 583.018 152.035 582.862 153.569L582.578 156.357L583.636 153.221ZM504.647 146.347C503.47 145.266 501.69 143.933 500.691 143.385C498.336 142.091 497.271 142.126 495.99 143.539C494.97 144.663 494.987 144.753 496.654 147.103C498.297 149.421 498.467 149.507 501.026 149.326C502.49 149.223 504.385 148.952 505.237 148.725L506.786 148.311L504.647 146.347ZM617.468 158.045C617.779 157.853 619.058 155.663 620.311 153.178C621.563 150.693 622.501 148.659 622.395 148.659C622.181 148.659 620.35 150.695 619.214 152.197C618.239 153.485 616.745 158.491 617.468 158.045ZM549.618 160.063C549.843 160.063 549.771 159.344 549.155 155.415C548.908 153.844 548.2 152.82 546.272 151.243L543.716 149.153V157.193L546.554 158.628C548.115 159.417 549.494 160.063 549.618 160.063ZM526.572 155.249C524.281 153.522 520.868 152.43 513.978 151.221C507.998 150.17 499.712 150.278 499.716 151.405C499.719 151.996 509.749 154.777 514.287 155.446C516.487 155.77 520.601 156.198 523.43 156.396L528.573 156.757L526.572 155.249ZM589.117 163.756C589.64 162.509 590.21 159.949 590.382 158.068C590.556 156.186 590.46 153.748 590.17 152.651C589.677 150.782 589.511 151.181 587.553 158.923C586.403 163.47 585.031 168.73 584.503 170.612C583.735 173.353 583.635 175.053 584 179.165L584.457 184.297L585.513 180.306C586.093 178.11 586.927 173.999 587.367 171.169C587.806 168.339 588.593 165.003 589.117 163.756ZM633.189 154.966C634.334 155.386 636.44 153.908 637.505 151.938C638.274 150.513 637.508 150.735 634.618 152.776C632.414 154.333 632.23 154.613 633.189 154.966ZM510.989 159.276C509.312 156.799 508.654 156.346 504.592 154.868C502.102 153.962 500.048 153.221 500.028 153.221C500.008 153.221 499.994 154.439 499.996 155.929C499.999 157.419 499.817 159.457 499.593 160.458L499.185 162.278L506.023 162.454C509.783 162.55 512.86 162.496 512.859 162.333C512.858 162.171 512.017 160.795 510.989 159.276ZM622.753 171.467C624.342 169.8 634.003 156.538 634.003 156.024C634.003 155.314 633.422 155.398 631.634 156.367C630.802 156.818 629.039 158.897 627.716 160.988C625.092 165.135 621.44 172.845 622.753 171.467ZM533.934 162.53C531.906 160.335 529.673 159.605 521.279 158.393C517.091 157.788 512.959 157.117 512.097 156.9L510.528 156.508L512.693 159.671C514.691 162.59 515.217 162.971 519.517 164.607C524.443 166.482 528.324 169.384 531.199 173.344L532.793 175.54L533.965 173.248C534.724 171.766 535.165 169.728 535.216 167.479C535.282 164.546 535.082 163.773 533.934 162.53ZM569.261 185.58C565.029 177.476 561.446 171.146 554.575 159.636C552.479 156.124 551.571 155.769 552.389 158.78C553.746 163.776 572.2 194.846 573.809 194.846C573.969 194.846 571.923 190.677 569.261 185.58ZM577.911 174.461C577.354 170.722 573.283 162.035 570.563 158.78C567.988 155.699 566.95 155.96 568.407 159.324C569.262 161.297 578.055 177.74 578.255 177.74C578.335 177.74 578.18 176.265 577.911 174.461ZM549.804 165.287C547.874 163.248 545.047 161.646 539.188 159.27C537.169 158.452 535.386 157.782 535.225 157.782C534.585 157.782 538.521 161.518 542.777 164.951C545.247 166.943 549.04 170.605 551.206 173.09C554.901 177.329 558.002 180.04 558.002 179.032C558.002 178.005 551.46 167.036 549.804 165.287ZM611.208 175.706C612.937 174.639 618.003 163.124 618.003 160.259C618.003 157.769 617.114 158.906 614.403 164.865C611.875 170.421 610.12 176.376 611.208 175.706ZM631.513 164.91L633.97 162.552C635.322 161.254 636.323 159.879 636.195 159.495C635.937 158.723 635.887 158.774 633.139 162.629L631.513 164.91ZM512.734 166.378C515.169 165.198 515.295 165.038 514.266 164.439C513.645 164.077 509.925 163.693 505.94 163.58C499.509 163.396 498.696 163.481 498.355 164.366C498.145 164.912 498.055 165.439 498.154 165.538C498.252 165.637 500.976 166.155 504.207 166.691L510.081 167.664L512.734 166.378ZM573.28 183.036C573.691 181.806 569.475 170.341 567.452 167.185C566.348 165.464 565.32 164.055 565.166 164.055C564.759 164.055 565.433 167.335 566.514 170.612C567.705 174.223 572.986 183.919 573.28 183.036ZM555.802 190.373C554.641 187.322 552.601 184.17 547.626 177.74C545.806 175.388 542.646 171.667 540.603 169.472L536.889 165.48L536.874 168.206C536.865 169.81 536.261 172.347 535.406 174.373L533.955 177.816L535.152 179.749C537.358 183.309 542.031 186.873 548.671 190.058C556.841 193.977 557.181 193.992 555.802 190.373ZM513.28 167.476C510.65 168.883 509.293 168.883 503.143 167.476C497.142 166.103 497.628 166.092 497.218 167.619C496.4 170.664 496.741 171.394 499.286 172.044C500.622 172.387 502.685 173.038 503.869 173.492C506.743 174.594 507.61 174.544 514.285 172.886C517.427 172.106 521.284 171.459 522.857 171.449L525.715 171.432L524.112 170.024C522.254 168.392 521.046 168.263 519.267 169.507C517.911 170.454 514.165 171.267 508.572 171.826C505.588 172.125 504.958 172.009 503.715 170.935L502.286 169.7L504.237 170.646C506.261 171.629 510.406 171.503 511.083 170.439C511.273 170.14 512.76 169.714 514.385 169.493C517.945 169.01 519.899 167.811 518.572 166.925C517.263 166.051 515.626 166.221 513.28 167.476ZM503.143 174.855C503.143 174.584 501.811 173.968 500.182 173.485C496.684 172.449 496.858 172.466 496.858 173.151C496.858 174.275 498.21 176.599 498.864 176.599C500.096 176.599 503.143 175.357 503.143 174.855ZM530.946 178.832C530.269 177.707 529.33 176.224 528.858 175.536C527.856 174.073 524.448 173.638 518.663 174.235C515.709 174.54 514.841 174.872 513.973 176.031C513.386 176.814 512.382 178.137 511.74 178.97C511.097 179.804 510.572 180.589 510.572 180.715C510.572 180.842 515.433 180.929 521.374 180.91L532.177 180.876L530.946 178.832ZM507.394 180.258C509.429 180.301 509.804 180.07 511.312 177.848C512.229 176.496 512.888 175.324 512.776 175.243C512.664 175.162 511.544 175.292 510.286 175.53C509.029 175.768 507.196 175.978 506.213 175.996C505.23 176.014 503.43 176.453 502.213 176.97L500 177.912L502.572 179.061C503.986 179.693 506.156 180.232 507.394 180.258ZM572.518 205.638C575.124 207.786 564.46 188.484 560.638 184.135C559.003 182.276 556.859 180.776 556.859 181.492C556.859 181.697 558.415 184.868 560.317 188.541C563.387 194.467 569.704 203.32 572.518 205.638Z" fill="#57624D"/>
<path d="M312.255 301.593C203.899 306.376 97.7398 274.372 0 324.033C46.0858 290.54 77.113 271.251 241.787 288.718C406.461 306.185 490.777 247.621 483.574 253.404C476.372 259.186 420.611 296.811 312.255 301.593Z" fill="url(#paint0_linear_1861_378)"/>
<path d="M124.012 253V248.866H127.288C128.068 248.866 128.744 248.762 129.316 248.554C129.94 248.294 130.408 247.8 130.72 247.072C131.084 246.344 131.266 245.252 131.266 243.796V202.066H125.026C123.466 202.066 122.244 202.3 121.36 202.768C120.476 203.184 119.826 203.808 119.41 204.64C118.994 205.472 118.708 206.46 118.552 207.604L118.006 212.44H112.78L113.17 197.308H161.764L162.154 212.44H156.928L156.382 207.604C156.278 206.46 155.992 205.472 155.524 204.64C155.108 203.808 154.458 203.184 153.574 202.768C152.69 202.3 151.468 202.066 149.908 202.066H143.668V243.796C143.668 245.252 143.824 246.344 144.136 247.072C144.5 247.8 144.994 248.294 145.618 248.554C146.242 248.762 146.918 248.866 147.646 248.866H150.922V253H124.012ZM166.937 253V248.866H169.667C170.759 248.866 171.591 248.684 172.163 248.32C172.787 247.904 173.099 246.89 173.099 245.278V216.496C173.099 214.78 172.813 213.714 172.241 213.298C171.669 212.83 170.811 212.596 169.667 212.596H166.937V208.462H205.547L205.859 220.552H200.633L200.321 217.354C200.113 215.69 199.671 214.494 198.995 213.766C198.319 213.038 197.305 212.674 195.953 212.674H184.955V227.494H200.399V231.706H184.955V248.71H198.059C199.255 248.71 200.191 248.294 200.867 247.462C201.543 246.578 202.011 245.434 202.271 244.03L202.817 240.832H207.887L207.341 253H166.937ZM214.142 253V248.866H216.872C217.912 248.866 218.744 248.684 219.368 248.32C219.992 247.904 220.304 246.916 220.304 245.356V216.184C220.304 214.624 219.992 213.636 219.368 213.22C218.744 212.804 217.912 212.596 216.872 212.596H214.142V208.462H236.684C241 208.462 244.484 208.982 247.136 210.022C249.788 211.01 251.738 212.414 252.986 214.234C254.234 216.054 254.858 218.186 254.858 220.63C254.858 222.762 254.442 224.53 253.61 225.934C252.83 227.338 251.79 228.482 250.49 229.366C249.242 230.25 247.89 230.952 246.434 231.472L254 244.108C254.728 245.252 255.404 246.188 256.028 246.916C256.704 247.592 257.38 248.086 258.056 248.398C258.784 248.71 259.512 248.866 260.24 248.866H260.552V253H257.198C254.442 253 252.128 252.818 250.256 252.454C248.436 252.038 246.928 251.362 245.732 250.426C244.536 249.49 243.496 248.242 242.612 246.682L235.592 233.89H232.16V245.356C232.16 246.916 232.472 247.904 233.096 248.32C233.72 248.684 234.552 248.866 235.592 248.866H238.322V253H214.142ZM234.5 229.756C237.152 229.756 239.154 229.054 240.506 227.65C241.858 226.194 242.534 223.984 242.534 221.02C242.534 217.9 241.91 215.742 240.662 214.546C239.414 213.298 237.62 212.674 235.28 212.674H232.16V229.756H234.5ZM262.916 253V248.866H263.54C264.424 248.866 265.178 248.762 265.802 248.554C266.478 248.346 267.076 247.956 267.596 247.384C268.116 246.812 268.584 246.006 269 244.966L283.196 208.462H294.428L307.844 244.108C308.572 245.928 309.378 247.176 310.262 247.852C311.198 248.528 312.16 248.866 313.148 248.866H314.474V253H291.23V248.866H293.414C294.35 248.866 295.026 248.736 295.442 248.476C295.91 248.164 296.144 247.696 296.144 247.072C296.144 246.656 296.092 246.24 295.988 245.824C295.884 245.408 295.754 244.966 295.598 244.498L293.336 238.102H277.502L275.552 243.328C275.344 244.004 275.162 244.602 275.006 245.122C274.85 245.642 274.772 246.188 274.772 246.76C274.772 247.28 274.954 247.774 275.318 248.242C275.734 248.658 276.436 248.866 277.424 248.866H279.764V253H262.916ZM278.984 233.89H291.776L288.5 224.608C287.98 223.152 287.46 221.644 286.94 220.084C286.42 218.524 285.926 216.964 285.458 215.404C285.198 216.444 284.886 217.484 284.522 218.524C284.21 219.564 283.872 220.604 283.508 221.644C283.144 222.632 282.78 223.62 282.416 224.608L278.984 233.89ZM318.455 253V248.866H321.263C322.407 248.866 323.239 248.658 323.759 248.242C324.331 247.774 324.617 246.708 324.617 245.044V216.184C324.617 214.624 324.331 213.636 323.759 213.22C323.187 212.804 322.355 212.596 321.263 212.596H318.455V208.462H340.217C344.429 208.462 347.861 208.956 350.513 209.944C353.217 210.932 355.193 212.414 356.441 214.39C357.741 216.366 358.391 218.836 358.391 221.8C358.391 224.452 357.767 226.896 356.519 229.132C355.323 231.316 353.295 233.058 350.435 234.358C347.575 235.658 343.675 236.308 338.735 236.308H336.473V245.356C336.473 246.864 336.759 247.826 337.331 248.242C337.955 248.658 338.787 248.866 339.827 248.866H344.039V253H318.455ZM338.033 232.174C340.009 232.174 341.569 231.81 342.713 231.082C343.909 230.354 344.767 229.262 345.287 227.806C345.807 226.298 346.067 224.4 346.067 222.112C346.067 218.836 345.521 216.444 344.429 214.936C343.389 213.428 341.595 212.674 339.047 212.674H336.473V232.174H338.033ZM364.746 253V248.866H367.476C368.62 248.866 369.478 248.658 370.05 248.242C370.622 247.774 370.908 246.708 370.908 245.044V216.418C370.908 214.754 370.622 213.714 370.05 213.298C369.478 212.83 368.62 212.596 367.476 212.596H364.746V208.462H388.926V212.596H386.196C385.104 212.596 384.246 212.83 383.622 213.298C383.05 213.714 382.764 214.754 382.764 216.418V245.044C382.764 246.708 383.024 247.774 383.544 248.242C384.064 248.658 384.948 248.866 386.196 248.866H388.926V253H364.746ZM393.182 253V248.866H393.806C394.69 248.866 395.444 248.762 396.068 248.554C396.744 248.346 397.342 247.956 397.862 247.384C398.382 246.812 398.85 246.006 399.266 244.966L413.462 208.462H424.694L438.11 244.108C438.838 245.928 439.644 247.176 440.528 247.852C441.464 248.528 442.426 248.866 443.414 248.866H444.74V253H421.496V248.866H423.68C424.616 248.866 425.292 248.736 425.708 248.476C426.176 248.164 426.41 247.696 426.41 247.072C426.41 246.656 426.358 246.24 426.254 245.824C426.15 245.408 426.02 244.966 425.864 244.498L423.602 238.102H407.768L405.818 243.328C405.61 244.004 405.428 244.602 405.272 245.122C405.116 245.642 405.038 246.188 405.038 246.76C405.038 247.28 405.22 247.774 405.584 248.242C406 248.658 406.702 248.866 407.69 248.866H410.03V253H393.182ZM409.25 233.89H422.042L418.766 224.608C418.246 223.152 417.726 221.644 417.206 220.084C416.686 218.524 416.192 216.964 415.724 215.404C415.464 216.444 415.152 217.484 414.788 218.524C414.476 219.564 414.138 220.604 413.774 221.644C413.41 222.632 413.046 223.62 412.682 224.608L409.25 233.89Z" fill="black"/>
<path d="M48.88 101.536C48.368 99.9147 47.6427 98.6773 46.704 97.824C45.7653 96.8853 44.784 96.2453 43.76 95.904C42.736 95.5627 41.7973 95.392 40.944 95.392H38V88.608H80.24V95.392H74.352C73.1573 95.392 72.0053 95.6907 70.896 96.288C69.872 96.8853 69.36 97.9947 69.36 99.616C69.36 100.128 69.4027 100.725 69.488 101.408C69.6587 102.091 69.8293 102.773 70 103.456C70.1707 104.053 70.3413 104.608 70.512 105.12L83.568 144.544C83.9093 145.483 84.2507 146.635 84.592 148C85.0187 149.28 85.4027 150.688 85.744 152.224C86.0853 153.675 86.384 155.125 86.64 156.576C86.9813 157.941 87.1947 159.221 87.28 160.416C87.536 158.965 87.8773 157.344 88.304 155.552C88.7307 153.76 89.2 151.925 89.712 150.048C90.3093 148.171 90.864 146.464 91.376 144.928L104.56 106.016C104.816 105.419 105.029 104.736 105.2 103.968C105.456 103.115 105.669 102.304 105.84 101.536C106.011 100.768 106.096 100.171 106.096 99.744C106.096 98.2933 105.627 97.2267 104.688 96.544C103.749 95.776 102.512 95.392 100.976 95.392H94.32V88.608H127.344V95.392H121.2C120.432 95.392 119.749 95.648 119.152 96.16C118.555 96.5867 117.957 97.4827 117.36 98.848C116.763 100.128 115.995 102.091 115.056 104.736L88.944 180H76.144L48.88 101.536ZM133.903 180V173.216H138.383C140.26 173.216 141.668 172.875 142.607 172.192C143.546 171.424 144.015 169.675 144.015 166.944V119.968C144.015 117.237 143.546 115.531 142.607 114.848C141.668 114.08 140.26 113.696 138.383 113.696H133.903V106.912H173.583V113.696H169.103C167.311 113.696 165.903 114.08 164.879 114.848C163.94 115.531 163.471 117.237 163.471 119.968V166.944C163.471 169.675 163.898 171.424 164.751 172.192C165.604 172.875 167.055 173.216 169.103 173.216H173.583V180H133.903ZM180.567 180V173.216H181.591C183.042 173.216 184.279 173.045 185.303 172.704C186.412 172.363 187.394 171.723 188.247 170.784C189.1 169.845 189.868 168.523 190.551 166.816L213.847 106.912H232.279L254.295 165.408C255.49 168.395 256.812 170.443 258.263 171.552C259.799 172.661 261.378 173.216 262.999 173.216H265.175V180H227.031V173.216H230.615C232.151 173.216 233.26 173.003 233.943 172.576C234.711 172.064 235.095 171.296 235.095 170.272C235.095 169.589 235.01 168.907 234.839 168.224C234.668 167.541 234.455 166.816 234.199 166.048L230.487 155.552H204.503L201.303 164.128C200.962 165.237 200.663 166.219 200.407 167.072C200.151 167.925 200.023 168.821 200.023 169.76C200.023 170.613 200.322 171.424 200.919 172.192C201.602 172.875 202.754 173.216 204.375 173.216H208.215V180H180.567ZM206.935 148.64H227.927L222.551 133.408C221.698 131.019 220.844 128.544 219.991 125.984C219.138 123.424 218.327 120.864 217.559 118.304C217.132 120.011 216.62 121.717 216.023 123.424C215.511 125.131 214.956 126.837 214.359 128.544C213.762 130.165 213.164 131.787 212.567 133.408L206.935 148.64ZM271.836 180V173.216H276.188C278.065 173.216 279.431 172.875 280.284 172.192C281.223 171.424 281.692 169.675 281.692 166.944V119.584C281.692 117.024 281.18 115.403 280.156 114.72C279.217 114.037 277.895 113.696 276.188 113.696H271.58V106.912H298.332L335.068 153.76V119.584C335.068 117.024 334.556 115.403 333.532 114.72C332.508 114.037 331.1 113.696 329.308 113.696H324.956V106.912H354.268V113.696H349.788C347.996 113.696 346.588 114.08 345.564 114.848C344.625 115.531 344.156 117.237 344.156 119.968V180H332.892L290.78 125.472V166.944C290.78 169.675 291.292 171.424 292.316 172.192C293.34 172.875 294.791 173.216 296.668 173.216H300.636V180H271.836ZM359.997 180V173.216H361.021C362.472 173.216 363.709 173.045 364.733 172.704C365.842 172.363 366.824 171.723 367.677 170.784C368.53 169.845 369.298 168.523 369.981 166.816L393.277 106.912H411.709L433.725 165.408C434.92 168.395 436.242 170.443 437.693 171.552C439.229 172.661 440.808 173.216 442.429 173.216H444.605V180H406.461V173.216H410.045C411.581 173.216 412.69 173.003 413.373 172.576C414.141 172.064 414.525 171.296 414.525 170.272C414.525 169.589 414.44 168.907 414.269 168.224C414.098 167.541 413.885 166.816 413.629 166.048L409.917 155.552H383.933L380.733 164.128C380.392 165.237 380.093 166.219 379.837 167.072C379.581 167.925 379.453 168.821 379.453 169.76C379.453 170.613 379.752 171.424 380.349 172.192C381.032 172.875 382.184 173.216 383.805 173.216H387.645V180H359.997ZM386.365 148.64H407.357L401.981 133.408C401.128 131.019 400.274 128.544 399.421 125.984C398.568 123.424 397.757 120.864 396.989 118.304C396.562 120.011 396.05 121.717 395.453 123.424C394.941 125.131 394.386 126.837 393.789 128.544C393.192 130.165 392.594 131.787 391.997 133.408L386.365 148.64Z" fill="black"/>
<defs>
<linearGradient id="paint0_linear_1861_378" x1="0" y1="288.517" x2="484" y2="288.517" gradientUnits="userSpaceOnUse">
<stop stop-color="#AC8C4D"/>
<stop offset="0.509615" stop-color="#C1A461"/>
<stop offset="1" stop-color="#B69F69"/>
</linearGradient>
</defs>
</svg>
